STARTFONT 2.1
FONT -Adobe-Helvetica-Bold-R-Normal--25-180-100-100-P-138-ISO10646-1
SIZE 18 100 100
FONTBOUNDINGBOX 28 37 -2 -8
COMMENT ISO10646-1 extension by Markus Kuhn <mkuhn@acm.org>, 2001-03-20
COMMENT 
COMMENT +
COMMENT  Copyright 1984-1989, 1994 Adobe Systems Incorporated.
COMMENT  Copyright 1988, 1994 Digital Equipment Corporation.
COMMENT
COMMENT  Adobe is a trademark of Adobe Systems Incorporated which may be
COMMENT  registered in certain jurisdictions.
COMMENT  Permission to use these trademarks is hereby granted only in
COMMENT  association with the images described in this file.
COMMENT
COMMENT  Permission to use, copy, modify, distribute and sell this software
COMMENT  and its documentation for any purpose and without fee is hereby
COMMENT  granted, provided that the above copyright notices appear in all
COMMENT  copies and that both those copyright notices and this permission
COMMENT  notice appear in supporting documentation, and that the names of
COMMENT  Adobe Systems and Digital Equipment Corporation not be used in
COMMENT  advertising or publicity pertaining to distribution of the software
COMMENT  without specific, written prior permission.  Adobe Systems and
COMMENT  Digital Equipment Corporation make no representations about the
COMMENT  suitability of this software for any purpose.  It is provided "as
COMMENT  is" without express or implied warranty.
COMMENT -
STARTPROPERTIES 26
FOUNDRY "Adobe"
FAMILY_NAME "Helvetica"
WEIGHT_NAME "Bold"
SLANT "R"
SETWIDTH_NAME "Normal"
ADD_STYLE_NAME ""
PIXEL_SIZE 25
POINT_SIZE 180
RESOLUTION_X 100
RESOLUTION_Y 100
SPACING "P"
AVERAGE_WIDTH 138
CHARSET_REGISTRY "ISO10646"
CHARSET_ENCODING "1"
CAP_HEIGHT 19
X_HEIGHT 14
FONT_ASCENT 22
FONT_DESCENT 5
FACE_NAME "Helvetica Bold"
COPYRIGHT "Copyright (c) 1984, 1987 Adobe Systems Incorporated. All Rights Reserved. Copyright (c) 1988, 1991 Digital Equipment Corporation. All Rights Reserved."

STARTCHAR char0
ENCODING 0
SWIDTH 722 0
DWIDTH 19 0
BBX 15 19 2 0
BITMAP
AAAA
0000
8002
0000
8002
0000
8002
0000
8002
0000
8002
0000
8002
0000
8002
0000
8002
0000
AAAA
ENDCHAR
STARTCHAR space
ENCODING 32
SWIDTH 278 0
DWIDTH 6 0
BBX 1 1 0 0
BITMAP
00
ENDCHAR
STARTCHAR exclam
ENCODING 33
SWIDTH 333 0
DWIDTH 7 0
BBX 3 19 2 0
BITMAP
E0
E0
E0
E0
E0
E0
E0
E0
E0
E0
E0
C0
C0
C0
00
00
E0
E0
E0
ENDCHAR
STARTCHAR quotedbl
ENCODING 34
SWIDTH 474 0
DWIDTH 9 0
BBX 5 6 2 13
BITMAP
D8
D8
D8
D8
D8
90
ENDCHAR
STARTCHAR numbersign
ENCODING 35
SWIDTH 556 0
DWIDTH 14 0
BBX 12 18 1 0
BITMAP
0CC0
0CC0
0CC0
0CC0
0CC0
7FF0
7FF0
1980
1980
1980
1980
FFE0
FFE0
3300
3300
3300
3300
3300
ENDCHAR
STARTCHAR dollar
ENCODING 36
SWIDTH 556 0
DWIDTH 13 0
BBX 12 21 0 -2
BITMAP
0600
3F80
7FE0
F6E0
E670
E670
F600
7E00
3E00
0F00
07C0
07E0
06F0
E670
E670
E670
F6F0
7FE0
1FC0
0600
0600
ENDCHAR
STARTCHAR percent
ENCODING 37
SWIDTH 889 0
DWIDTH 22 0
BBX 21 18 0 0
BITMAP
000700
3E0700
7F0E00
E38E00
C19C00
C19C00
E3B800
7F3800
3E7000
007000
00E3E0
00E7F0
01CE38
01CC18
038C18
038E38
0707F0
0703E0
ENDCHAR
STARTCHAR ampersand
ENCODING 38
SWIDTH 722 0
DWIDTH 18 0
BBX 16 18 1 0
BITMAP
0F80
1FC0
3DE0
38E0
38E0
38E0
1DC0
0F80
1F00
3F9C
7BDC
71FC
E0F8
E070
E0F8
F1FC
7FCE
1F87
ENDCHAR
STARTCHAR quotesingle
ENCODING 39
SWIDTH 238 0
DWIDTH 6 0
BBX 2 6 2 13
BITMAP
C0
C0
C0
C0
C0
80
ENDCHAR
STARTCHAR parenleft
ENCODING 40
SWIDTH 333 0
DWIDTH 8 0
BBX 6 24 1 -5
BITMAP
0C
1C
38
38
70
70
60
E0
E0
E0
E0
E0
E0
E0
E0
E0
E0
60
70
70
38
38
1C
0C
ENDCHAR
STARTCHAR parenright
ENCODING 41
SWIDTH 333 0
DWIDTH 8 0
BBX 6 24 1 -5
BITMAP
C0
E0
70
70
38
38
18
1C
1C
1C
1C
1C
1C
1C
1C
1C
1C
18
38
38
70
70
E0
C0
ENDCHAR
STARTCHAR asterisk
ENCODING 42
SWIDTH 389 0
DWIDTH 10 0
BBX 8 7 1 12
BITMAP
18
18
DB
FF
3C
66
66
ENDCHAR
STARTCHAR plus
ENCODING 43
SWIDTH 584 0
DWIDTH 15 0
BBX 12 12 1 1
BITMAP
0600
0600
0600
0600
0600
FFF0
FFF0
0600
0600
0600
0600
0600
ENDCHAR
STARTCHAR comma
ENCODING 44
SWIDTH 278 0
DWIDTH 7 0
BBX 3 6 2 -3
BITMAP
E0
E0
E0
60
60
C0
ENDCHAR
STARTCHAR hyphen
ENCODING 45
SWIDTH 333 0
DWIDTH 8 0
BBX 7 3 0 6
BITMAP
FE
FE
FE
ENDCHAR
STARTCHAR period
ENCODING 46
SWIDTH 278 0
DWIDTH 7 0
BBX 3 3 2 0
BITMAP
E0
E0
E0
ENDCHAR
STARTCHAR slash
ENCODING 47
SWIDTH 278 0
DWIDTH 8 0
BBX 7 19 1 0
BITMAP
06
06
06
0C
0C
0C
18
18
18
18
30
30
30
60
60
60
C0
C0
C0
ENDCHAR
STARTCHAR zero
ENCODING 48
SWIDTH 556 0
DWIDTH 13 0
BBX 12 18 0 0
BITMAP
1F80
3FC0
79E0
70E0
70E0
E070
E070
E070
E070
E070
E070
E070
E070
70E0
70E0
79E0
3FC0
1F80
ENDCHAR
STARTCHAR one
ENCODING 49
SWIDTH 556 0
DWIDTH 13 0
BBX 7 18 2 0
BITMAP
0E
0E
1E
FE
FE
0E
0E
0E
0E
0E
0E
0E
0E
0E
0E
0E
0E
0E
ENDCHAR
STARTCHAR two
ENCODING 50
SWIDTH 556 0
DWIDTH 13 0
BBX 12 18 0 0
BITMAP
1F00
7FC0
71E0
E0E0
E070
E070
0070
00E0
01E0
03C0
0780
1F00
3C00
7800
F000
E000
FFF0
FFF0
ENDCHAR
STARTCHAR three
ENCODING 51
SWIDTH 556 0
DWIDTH 13 0
BBX 12 18 0 0
BITMAP
1F00
7FC0
71C0
E0E0
E0E0
E0E0
00E0
01C0
0F80
0FE0
00E0
0070
0070
E070
E0F0
71E0
7FE0
1F80
ENDCHAR
STARTCHAR four
ENCODING 52
SWIDTH 556 0
DWIDTH 13 0
BBX 12 18 0 0
BITMAP
01C0
03C0
03C0
07C0
07C0
0DC0
1DC0
19C0
31C0
71C0
61C0
E1C0
FFF0
FFF0
01C0
01C0
01C0
01C0
ENDCHAR
STARTCHAR five
ENCODING 53
SWIDTH 556 0
DWIDTH 13 0
BBX 12 18 0 0
BITMAP
7FE0
7FE0
7000
7000
7000
7000
7F80
7FC0
71E0
00E0
0070
0070
0070
E070
E0F0
F1E0
7FC0
1F80
ENDCHAR
STARTCHAR six
ENCODING 54
SWIDTH 556 0
DWIDTH 13 0
BBX 12 18 0 0
BITMAP
0F80
3FE0
78E0
7070
E070
E000
E000
EF00
FFC0
F9E0
F0E0
E070
E070
E070
70E0
79E0
3FC0
1F80
ENDCHAR
STARTCHAR seven
ENCODING 55
SWIDTH 556 0
DWIDTH 13 0
BBX 12 18 0 0
BITMAP
FFF0
FFF0
00F0
00E0
01C0
01C0
0380
0380
0700
0700
0E00
0E00
1E00
1C00
1C00
3C00
3800
3800
ENDCHAR
STARTCHAR eight
ENCODING 56
SWIDTH 556 0
DWIDTH 13 0
BBX 12 18 0 0
BITMAP
0F00
3FC0
39C0
70E0
70E0
70E0
70E0
39C0
1F80
3FC0
70E0
E070
E070
E070
E070
70E0
7FE0
1F80
ENDCHAR
STARTCHAR nine
ENCODING 57
SWIDTH 556 0
DWIDTH 13 0
BBX 12 18 0 0
BITMAP
1F80
7FC0
79E0
F0E0
E070
E070
E070
E070
F0F0
79F0
7FF0
1F70
0070
0070
E0E0
F3E0
7FC0
1F00
ENDCHAR
STARTCHAR colon
ENCODING 58
SWIDTH 333 0
DWIDTH 7 0
BBX 3 14 2 0
BITMAP
E0
E0
E0
00
00
00
00
00
00
00
00
E0
E0
E0
ENDCHAR
STARTCHAR semicolon
ENCODING 59
SWIDTH 333 0
DWIDTH 7 0
BBX 3 17 2 -3
BITMAP
E0
E0
E0
00
00
00
00
00
00
00
00
E0
E0
E0
60
60
C0
ENDCHAR
STARTCHAR less
ENCODING 60
SWIDTH 584 0
DWIDTH 15 0
BBX 13 12 0 1
BITMAP
0038
00F8
03E0
0F80
3E00
F000
F000
3E00
0F80
03E0
00F8
0038
ENDCHAR
STARTCHAR equal
ENCODING 61
SWIDTH 584 0
DWIDTH 14 0
BBX 10 5 2 5
BITMAP
FFC0
FFC0
0000
FFC0
FFC0
ENDCHAR
STARTCHAR greater
ENCODING 62
SWIDTH 584 0
DWIDTH 14 0
BBX 13 12 1 1
BITMAP
E000
F800
3E00
0F80
03E0
0078
0078
03E0
0F80
3E00
F800
E000
ENDCHAR
STARTCHAR question
ENCODING 63
SWIDTH 611 0
DWIDTH 15 0
BBX 11 19 2 0
BITMAP
1F80
7FC0
79E0
F0E0
E0E0
E1E0
01C0
03C0
0780
0700
0E00
0E00
0E00
0E00
0000
0000
0E00
0E00
0E00
ENDCHAR
STARTCHAR at
ENCODING 64
SWIDTH 975 0
DWIDTH 24 0
BBX 22 22 1 -4
BITMAP
01FF00
07FFC0
0F81F0
1E0078
3C0038
787D9C
70FF9C
F1C71C
E3871C
E30E1C
E70E38
E70C38
E71C70
E71C70
E39DE0
F3FFC0
71F700
780000
3C0000
1F0700
0FFF00
03FC00
ENDCHAR
STARTCHAR A
ENCODING 65
SWIDTH 722 0
DWIDTH 18 0
BBX 16 19 1 0
BITMAP
03C0
03C0
07E0
07E0
0E60
0E70
0E70
1C38
1C38
1C38
381C
381C
3FFC
7FFE
700E
700E
E007
E007
E007
ENDCHAR
STARTCHAR B
ENCODING 66
SWIDTH 722 0
DWIDTH 18 0
BBX 15 19 2 0
BITMAP
FFE0
FFF8
E078
E01C
E01C
E01C
E01C
E038
FFF0
FFF8
E01C
E00E
E00E
E00E
E00E
E01E
E07C
FFF8
FFE0
ENDCHAR
STARTCHAR C
ENCODING 67
SWIDTH 722 0
DWIDTH 18 0
BBX 16 19 1 0
BITMAP
07F0
1FFC
3E3E
780F
7007
F000
E000
E000
E000
E000
E000
E000
E000
F007
7007
780F
3E3E
1FFC
07F0
ENDCHAR
STARTCHAR D
ENCODING 68
SWIDTH 722 0
DWIDTH 19 0
BBX 16 19 2 0
BITMAP
FFE0
FFF8
E07C
E01E
E00E
E00F
E007
E007
E007
E007
E007
E007
E007
E00F
E00E
E01E
E07C
FFF8
FFE0
ENDCHAR
STARTCHAR E
ENCODING 69
SWIDTH 667 0
DWIDTH 16 0
BBX 13 19 2 0
BITMAP
FFF0
FFF0
E000
E000
E000
E000
E000
E000
FFE0
FFE0
E000
E000
E000
E000
E000
E000
E000
FFF8
FFF8
ENDCHAR
STARTCHAR F
ENCODING 70
SWIDTH 611 0
DWIDTH 15 0
BBX 12 19 2 0
BITMAP
FFF0
FFF0
E000
E000
E000
E000
E000
E000
FFE0
FFE0
E000
E000
E000
E000
E000
E000
E000
E000
E000
ENDCHAR
STARTCHAR G
ENCODING 71
SWIDTH 778 0
DWIDTH 19 0
BBX 17 19 1 0
BITMAP
07F000
1FFC00
3E3E00
780F00
700700
F00000
E00000
E00000
E00000
E07F80
E07F80
E00380
E00380
F00380
700780
780F80
3E3F80
1FFB80
07F380
ENDCHAR
STARTCHAR H
ENCODING 72
SWIDTH 722 0
DWIDTH 19 0
BBX 15 19 2 0
BITMAP
E00E
E00E
E00E
E00E
E00E
E00E
E00E
E00E
FFFE
FFFE
E00E
E00E
E00E
E00E
E00E
E00E
E00E
E00E
E00E
ENDCHAR
STARTCHAR I
ENCODING 73
SWIDTH 278 0
DWIDTH 7 0
BBX 3 19 2 0
BITMAP
E0
E0
E0
E0
E0
E0
E0
E0
E0
E0
E0
E0
E0
E0
E0
E0
E0
E0
E0
ENDCHAR
STARTCHAR J
ENCODING 74
SWIDTH 556 0
DWIDTH 14 0
BBX 11 19 1 0
BITMAP
00E0
00E0
00E0
00E0
00E0
00E0
00E0
00E0
00E0
00E0
00E0
00E0
E0E0
E0E0
E0E0
E0E0
71E0
7FC0
3F80
ENDCHAR
STARTCHAR K
ENCODING 75
SWIDTH 722 0
DWIDTH 18 0
BBX 14 19 2 0
BITMAP
E03C
E078
E0F0
E1E0
E3C0
E780
EF00
FE00
FE00
FF00
F780
E380
E1C0
E1E0
E0E0
E070
E078
E038
E03C
ENDCHAR
STARTCHAR L
ENCODING 76
SWIDTH 611 0
DWIDTH 15 0
BBX 12 19 2 0
BITMAP
E000
E000
E000
E000
E000
E000
E000
E000
E000
E000
E000
E000
E000
E000
E000
E000
E000
FFF0
FFF0
ENDCHAR
STARTCHAR M
ENCODING 77
SWIDTH 833 0
DWIDTH 23 0
BBX 19 19 2 0
BITMAP
E000E0
F001E0
F001E0
F803E0
F803E0
FC07E0
EC06E0
EE0EE0
E60CE0
E71CE0
E71CE0
E318E0
E3B8E0
E3B8E0
E1F0E0
E1F0E0
E0E0E0
E0E0E0
E0E0E0
ENDCHAR
STARTCHAR N
ENCODING 78
SWIDTH 722 0
DWIDTH 19 0
BBX 15 19 2 0
BITMAP
E00E
F00E
F00E
F80E
F80E
FC0E
EE0E
EE0E
E70E
E38E
E38E
E1CE
E0CE
E0EE
E07E
E03E
E03E
E01E
E00E
ENDCHAR
STARTCHAR O
ENCODING 79
SWIDTH 778 0
DWIDTH 19 0
BBX 17 19 1 0
BITMAP
07F000
1FFC00
3E3E00
780F00
700700
F00780
E00380
E00380
E00380
E00380
E00380
E00380
E00380
F00780
700700
780F00
3E3E00
1FFC00
07F000
ENDCHAR
STARTCHAR P
ENCODING 80
SWIDTH 667 0
DWIDTH 17 0
BBX 14 19 2 0
BITMAP
FFE0
FFF8
E038
E01C
E01C
E01C
E01C
E038
FFF8
FFF0
E000
E000
E000
E000
E000
E000
E000
E000
E000
ENDCHAR
STARTCHAR Q
ENCODING 81
SWIDTH 778 0
DWIDTH 19 0
BBX 17 20 1 -1
BITMAP
07F000
1FFC00
3E3E00
780F00
700700
F00780
E00380
E00380
E00380
E00380
E00380
E00380
E00380
F02780
707700
783F00
3E1E00
1FFE00
07F700
000200
ENDCHAR
STARTCHAR R
ENCODING 82
SWIDTH 722 0
DWIDTH 17 0
BBX 14 19 2 0
BITMAP
FFE0
FFF8
E038
E01C
E01C
E01C
E01C
E038
FFF8
FFF0
E078
E038
E01C
E01C
E01C
E01C
E01C
E01C
E01C
ENDCHAR
STARTCHAR S
ENCODING 83
SWIDTH 667 0
DWIDTH 17 0
BBX 14 19 2 0
BITMAP
0FC0
3FF0
78F8
F038
E038
E000
F000
7C00
3FC0
07F0
00F8
003C
001C
E01C
E01C
E03C
F8F8
7FF0
1FC0
ENDCHAR
STARTCHAR T
ENCODING 84
SWIDTH 611 0
DWIDTH 15 0
BBX 15 19 0 0
BITMAP
FFFE
FFFE
0380
0380
0380
0380
0380
0380
0380
0380
0380
0380
0380
0380
0380
0380
0380
0380
0380
ENDCHAR
STARTCHAR U
ENCODING 85
SWIDTH 722 0
DWIDTH 19 0
BBX 15 19 2 0
BITMAP
E00E
E00E
E00E
E00E
E00E
E00E
E00E
E00E
E00E
E00E
E00E
E00E
E00E
E00E
F01E
701C
7C7C
3FF8
0FE0
ENDCHAR
STARTCHAR V
ENCODING 86
SWIDTH 667 0
DWIDTH 18 0
BBX 16 19 1 0
BITMAP
E007
E007
F00F
700E
781E
381C
381C
3C3C
1C38
1C38
1E78
0E70
0E70
0E70
07E0
07E0
03C0
03C0
03C0
ENDCHAR
STARTCHAR W
ENCODING 87
SWIDTH 944 0
DWIDTH 23 0
BBX 21 19 1 0
BITMAP
E07038
E07038
E07038
E07038
70F870
70F870
70D870
71DC70
31DC60
39DCE0
398CE0
3B8EE0
1B8EC0
1B8EC0
1F07C0
1F07C0
0E0380
0E0380
0E0380
ENDCHAR
STARTCHAR X
ENCODING 88
SWIDTH 667 0
DWIDTH 18 0
BBX 16 19 1 0
BITMAP
E007
F00F
781E
381C
1C38
0E70
0FF0
07E0
03C0
03C0
07E0
0FF0
0E70
1C38
3C3C
381C
700E
F00F
E007
ENDCHAR
STARTCHAR Y
ENCODING 89
SWIDTH 667 0
DWIDTH 17 0
BBX 15 19 1 0
BITMAP
E00E
F00E
701C
781C
3838
3C38
1C70
1C70
0EE0
0EE0
07C0
07C0
0380
0380
0380
0380
0380
0380
0380
ENDCHAR
STARTCHAR Z
ENCODING 90
SWIDTH 611 0
DWIDTH 16 0
BBX 14 19 1 0
BITMAP
FFFC
FFFC
003C
0078
00F0
01E0
01E0
03C0
0780
0780
0F00
1E00
1E00
3C00
3800
7800
F000
FFFC
FFFC
ENDCHAR
STARTCHAR bracketleft
ENCODING 91
SWIDTH 333 0
DWIDTH 8 0
BBX 5 24 1 -5
BITMAP
F8
F8
E0
E0
E0
E0
E0
E0
E0
E0
E0
E0
E0
E0
E0
E0
E0
E0
E0
E0
E0
E0
F8
F8
ENDCHAR
STARTCHAR backslash
ENCODING 92
SWIDTH 278 0
DWIDTH 8 0
BBX 7 19 0 0
BITMAP
C0
C0
C0
60
60
60
30
30
30
30
18
18
18
0C
0C
0C
06
06
06
ENDCHAR
STARTCHAR bracketright
ENCODING 93
SWIDTH 333 0
DWIDTH 8 0
BBX 5 24 2 -5
BITMAP
F8
F8
38
38
38
38
38
38
38
38
38
38
38
38
38
38
38
38
38
38
38
38
F8
F8
ENDCHAR
STARTCHAR asciicircum
ENCODING 94
SWIDTH 584 0
DWIDTH 14 0
BBX 11 9 1 10
BITMAP
0E00
0E00
1F00
1B00
3B80
71C0
71C0
E0E0
E0E0
ENDCHAR
STARTCHAR underscore
ENCODING 95
SWIDTH 556 0
DWIDTH 14 0
BBX 14 2 0 -5
BITMAP
FFFC
FFFC
ENDCHAR
STARTCHAR grave
ENCODING 96
SWIDTH 333 0
DWIDTH 8 0
BBX 6 4 1 15
BITMAP
E0
70
38
1C
ENDCHAR
STARTCHAR a
ENCODING 97
SWIDTH 556 0
DWIDTH 14 0
BBX 12 14 1 0
BITMAP
1F80
3FC0
71E0
70E0
00E0
07E0
3FE0
7CE0
F0E0
E0E0
E1E0
F3E0
7FF0
3E70
ENDCHAR
STARTCHAR b
ENCODING 98
SWIDTH 611 0
DWIDTH 15 0
BBX 12 19 2 0
BITMAP
E000
E000
E000
E000
E000
EF80
FFC0
F9E0
F0E0
E070
E070
E070
E070
E070
E070
F0E0
F9E0
FFC0
EF80
ENDCHAR
STARTCHAR c
ENCODING 99
SWIDTH 556 0
DWIDTH 13 0
BBX 11 14 1 0
BITMAP
1F80
3FC0
79E0
70E0
E000
E000
E000
E000
E000
E000
70E0
79E0
3FC0
1F80
ENDCHAR
STARTCHAR d
ENCODING 100
SWIDTH 611 0
DWIDTH 15 0
BBX 12 19 1 0
BITMAP
0070
0070
0070
0070
0070
1F70
3FF0
79F0
70F0
E070
E070
E070
E070
E070
E070
70F0
79F0
3FF0
1F70
ENDCHAR
STARTCHAR e
ENCODING 101
SWIDTH 556 0
DWIDTH 14 0
BBX 12 14 1 0
BITMAP
0F00
3FC0
79E0
70E0
E070
E070
FFF0
FFF0
E000
E000
7070
78F0
3FE0
0F80
ENDCHAR
STARTCHAR f
ENCODING 102
SWIDTH 333 0
DWIDTH 9 0
BBX 7 19 1 0
BITMAP
1E
3E
38
38
38
FE
FE
38
38
38
38
38
38
38
38
38
38
38
38
ENDCHAR
STARTCHAR g
ENCODING 103
SWIDTH 611 0
DWIDTH 15 0
BBX 12 19 1 -5
BITMAP
1F70
3FF0
79F0
70F0
E070
E070
E070
E070
E070
E070
70F0
79F0
3FF0
1F70
0070
E070
F0E0
7FE0
1F80
ENDCHAR
STARTCHAR h
ENCODING 104
SWIDTH 611 0
DWIDTH 15 0
BBX 11 19 2 0
BITMAP
E000
E000
E000
E000
E000
EF00
FFC0
F1C0
E0E0
E0E0
E0E0
E0E0
E0E0
E0E0
E0E0
E0E0
E0E0
E0E0
E0E0
ENDCHAR
STARTCHAR i
ENCODING 105
SWIDTH 278 0
DWIDTH 7 0
BBX 3 19 2 0
BITMAP
E0
E0
E0
00
00
E0
E0
E0
E0
E0
E0
E0
E0
E0
E0
E0
E0
E0
E0
ENDCHAR
STARTCHAR j
ENCODING 106
SWIDTH 278 0
DWIDTH 7 0
BBX 5 24 0 -5
BITMAP
38
38
38
00
00
38
38
38
38
38
38
38
38
38
38
38
38
38
38
38
38
38
F8
F0
ENDCHAR
STARTCHAR k
ENCODING 107
SWIDTH 556 0
DWIDTH 14 0
BBX 11 19 2 0
BITMAP
E000
E000
E000
E000
E000
E1C0
E3C0
E780
EF00
FE00
FC00
FE00
EF00
E700
E780
E3C0
E1C0
E1E0
E0E0
ENDCHAR
STARTCHAR l
ENCODING 108
SWIDTH 278 0
DWIDTH 7 0
BBX 3 19 2 0
BITMAP
E0
E0
E0
E0
E0
E0
E0
E0
E0
E0
E0
E0
E0
E0
E0
E0
E0
E0
E0
ENDCHAR
STARTCHAR m
ENCODING 109
SWIDTH 889 0
DWIDTH 21 0
BBX 17 14 2 0
BITMAP
EF3E00
FFFF00
F3E780
E1C380
E1C380
E1C380
E1C380
E1C380
E1C380
E1C380
E1C380
E1C380
E1C380
E1C380
ENDCHAR
STARTCHAR n
ENCODING 110
SWIDTH 611 0
DWIDTH 15 0
BBX 11 14 2 0
BITMAP
EF80
FFC0
F1C0
E0E0
E0E0
E0E0
E0E0
E0E0
E0E0
E0E0
E0E0
E0E0
E0E0
E0E0
ENDCHAR
STARTCHAR o
ENCODING 111
SWIDTH 611 0
DWIDTH 14 0
BBX 12 14 1 0
BITMAP
0F00
3FC0
79E0
70E0
E070
E070
E070
E070
E070
E070
70E0
79E0
3FC0
0F00
ENDCHAR
STARTCHAR p
ENCODING 112
SWIDTH 611 0
DWIDTH 15 0
BBX 12 19 2 -5
BITMAP
EF80
FFC0
F9E0
F0E0
E070
E070
E070
E070
E070
E070
F0E0
F9E0
FFC0
EF80
E000
E000
E000
E000
E000
ENDCHAR
STARTCHAR q
ENCODING 113
SWIDTH 611 0
DWIDTH 15 0
BBX 12 19 1 -5
BITMAP
1F70
3FF0
79F0
70F0
E070
E070
E070
E070
E070
E070
70F0
79F0
3FF0
1F70
0070
0070
0070
0070
0070
ENDCHAR
STARTCHAR r
ENCODING 114
SWIDTH 389 0
DWIDTH 10 0
BBX 7 14 2 0
BITMAP
EE
FE
FE
F0
E0
E0
E0
E0
E0
E0
E0
E0
E0
E0
ENDCHAR
STARTCHAR s
ENCODING 115
SWIDTH 556 0
DWIDTH 13 0
BBX 11 14 1 0
BITMAP
3F00
7F80
F3C0
E1C0
E000
FC00
7F80
0FC0
01E0
E0E0
E0E0
F1E0
7FC0
3F80
ENDCHAR
STARTCHAR t
ENCODING 116
SWIDTH 333 0
DWIDTH 9 0
BBX 7 18 1 0
BITMAP
38
38
38
38
FE
FE
38
38
38
38
38
38
38
38
38
38
3E
1E
ENDCHAR
STARTCHAR u
ENCODING 117
SWIDTH 611 0
DWIDTH 15 0
BBX 11 14 2 0
BITMAP
E0E0
E0E0
E0E0
E0E0
E0E0
E0E0
E0E0
E0E0
E0E0
E0E0
E1E0
73E0
7EE0
1CE0
ENDCHAR
STARTCHAR v
ENCODING 118
SWIDTH 556 0
DWIDTH 14 0
BBX 12 14 1 0
BITMAP
E070
E070
E070
70E0
70E0
70E0
39C0
39C0
39C0
1F80
1F80
0F00
0F00
0F00
ENDCHAR
STARTCHAR w
ENCODING 119
SWIDTH 778 0
DWIDTH 19 0
BBX 19 14 0 0
BITMAP
E0E0E0
E0E0E0
60E0C0
71F1C0
71F1C0
31B180
33B980
3BBB80
1B1B00
1F1F00
1F1F00
0E0E00
0E0E00
0E0E00
ENDCHAR
STARTCHAR x
ENCODING 120
SWIDTH 556 0
DWIDTH 13 0
BBX 11 14 1 0
BITMAP
E0E0
F1E0
71C0
3B80
3F80
1F00
0E00
1F00
1F00
3B80
7BC0
71C0
F1E0
E0E0
ENDCHAR
STARTCHAR y
ENCODING 121
SWIDTH 556 0
DWIDTH 15 0
BBX 13 19 1 -5
BITMAP
E038
E038
7038
7870
3870
3CF0
1CE0
1CE0
0FC0
0FC0
07C0
0780
0380
0380
0700
0700
0E00
3E00
3C00
ENDCHAR
STARTCHAR z
ENCODING 122
SWIDTH 500 0
DWIDTH 13 0
BBX 11 14 1 0
BITMAP
FFE0
FFE0
01C0
0380
0780
0F00
0E00
1E00
3C00
3800
7000
F000
FFE0
FFE0
ENDCHAR
STARTCHAR braceleft
ENCODING 123
SWIDTH 389 0
DWIDTH 10 0
BBX 7 24 1 -5
BITMAP
0E
1C
38
38
38
38
38
38
38
38
70
E0
E0
70
38
38
38
38
38
38
38
38
1C
0E
ENDCHAR
STARTCHAR bar
ENCODING 124
SWIDTH 280 0
DWIDTH 7 0
BBX 2 24 3 -5
BITMAP
C0
C0
C0
C0
C0
C0
C0
C0
C0
C0
C0
C0
C0
C0
C0
C0
C0
C0
C0
C0
C0
C0
C0
C0
ENDCHAR
STARTCHAR braceright
ENCODING 125
SWIDTH 389 0
DWIDTH 10 0
BBX 7 24 2 -5
BITMAP
E0
70
38
38
38
38
38
38
38
38
1C
0E
0E
1C
38
38
38
38
38
38
38
38
70
E0
ENDCHAR
STARTCHAR asciitilde
ENCODING 126
SWIDTH 584 0
DWIDTH 14 0
BBX 11 4 1 5
BITMAP
78E0
FEE0
EFE0
E3C0
ENDCHAR
STARTCHAR space
ENCODING 160
SWIDTH 278 0
DWIDTH 6 0
BBX 1 1 0 0
BITMAP
00
ENDCHAR
STARTCHAR exclamdown
ENCODING 161
SWIDTH 333 0
DWIDTH 7 0
BBX 3 19 2 -5
BITMAP
E0
E0
E0
00
00
60
60
60
E0
E0
E0
E0
E0
E0
E0
E0
E0
E0
E0
ENDCHAR
STARTCHAR cent
ENCODING 162
SWIDTH 556 0
DWIDTH 14 0
BBX 11 18 1 -2
BITMAP
0180
0180
1F80
3FC0
7BE0
7360
E300
E600
E600
E600
E600
EC00
ECE0
7DE0
7FC0
3F80
1800
1800
ENDCHAR
STARTCHAR sterling
ENCODING 163
SWIDTH 556 0
DWIDTH 14 0
BBX 13 18 1 0
BITMAP
1F80
3FC0
70E0
70E0
7000
7800
3800
1C00
FFC0
FFC0
1C00
1C00
1C00
3800
3800
7F38
FFF8
F1F0
ENDCHAR
STARTCHAR currency
ENCODING 164
SWIDTH 556 0
DWIDTH 14 0
BBX 12 12 1 3
BITMAP
C030
EF70
7FE0
39C0
70E0
70E0
70E0
70E0
39C0
7FE0
EF70
C030
ENDCHAR
STARTCHAR yen
ENCODING 165
SWIDTH 556 0
DWIDTH 14 0
BBX 13 18 0 0
BITMAP
E038
E038
7070
7070
38E0
38E0
1DC0
1DC0
7FF0
7FF0
0700
7FF0
7FF0
0700
0700
0700
0700
0700
ENDCHAR
STARTCHAR brokenbar
ENCODING 166
SWIDTH 280 0
DWIDTH 7 0
BBX 2 24 3 -5
BITMAP
C0
C0
C0
C0
C0
C0
C0
C0
C0
C0
00
00
00
00
C0
C0
C0
C0
C0
C0
C0
C0
C0
C0
ENDCHAR
STARTCHAR section
ENCODING 167
SWIDTH 556 0
DWIDTH 14 0
BBX 12 24 1 -5
BITMAP
1F80
3FC0
79E0
70E0
78E0
3C00
1E00
7F00
F780
E3C0
E1E0
E0E0
7070
7870
3C70
1EE0
0FC0
0780
03C0
71E0
70E0
79E0
3FC0
1F80
ENDCHAR
STARTCHAR dieresis
ENCODING 168
SWIDTH 333 0
DWIDTH 9 0
BBX 7 2 1 16
BITMAP
EE
EE
ENDCHAR
STARTCHAR copyright
ENCODING 169
SWIDTH 737 0
DWIDTH 19 0
BBX 19 19 0 0
BITMAP
01F000
0FFE00
1E0F00
380380
7001C0
61F0C0
E3B8E0
C60C60
C60060
C60060
C60060
C60C60
E3B8E0
61F0C0
7001C0
380380
1E0F00
0FFE00
01F000
ENDCHAR
STARTCHAR ordfeminine
ENCODING 170
SWIDTH 370 0
DWIDTH 10 0
BBX 8 12 1 7
BITMAP
7C
FE
C6
1E
7E
E6
C6
FF
7B
00
FF
FF
ENDCHAR
STARTCHAR guillemotleft
ENCODING 171
SWIDTH 556 0
DWIDTH 13 0
BBX 10 8 1 3
BITMAP
1DC0
3B80
7700
EE00
EE00
7700
3B80
1DC0
ENDCHAR
STARTCHAR logicalnot
ENCODING 172
SWIDTH 584 0
DWIDTH 15 0
BBX 12 7 1 4
BITMAP
FFF0
FFF0
0030
0030
0030
0030
0030
ENDCHAR
STARTCHAR hyphen
ENCODING 173
SWIDTH 333 0
DWIDTH 8 0
BBX 7 3 0 6
BITMAP
FE
FE
FE
ENDCHAR
STARTCHAR registered
ENCODING 174
SWIDTH 737 0
DWIDTH 19 0
BBX 19 19 0 0
BITMAP
03F800
0FFE00
1C0F00
380380
73F9C0
631CC0
E30CE0
C30C60
C31860
C3F060
C33060
C31860
E31860
630CE0
7000C0
3801C0
1E0380
0FFE00
03F800
ENDCHAR
STARTCHAR macron
ENCODING 175
SWIDTH 333 0
DWIDTH 9 0
BBX 7 2 1 17
BITMAP
FE
FE
ENDCHAR
STARTCHAR degree
ENCODING 176
SWIDTH 400 0
DWIDTH 9 0
BBX 8 7 0 11
BITMAP
3C
66
C3
C3
C3
66
3C
ENDCHAR
STARTCHAR plusminus
ENCODING 177
SWIDTH 584 0
DWIDTH 15 0
BBX 11 13 2 0
BITMAP
0E00
0E00
0E00
0E00
FFE0
FFE0
0E00
0E00
0E00
0E00
0000
FFE0
FFE0
ENDCHAR
STARTCHAR twosuperior
ENCODING 178
SWIDTH 333 0
DWIDTH 7 0
BBX 6 10 0 8
BITMAP
78
FC
CC
0C
1C
78
E0
C0
FC
FC
ENDCHAR
STARTCHAR threesuperior
ENCODING 179
SWIDTH 333 0
DWIDTH 7 0
BBX 6 10 0 8
BITMAP
78
FC
CC
0C
38
38
0C
CC
FC
78
ENDCHAR
STARTCHAR acute
ENCODING 180
SWIDTH 333 0
DWIDTH 8 0
BBX 6 4 1 15
BITMAP
1C
38
70
E0
ENDCHAR
STARTCHAR mu
ENCODING 181
SWIDTH 611 0
DWIDTH 15 0
BBX 11 19 2 -5
BITMAP
E0E0
E0E0
E0E0
E0E0
E0E0
E0E0
E0E0
E0E0
E0E0
E0E0
E1E0
F3E0
FEE0
ECE0
E000
E000
E000
E000
E000
ENDCHAR
STARTCHAR paragraph
ENCODING 182
SWIDTH 556 0
DWIDTH 13 0
BBX 11 24 1 -5
BITMAP
0FE0
3FE0
7CC0
7CC0
FCC0
FCC0
FCC0
FCC0
FCC0
7CC0
7CC0
3CC0
1CC0
0CC0
0CC0
0CC0
0CC0
0CC0
0CC0
0CC0
0CC0
0CC0
0CC0
0CC0
ENDCHAR
STARTCHAR periodcentered
ENCODING 183
SWIDTH 278 0
DWIDTH 7 0
BBX 3 3 2 6
BITMAP
E0
E0
E0
ENDCHAR
STARTCHAR cedilla
ENCODING 184
SWIDTH 333 0
DWIDTH 8 0
BBX 6 6 1 -5
BITMAP
70
78
1C
1C
FC
78
ENDCHAR
STARTCHAR onesuperior
ENCODING 185
SWIDTH 333 0
DWIDTH 7 0
BBX 4 10 1 8
BITMAP
30
30
F0
F0
30
30
30
30
30
30
ENDCHAR
STARTCHAR ordmasculine
ENCODING 186
SWIDTH 365 0
DWIDTH 10 0
BBX 8 12 1 7
BITMAP
3C
7E
E7
C3
C3
C3
E7
7E
3C
00
FF
FF
ENDCHAR
STARTCHAR guillemotright
ENCODING 187
SWIDTH 556 0
DWIDTH 13 0
BBX 10 8 1 3
BITMAP
EE00
7700
3B80
1DC0
1DC0
3B80
7700
EE00
ENDCHAR
STARTCHAR onequarter
ENCODING 188
SWIDTH 834 0
DWIDTH 19 0
BBX 17 18 1 0
BITMAP
301800
301800
F03000
F03000
306000
306000
30C000
30C000
318600
318E00
031E00
031E00
063600
066600
0C7F80
0C7F80
180600
180600
ENDCHAR
STARTCHAR onehalf
ENCODING 189
SWIDTH 834 0
DWIDTH 19 0
BBX 16 18 1 0
BITMAP
3018
3018
F030
F030
3060
3060
30C0
30C0
319E
31BF
0333
0303
0607
061E
0C38
0C30
183F
183F
ENDCHAR
STARTCHAR threequarters
ENCODING 190
SWIDTH 834 0
DWIDTH 19 0
BBX 17 18 1 0
BITMAP
781800
FC1800
CC3000
0C3000
386000
386000
0CC000
CCC000
FD8600
798E00
031E00
031E00
063600
066600
0C7F80
0C7F80
180600
180600
ENDCHAR
STARTCHAR questiondown
ENCODING 191
SWIDTH 611 0
DWIDTH 15 0
BBX 11 19 2 -5
BITMAP
0E00
0E00
0E00
0000
0000
0E00
0E00
0E00
0E00
1C00
3C00
7800
7000
F0E0
E0E0
E1E0
F3C0
7FC0
3F00
ENDCHAR
STARTCHAR Agrave
ENCODING 192
SWIDTH 722 0
DWIDTH 18 0
BBX 16 24 1 0
BITMAP
0E00
0700
0380
01C0
0000
03C0
03C0
07E0
07E0
0E60
0E70
0E70
1C38
1C38
1C38
381C
381C
3FFC
7FFE
700E
700E
E007
E007
E007
ENDCHAR
STARTCHAR Aacute
ENCODING 193
SWIDTH 722 0
DWIDTH 18 0
BBX 16 24 1 0
BITMAP
0070
00E0
01C0
0380
0000
03C0
03C0
07E0
07E0
0E60
0E70
0E70
1C38
1C38
1C38
381C
381C
3FFC
7FFE
700E
700E
E007
E007
E007
ENDCHAR
STARTCHAR Acircumflex
ENCODING 194
SWIDTH 722 0
DWIDTH 18 0
BBX 16 24 1 0
BITMAP
01C0
03E0
0770
0E38
0000
03C0
03C0
07E0
07E0
0E60
0E70
0E70
1C38
1C38
1C38
381C
381C
3FFC
7FFE
700E
700E
E007
E007
E007
ENDCHAR
STARTCHAR Atilde
ENCODING 195
SWIDTH 722 0
DWIDTH 18 0
BBX 16 23 1 0
BITMAP
0798
0FF8
0CF0
0000
03C0
03C0
07E0
07E0
0E60
0E70
0E70
1C38
1C38
1C38
381C
381C
3FFC
7FFE
700E
700E
E007
E007
E007
ENDCHAR
STARTCHAR Adieresis
ENCODING 196
SWIDTH 722 0
DWIDTH 18 0
BBX 16 23 1 0
BITMAP
0E70
0E70
0000
0000
03C0
03C0
07E0
07E0
0E60
0E70
0E70
1C38
1C38
1C38
381C
381C
3FFC
7FFE
700E
700E
E007
E007
E007
ENDCHAR
STARTCHAR Aring
ENCODING 197
SWIDTH 722 0
DWIDTH 18 0
BBX 16 24 1 0
BITMAP
03C0
0660
0420
0660
03C0
03C0
03C0
07E0
07E0
0E60
0E70
0E70
1C38
1C38
1C38
381C
381C
3FFC
7FFE
700E
700E
E007
E007
E007
ENDCHAR
STARTCHAR AE
ENCODING 198
SWIDTH 1000 0
DWIDTH 24 0
BBX 22 19 1 0
BITMAP
03FFF8
03FFF8
077000
077000
0E7000
0E7000
0E7000
1C7000
1C7FF0
1C7FF0
387000
387000
3FF000
7FF000
707000
707000
E07000
E07FFC
E07FFC
ENDCHAR
STARTCHAR Ccedilla
ENCODING 199
SWIDTH 722 0
DWIDTH 18 0
BBX 16 24 1 -5
BITMAP
07F0
1FFC
3E3E
780F
7007
F000
E000
E000
E000
E000
E000
E000
E000
F007
7007
780F
3E3E
1FFC
07F0
03C0
00E0
00E0
07E0
03C0
ENDCHAR
STARTCHAR Egrave
ENCODING 200
SWIDTH 667 0
DWIDTH 16 0
BBX 13 24 2 0
BITMAP
3800
1C00
0E00
0700
0000
FFF0
FFF0
E000
E000
E000
E000
E000
E000
FFE0
FFE0
E000
E000
E000
E000
E000
E000
E000
FFF8
FFF8
ENDCHAR
STARTCHAR Eacute
ENCODING 201
SWIDTH 667 0
DWIDTH 16 0
BBX 13 24 2 0
BITMAP
01C0
0380
0700
0E00
0000
FFF0
FFF0
E000
E000
E000
E000
E000
E000
FFE0
FFE0
E000
E000
E000
E000
E000
E000
E000
FFF8
FFF8
ENDCHAR
STARTCHAR Ecircumflex
ENCODING 202
SWIDTH 667 0
DWIDTH 16 0
BBX 13 24 2 0
BITMAP
0700
0F80
1DC0
38E0
0000
FFF0
FFF0
E000
E000
E000
E000
E000
E000
FFE0
FFE0
E000
E000
E000
E000
E000
E000
E000
FFF8
FFF8
ENDCHAR
STARTCHAR Edieresis
ENCODING 203
SWIDTH 667 0
DWIDTH 16 0
BBX 13 23 2 0
BITMAP
38E0
38E0
0000
0000
FFF0
FFF0
E000
E000
E000
E000
E000
E000
FFE0
FFE0
E000
E000
E000
E000
E000
E000
E000
FFF8
FFF8
ENDCHAR
STARTCHAR Igrave
ENCODING 204
SWIDTH 278 0
DWIDTH 7 0
BBX 6 24 0 0
BITMAP
E0
70
38
1C
00
38
38
38
38
38
38
38
38
38
38
38
38
38
38
38
38
38
38
38
ENDCHAR
STARTCHAR Iacute
ENCODING 205
SWIDTH 278 0
DWIDTH 7 0
BBX 6 24 1 0
BITMAP
1C
38
70
E0
00
70
70
70
70
70
70
70
70
70
70
70
70
70
70
70
70
70
70
70
ENDCHAR
STARTCHAR Icircumflex
ENCODING 206
SWIDTH 278 0
DWIDTH 7 0
BBX 9 24 -1 0
BITMAP
1C00
3E00
7700
E380
0000
1C00
1C00
1C00
1C00
1C00
1C00
1C00
1C00
1C00
1C00
1C00
1C00
1C00
1C00
1C00
1C00
1C00
1C00
1C00
ENDCHAR
STARTCHAR Idieresis
ENCODING 207
SWIDTH 278 0
DWIDTH 7 0
BBX 7 23 0 0
BITMAP
EE
EE
00
00
38
38
38
38
38
38
38
38
38
38
38
38
38
38
38
38
38
38
38
ENDCHAR
STARTCHAR Eth
ENCODING 208
SWIDTH 722 0
DWIDTH 19 0
BBX 19 19 -1 0
BITMAP
1FFC00
1FFF00
1C0F80
1C03C0
1C01C0
1C01E0
1C00E0
1C00E0
FFC0E0
FFC0E0
1C00E0
1C00E0
1C00E0
1C01E0
1C01C0
1C03C0
1C0F80
1FFF00
1FFC00
ENDCHAR
STARTCHAR Ntilde
ENCODING 209
SWIDTH 722 0
DWIDTH 19 0
BBX 15 23 2 0
BITMAP
0F30
1FF0
19E0
0000
E00E
F00E
F00E
F80E
F80E
FC0E
EE0E
EE0E
E70E
E38E
E38E
E1CE
E0CE
E0EE
E07E
E03E
E03E
E01E
E00E
ENDCHAR
STARTCHAR Ograve
ENCODING 210
SWIDTH 778 0
DWIDTH 19 0
BBX 17 24 1 0
BITMAP
0E0000
070000
038000
01C000
000000
07F000
1FFC00
3E3E00
780F00
700700
F00780
E00380
E00380
E00380
E00380
E00380
E00380
E00380
F00780
700700
780F00
3E3E00
1FFC00
07F000
ENDCHAR
STARTCHAR Oacute
ENCODING 211
SWIDTH 778 0
DWIDTH 19 0
BBX 17 24 1 0
BITMAP
003800
007000
00E000
01C000
000000
07F000
1FFC00
3E3E00
780F00
700700
F00780
E00380
E00380
E00380
E00380
E00380
E00380
E00380
F00780
700700
780F00
3E3E00
1FFC00
07F000
ENDCHAR
STARTCHAR Ocircumflex
ENCODING 212
SWIDTH 778 0
DWIDTH 19 0
BBX 17 24 1 0
BITMAP
01C000
03E000
077000
0E3800
000000
07F000
1FFC00
3E3E00
780F00
700700
F00780
E00380
E00380
E00380
E00380
E00380
E00380
E00380
F00780
700700
780F00
3E3E00
1FFC00
07F000
ENDCHAR
STARTCHAR Otilde
ENCODING 213
SWIDTH 778 0
DWIDTH 19 0
BBX 17 23 1 0
BITMAP
079800
0FF800
0CF000
000000
07F000
1FFC00
3E3E00
780F00
700700
F00780
E00380
E00380
E00380
E00380
E00380
E00380
E00380
F00780
700700
780F00
3E3E00
1FFC00
07F000
ENDCHAR
STARTCHAR Odieresis
ENCODING 214
SWIDTH 778 0
DWIDTH 19 0
BBX 17 23 1 0
BITMAP
0E3800
0E3800
000000
000000
07F000
1FFC00
3E3E00
780F00
700700
F00780
E00380
E00380
E00380
E00380
E00380
E00380
E00380
F00780
700700
780F00
3E3E00
1FFC00
07F000
ENDCHAR
STARTCHAR multiply
ENCODING 215
SWIDTH 584 0
DWIDTH 15 0
BBX 12 12 1 1
BITMAP
4020
E070
70E0
39C0
1F80
0F00
0F00
1F80
39C0
70E0
E070
4020
ENDCHAR
STARTCHAR Oslash
ENCODING 216
SWIDTH 778 0
DWIDTH 19 0
BBX 19 19 0 0
BITMAP
03F860
0FFEE0
1F1FC0
3C0380
380780
780FC0
701DC0
7039C0
7071C0
70E1C0
71C1C0
7381C0
7701C0
7E03C0
3C0380
3C0780
7F1F00
EFFE00
C3F800
ENDCHAR
STARTCHAR Ugrave
ENCODING 217
SWIDTH 722 0
DWIDTH 19 0
BBX 15 24 2 0
BITMAP
0E00
0700
0380
01C0
0000
E00E
E00E
E00E
E00E
E00E
E00E
E00E
E00E
E00E
E00E
E00E
E00E
E00E
E00E
F01E
701C
7C7C
3FF8
0FE0
ENDCHAR
STARTCHAR Uacute
ENCODING 218
SWIDTH 722 0
DWIDTH 19 0
BBX 15 24 2 0
BITMAP
0070
00E0
01C0
0380
0000
E00E
E00E
E00E
E00E
E00E
E00E
E00E
E00E
E00E
E00E
E00E
E00E
E00E
E00E
F01E
701C
7C7C
3FF8
0FE0
ENDCHAR
STARTCHAR Ucircumflex
ENCODING 219
SWIDTH 722 0
DWIDTH 19 0
BBX 15 24 2 0
BITMAP
0380
07C0
0EE0
1C70
0000
E00E
E00E
E00E
E00E
E00E
E00E
E00E
E00E
E00E
E00E
E00E
E00E
E00E
E00E
F01E
701C
7C7C
3FF8
0FE0
ENDCHAR
STARTCHAR Udieresis
ENCODING 220
SWIDTH 722 0
DWIDTH 19 0
BBX 15 23 2 0
BITMAP
1C70
1C70
0000
0000
E00E
E00E
E00E
E00E
E00E
E00E
E00E
E00E
E00E
E00E
E00E
E00E
E00E
E00E
F01E
701C
7C7C
3FF8
0FE0
ENDCHAR
STARTCHAR Yacute
ENCODING 221
SWIDTH 667 0
DWIDTH 17 0
BBX 15 24 1 0
BITMAP
0070
00E0
01C0
0380
0000
E00E
F01E
701C
783C
3838
3C78
1C70
1EF0
0EE0
0FE0
07C0
07C0
0380
0380
0380
0380
0380
0380
0380
ENDCHAR
STARTCHAR Thorn
ENCODING 222
SWIDTH 667 0
DWIDTH 17 0
BBX 14 19 2 0
BITMAP
E000
E000
E000
E000
FFE0
FFF8
E038
E01C
E01C
E01C
E01C
E038
FFF8
FFF0
E000
E000
E000
E000
E000
ENDCHAR
STARTCHAR germandbls
ENCODING 223
SWIDTH 611 0
DWIDTH 14 0
BBX 11 19 2 0
BITMAP
1E00
7F80
F380
E1C0
E1C0
E1C0
E1C0
E380
EF00
EF80
E3C0
E1C0
E0E0
E0E0
E0E0
E0E0
E1C0
EFC0
EF80
ENDCHAR
STARTCHAR agrave
ENCODING 224
SWIDTH 556 0
DWIDTH 14 0
BBX 12 19 1 0
BITMAP
1C00
0E00
0700
0380
0000
1F80
3FC0
71E0
70E0
00E0
07E0
3FE0
7CE0
F0E0
E0E0
E1E0
F3E0
7FF0
3E70
ENDCHAR
STARTCHAR aacute
ENCODING 225
SWIDTH 556 0
DWIDTH 14 0
BBX 12 19 1 0
BITMAP
01C0
0380
0700
0E00
0000
1F80
3FC0
71E0
70E0
00E0
07E0
3FE0
7CE0
F0E0
E0E0
E1E0
F3E0
7FF0
3E70
ENDCHAR
STARTCHAR acircumflex
ENCODING 226
SWIDTH 556 0
DWIDTH 14 0
BBX 12 19 1 0
BITMAP
0700
0F80
1DC0
38E0
0000
1F80
3FC0
71E0
70E0
00E0
07E0
3FE0
7CE0
F0E0
E0E0
E1E0
F3E0
7FF0
3E70
ENDCHAR
STARTCHAR atilde
ENCODING 227
SWIDTH 556 0
DWIDTH 14 0
BBX 12 19 1 0
BITMAP
3CC0
7FC0
6780
0000
0000
1F80
3FC0
71E0
70E0
00E0
07E0
3FE0
7CE0
F0E0
E0E0
E1E0
F3E0
7FF0
3E70
ENDCHAR
STARTCHAR adieresis
ENCODING 228
SWIDTH 556 0
DWIDTH 14 0
BBX 12 18 1 0
BITMAP
39C0
39C0
0000
0000
1F80
3FC0
71E0
70E0
00E0
07E0
3FE0
7CE0
F0E0
E0E0
E1E0
F3E0
7FF0
3E70
ENDCHAR
STARTCHAR aring
ENCODING 229
SWIDTH 556 0
DWIDTH 14 0
BBX 12 19 1 0
BITMAP
0700
0D80
0880
0D80
0700
1F80
3FC0
71E0
70E0
00E0
07E0
3FE0
7CE0
F0E0
E0E0
E1E0
F3E0
7FF0
3E70
ENDCHAR
STARTCHAR ae
ENCODING 230
SWIDTH 889 0
DWIDTH 22 0
BBX 20 14 1 0
BITMAP
1F8F00
3FFFC0
71F9E0
70F0E0
00E070
07E070
3FFFF0
7CFFF0
F0E000
E0E000
E1F070
F3F8F0
7F3FE0
3E0F80
ENDCHAR
STARTCHAR ccedilla
ENCODING 231
SWIDTH 556 0
DWIDTH 13 0
BBX 11 19 1 -5
BITMAP
1F80
3FC0
79E0
70E0
E000
E000
E000
E000
E000
E000
70E0
79E0
3FC0
1F80
1E00
0700
0700
3F00
1E00
ENDCHAR
STARTCHAR egrave
ENCODING 232
SWIDTH 556 0
DWIDTH 14 0
BBX 12 19 1 0
BITMAP
1C00
0E00
0700
0380
0000
0F00
3FC0
79E0
70E0
E070
E070
FFF0
FFF0
E000
E000
7070
78F0
3FE0
0F80
ENDCHAR
STARTCHAR eacute
ENCODING 233
SWIDTH 556 0
DWIDTH 14 0
BBX 12 19 1 0
BITMAP
0380
0700
0E00
1C00
0000
0F00
3FC0
79E0
70E0
E070
E070
FFF0
FFF0
E000
E000
7070
78F0
3FE0
0F80
ENDCHAR
STARTCHAR ecircumflex
ENCODING 234
SWIDTH 556 0
DWIDTH 14 0
BBX 12 19 1 0
BITMAP
0700
0F80
1DC0
38E0
0000
0F00
3FC0
79E0
70E0
E070
E070
FFF0
FFF0
E000
E000
7070
78F0
3FE0
0F80
ENDCHAR
STARTCHAR edieresis
ENCODING 235
SWIDTH 556 0
DWIDTH 14 0
BBX 12 18 1 0
BITMAP
39C0
39C0
0000
0000
0F00
3FC0
79E0
70E0
E070
E070
FFF0
FFF0
E000
E000
7070
78F0
3FE0
0F80
ENDCHAR
STARTCHAR igrave
ENCODING 236
SWIDTH 278 0
DWIDTH 7 0
BBX 6 19 0 0
BITMAP
E0
70
38
1C
00
38
38
38
38
38
38
38
38
38
38
38
38
38
38
ENDCHAR
STARTCHAR iacute
ENCODING 237
SWIDTH 278 0
DWIDTH 7 0
BBX 6 19 1 0
BITMAP
1C
38
70
E0
00
70
70
70
70
70
70
70
70
70
70
70
70
70
70
ENDCHAR
STARTCHAR icircumflex
ENCODING 238
SWIDTH 278 0
DWIDTH 7 0
BBX 9 19 -1 0
BITMAP
1C00
3E00
7700
E380
0000
1C00
1C00
1C00
1C00
1C00
1C00
1C00
1C00
1C00
1C00
1C00
1C00
1C00
1C00
ENDCHAR
STARTCHAR idieresis
ENCODING 239
SWIDTH 278 0
DWIDTH 7 0
BBX 7 18 0 0
BITMAP
EE
EE
00
00
38
38
38
38
38
38
38
38
38
38
38
38
38
38
ENDCHAR
STARTCHAR eth
ENCODING 240
SWIDTH 611 0
DWIDTH 14 0
BBX 12 19 1 0
BITMAP
7000
1DC0
0700
1F00
6180
0FC0
3FC0
79E0
70E0
E070
E070
E070
E070
E070
E070
70E0
79E0
3FC0
0F00
ENDCHAR
STARTCHAR ntilde
ENCODING 241
SWIDTH 611 0
DWIDTH 15 0
BBX 11 19 2 0
BITMAP
3CC0
7FC0
6780
0000
0000
EF80
FFC0
F1C0
E0E0
E0E0
E0E0
E0E0
E0E0
E0E0
E0E0
E0E0
E0E0
E0E0
E0E0
ENDCHAR
STARTCHAR ograve
ENCODING 242
SWIDTH 611 0
DWIDTH 14 0
BBX 12 19 1 0
BITMAP
1C00
0E00
0700
0380
0000
0F00
3FC0
79E0
70E0
E070
E070
E070
E070
E070
E070
70E0
79E0
3FC0
0F00
ENDCHAR
STARTCHAR oacute
ENCODING 243
SWIDTH 611 0
DWIDTH 14 0
BBX 12 19 1 0
BITMAP
0380
0700
0E00
1C00
0000
0F00
3FC0
79E0
70E0
E070
E070
E070
E070
E070
E070
70E0
79E0
3FC0
0F00
ENDCHAR
STARTCHAR ocircumflex
ENCODING 244
SWIDTH 611 0
DWIDTH 14 0
BBX 12 19 1 0
BITMAP
0E00
1F00
3B80
71C0
0000
0F00
3FC0
79E0
70E0
E070
E070
E070
E070
E070
E070
70E0
79E0
3FC0
0F00
ENDCHAR
STARTCHAR otilde
ENCODING 245
SWIDTH 611 0
DWIDTH 14 0
BBX 12 19 1 0
BITMAP
3CC0
7FC0
6780
0000
0000
0F00
3FC0
79E0
70E0
E070
E070
E070
E070
E070
E070
70E0
79E0
3FC0
0F00
ENDCHAR
STARTCHAR odieresis
ENCODING 246
SWIDTH 611 0
DWIDTH 14 0
BBX 12 18 1 0
BITMAP
39C0
39C0
0000
0000
0F00
3FC0
79E0
70E0
E070
E070
E070
E070
E070
E070
70E0
79E0
3FC0
0F00
ENDCHAR
STARTCHAR divide
ENCODING 247
SWIDTH 584 0
DWIDTH 15 0
BBX 11 12 2 1
BITMAP
0E00
0E00
0E00
0000
0000
FFE0
FFE0
0000
0000
0E00
0E00
0E00
ENDCHAR
STARTCHAR oslash
ENCODING 248
SWIDTH 611 0
DWIDTH 14 0
BBX 14 14 0 0
BITMAP
078C
1FFC
3CF8
3870
70F8
71F8
73B8
7738
7E38
7C38
3870
7CF0
FFE0
C780
ENDCHAR
STARTCHAR ugrave
ENCODING 249
SWIDTH 611 0
DWIDTH 15 0
BBX 11 19 2 0
BITMAP
3800
1C00
0E00
0700
0000
E0E0
E0E0
E0E0
E0E0
E0E0
E0E0
E0E0
E0E0
E0E0
E0E0
E1E0
73E0
7EE0
1CE0
ENDCHAR
STARTCHAR uacute
ENCODING 250
SWIDTH 611 0
DWIDTH 15 0
BBX 11 19 2 0
BITMAP
0380
0700
0E00
1C00
0000
E0E0
E0E0
E0E0
E0E0
E0E0
E0E0
E0E0
E0E0
E0E0
E0E0
E1E0
73E0
7EE0
1CE0
ENDCHAR
STARTCHAR ucircumflex
ENCODING 251
SWIDTH 611 0
DWIDTH 15 0
BBX 11 19 2 0
BITMAP
0E00
1F00
3B80
71C0
0000
E0E0
E0E0
E0E0
E0E0
E0E0
E0E0
E0E0
E0E0
E0E0
E0E0
E1E0
73E0
7EE0
1CE0
ENDCHAR
STARTCHAR udieresis
ENCODING 252
SWIDTH 611 0
DWIDTH 15 0
BBX 11 18 2 0
BITMAP
39C0
39C0
0000
0000
E0E0
E0E0
E0E0
E0E0
E0E0
E0E0
E0E0
E0E0
E0E0
E0E0
E1E0
73E0
7EE0
1CE0
ENDCHAR
STARTCHAR yacute
ENCODING 253
SWIDTH 556 0
DWIDTH 15 0
BBX 13 24 1 -5
BITMAP
00E0
01C0
0380
0700
0000
E038
E038
7038
7870
3870
3CF0
1CE0
1CE0
0FC0
0FC0
07C0
0780
0380
0380
0700
0700
0E00
3E00
3C00
ENDCHAR
STARTCHAR thorn
ENCODING 254
SWIDTH 611 0
DWIDTH 15 0
BBX 12 24 2 -5
BITMAP
E000
E000
E000
E000
E000
EF80
FFC0
F9E0
F0E0
E070
E070
E070
E070
E070
E070
F0E0
F9E0
FFC0
EF80
E000
E000
E000
E000
E000
ENDCHAR
STARTCHAR ydieresis
ENCODING 255
SWIDTH 556 0
DWIDTH 15 0
BBX 13 23 1 -5
BITMAP
1CE0
1CE0
0000
0000
E038
E038
7038
7870
3870
3CF0
1CE0
1CE0
0FC0
0FC0
07C0
0780
0380
0380
0700
0700
0E00
3E00
3C00
ENDCHAR
STARTCHAR Amacron
ENCODING 256
SWIDTH 722 0
DWIDTH 18 0
BBX 16 22 1 0
BITMAP
0FE0
0FE0
0000
03C0
03C0
07E0
07E0
0E60
0E70
0E70
1C38
1C38
1C38
381C
381C
3FFC
7FFE
700E
700E
E007
E007
E007
ENDCHAR
STARTCHAR amacron
ENCODING 257
SWIDTH 556 0
DWIDTH 14 0
BBX 12 17 1 0
BITMAP
1FC0
1FC0
0000
1F80
3FC0
71E0
70E0
00E0
07E0
3FE0
7CE0
F0E0
E0E0
E1E0
F3E0
7FF0
3E70
ENDCHAR
STARTCHAR Abreve
ENCODING 258
SWIDTH 722 0
DWIDTH 18 0
BBX 16 24 1 0
BITMAP
1830
1C70
0FE0
07C0
0000
03C0
03C0
07E0
07E0
0E60
0E70
0E70
1C38
1C38
1C38
381C
381C
3FFC
7FFE
700E
700E
E007
E007
E007
ENDCHAR
STARTCHAR abreve
ENCODING 259
SWIDTH 556 0
DWIDTH 14 0
BBX 12 19 1 0
BITMAP
3060
38E0
1FC0
0F80
0000
1F80
3FC0
71E0
70E0
00E0
07E0
3FE0
7CE0
F0E0
E0E0
E1E0
F3E0
7FF0
3E70
ENDCHAR
STARTCHAR Aogonek
ENCODING 260
SWIDTH 722 0
DWIDTH 18 0
BBX 16 24 1 -5
BITMAP
03C0
03C0
07E0
07E0
0E60
0E70
0E70
1C38
1C38
1C38
381C
381C
3FFC
7FFE
700E
700E
E007
E007
E1E7
0380
0700
0700
07E0
03C0
ENDCHAR
STARTCHAR aogonek
ENCODING 261
SWIDTH 556 0
DWIDTH 14 0
BBX 12 19 1 -5
BITMAP
1F80
3FC0
71E0
70E0
00E0
07E0
3FE0
7CE0
F0E0
E0E0
E1E0
F3E0
7FF0
3FF0
0E00
1C00
1C00
1F80
0F00
ENDCHAR
STARTCHAR Cacute
ENCODING 262
SWIDTH 722 0
DWIDTH 18 0
BBX 16 24 1 0
BITMAP
0070
00E0
01C0
0380
0000
07F0
1FFC
3E3E
780F
7007
F000
E000
E000
E000
E000
E000
E000
E000
F007
7007
780F
3E3E
1FFC
07F0
ENDCHAR
STARTCHAR cacute
ENCODING 263
SWIDTH 556 0
DWIDTH 13 0
BBX 11 19 1 0
BITMAP
01C0
0380
0700
0E00
0000
1F80
3FC0
79E0
70E0
E000
E000
E000
E000
E000
E000
70E0
79E0
3FC0
1F80
ENDCHAR
STARTCHAR Ccircumflex
ENCODING 264
SWIDTH 722 0
DWIDTH 18 0
BBX 16 24 1 0
BITMAP
01C0
03E0
0770
0E38
0000
07F0
1FFC
3E3E
780F
7007
F000
E000
E000
E000
E000
E000
E000
E000
F007
7007
780F
3E3E
1FFC
07F0
ENDCHAR
STARTCHAR ccircumflex
ENCODING 265
SWIDTH 556 0
DWIDTH 13 0
BBX 11 19 1 0
BITMAP
0E00
1F00
3B80
71C0
0000
1F80
3FC0
79E0
70E0
E000
E000
E000
E000
E000
E000
70E0
79E0
3FC0
1F80
ENDCHAR
STARTCHAR Cdotaccent
ENCODING 266
SWIDTH 722 0
DWIDTH 18 0
BBX 16 22 1 0
BITMAP
01C0
01C0
0000
07F0
1FFC
3E3E
780F
7007
F000
E000
E000
E000
E000
E000
E000
E000
F007
7007
780F
3E3E
1FFC
07F0
ENDCHAR
STARTCHAR cdotaccent
ENCODING 267
SWIDTH 556 0
DWIDTH 13 0
BBX 11 17 1 0
BITMAP
0E00
0E00
0000
1F80
3FC0
79E0
70E0
E000
E000
E000
E000
E000
E000
70E0
79E0
3FC0
1F80
ENDCHAR
STARTCHAR Ccaron
ENCODING 268
SWIDTH 722 0
DWIDTH 18 0
BBX 16 24 1 0
BITMAP
0E38
0770
03E0
01C0
0000
07F0
1FFC
3E3E
780F
7007
F000
E000
E000
E000
E000
E000
E000
E000
F007
7007
780F
3E3E
1FFC
07F0
ENDCHAR
STARTCHAR ccaron
ENCODING 269
SWIDTH 556 0
DWIDTH 13 0
BBX 11 19 1 0
BITMAP
71C0
3B80
1F00
0E00
0000
1F80
3FC0
79E0
70E0
E000
E000
E000
E000
E000
E000
70E0
79E0
3FC0
1F80
ENDCHAR
STARTCHAR Dcaron
ENCODING 270
SWIDTH 722 0
DWIDTH 19 0
BBX 16 24 2 0
BITMAP
1C70
0EE0
07C0
0380
0000
FFE0
FFF8
E07C
E01E
E00E
E00F
E007
E007
E007
E007
E007
E007
E007
E00F
E00E
E01E
E07C
FFF8
FFE0
ENDCHAR
STARTCHAR dcaron
ENCODING 271
SWIDTH 858 0
DWIDTH 21 0
BBX 18 19 1 0
BITMAP
0071C0
0071C0
0071C0
0070C0
0070C0
1F7180
3FF000
79F000
70F000
E07000
E07000
E07000
E07000
E07000
E07000
70F000
79F000
3FF000
1F7000
ENDCHAR
STARTCHAR Dcroat
ENCODING 272
SWIDTH 722 0
DWIDTH 19 0
BBX 19 19 -1 0
BITMAP
1FFC00
1FFF00
1C0F80
1C03C0
1C01C0
1C01E0
1C00E0
1C00E0
FFC0E0
FFC0E0
1C00E0
1C00E0
1C00E0
1C01E0
1C01C0
1C03C0
1C0F80
1FFF00
1FFC00
ENDCHAR
STARTCHAR dcroat
ENCODING 273
SWIDTH 611 0
DWIDTH 15 0
BBX 12 19 1 0
BITMAP
0070
0070
0070
00F0
00F0
1F70
3FF0
79F0
70F0
E070
E070
E070
E070
E070
E070
70F0
79F0
3FF0
1F70
ENDCHAR
STARTCHAR Emacron
ENCODING 274
SWIDTH 667 0
DWIDTH 16 0
BBX 13 22 2 0
BITMAP
3F80
3F80
0000
FFF0
FFF0
E000
E000
E000
E000
E000
E000
FFE0
FFE0
E000
E000
E000
E000
E000
E000
E000
FFF8
FFF8
ENDCHAR
STARTCHAR emacron
ENCODING 275
SWIDTH 556 0
DWIDTH 14 0
BBX 12 17 1 0
BITMAP
1FC0
1FC0
0000
0F00
3FC0
79E0
70E0
E070
E070
FFF0
FFF0
E000
E000
7070
78F0
3FE0
0F80
ENDCHAR
STARTCHAR Ebreve
ENCODING 276
SWIDTH 667 0
DWIDTH 16 0
BBX 13 24 2 0
BITMAP
60C0
71C0
3F80
1F00
0000
FFF0
FFF0
E000
E000
E000
E000
E000
E000
FFE0
FFE0
E000
E000
E000
E000
E000
E000
E000
FFF8
FFF8
ENDCHAR
STARTCHAR ebreve
ENCODING 277
SWIDTH 556 0
DWIDTH 14 0
BBX 12 19 1 0
BITMAP
3060
38E0
1FC0
0F80
0000
0F00
3FC0
79E0
70E0
E070
E070
FFF0
FFF0
E000
E000
7070
78F0
3FE0
0F80
ENDCHAR
STARTCHAR Edotaccent
ENCODING 278
SWIDTH 667 0
DWIDTH 16 0
BBX 13 22 2 0
BITMAP
0E00
0E00
0000
FFF0
FFF0
E000
E000
E000
E000
E000
E000
FFE0
FFE0
E000
E000
E000
E000
E000
E000
E000
FFF8
FFF8
ENDCHAR
STARTCHAR edotaccent
ENCODING 279
SWIDTH 556 0
DWIDTH 14 0
BBX 12 17 1 0
BITMAP
0700
0700
0000
0F00
3FC0
79E0
70E0
E070
E070
FFF0
FFF0
E000
E000
7070
78F0
3FE0
0F80
ENDCHAR
STARTCHAR Eogonek
ENCODING 280
SWIDTH 667 0
DWIDTH 16 0
BBX 13 24 2 -5
BITMAP
FFF0
FFF0
E000
E000
E000
E000
E000
E000
FFE0
FFE0
E000
E000
E000
E000
E000
E000
E000
FFF8
FFF8
1C00
3800
3800
3F00
1E00
ENDCHAR
STARTCHAR eogonek
ENCODING 281
SWIDTH 556 0
DWIDTH 14 0
BBX 12 19 1 -5
BITMAP
0F00
3FC0
79E0
70E0
E070
E070
FFF0
FFF0
E000
E000
7070
78F0
3FE0
0F80
0E00
1C00
1C00
1F80
0F00
ENDCHAR
STARTCHAR Ecaron
ENCODING 282
SWIDTH 667 0
DWIDTH 16 0
BBX 13 24 2 0
BITMAP
71C0
3B80
1F00
0E00
0000
FFF0
FFF0
E000
E000
E000
E000
E000
E000
FFE0
FFE0
E000
E000
E000
E000
E000
E000
E000
FFF8
FFF8
ENDCHAR
STARTCHAR ecaron
ENCODING 283
SWIDTH 556 0
DWIDTH 14 0
BBX 12 19 1 0
BITMAP
38E0
1DC0
0F80
0700
0000
0F00
3FC0
79E0
70E0
E070
E070
FFF0
FFF0
E000
E000
7070
78F0
3FE0
0F80
ENDCHAR
STARTCHAR Gcircumflex
ENCODING 284
SWIDTH 778 0
DWIDTH 19 0
BBX 17 24 1 0
BITMAP
01C000
03E000
077000
0E3800
000000
07F000
1FFC00
3E3E00
780F00
700700
F00000
E00000
E00000
E00000
E07F80
E07F80
E00380
E00380
F00380
700780
780F80
3E3F80
1FFB80
07F380
ENDCHAR
STARTCHAR gcircumflex
ENCODING 285
SWIDTH 611 0
DWIDTH 15 0
BBX 12 24 1 -5
BITMAP
0700
0F80
1DC0
38E0
0000
1F70
3FF0
79F0
70F0
E070
E070
E070
E070
E070
E070
70F0
79F0
3FF0
1F70
0070
E070
F0E0
7FE0
1F80
ENDCHAR
STARTCHAR Gbreve
ENCODING 286
SWIDTH 778 0
DWIDTH 19 0
BBX 17 24 1 0
BITMAP
0C1800
0E3800
07F000
03E000
000000
07F000
1FFC00
3E3E00
780F00
700700
F00000
E00000
E00000
E00000
E07F80
E07F80
E00380
E00380
F00380
700780
780F80
3E3F80
1FFB80
07F380
ENDCHAR
STARTCHAR gbreve
ENCODING 287
SWIDTH 611 0
DWIDTH 15 0
BBX 12 24 1 -5
BITMAP
3060
38E0
1FC0
0F80
0000
1F70
3FF0
79F0
70F0
E070
E070
E070
E070
E070
E070
70F0
79F0
3FF0
1F70
0070
E070
F0E0
7FE0
1F80
ENDCHAR
STARTCHAR Gdotaccent
ENCODING 288
SWIDTH 778 0
DWIDTH 19 0
BBX 17 22 1 0
BITMAP
01C000
01C000
000000
07F000
1FFC00
3E3E00
780F00
700700
F00000
E00000
E00000
E00000
E07F80
E07F80
E00380
E00380
F00380
700780
780F80
3E3F80
1FFB80
07F380
ENDCHAR
STARTCHAR gdotaccent
ENCODING 289
SWIDTH 611 0
DWIDTH 15 0
BBX 12 22 1 -5
BITMAP
0700
0700
0000
1F70
3FF0
79F0
70F0
E070
E070
E070
E070
E070
E070
70F0
79F0
3FF0
1F70
0070
E070
F0E0
7FE0
1F80
ENDCHAR
STARTCHAR Gcommaaccent
ENCODING 290
SWIDTH 778 0
DWIDTH 19 0
BBX 17 26 1 -7
BITMAP
07F000
1FFC00
3E3E00
780F00
700700
F00000
E00000
E00000
E00000
E07F80
E07F80
E00380
E00380
F00380
700780
780F80
3E3F80
1FFB80
07F380
000000
00E000
00E000
00E000
006000
006000
00C000
ENDCHAR
STARTCHAR gcommaaccent
ENCODING 291
SWIDTH 611 0
DWIDTH 15 0
BBX 12 26 1 -5
BITMAP
0300
0600
0600
0700
0700
0700
0000
1F70
3FF0
79F0
70F0
E070
E070
E070
E070
E070
E070
70F0
79F0
3FF0
1F70
0070
E070
F0E0
7FE0
1F80
ENDCHAR
STARTCHAR Hcircumflex
ENCODING 292
SWIDTH 722 0
DWIDTH 19 0
BBX 15 24 2 0
BITMAP
0380
07C0
0EE0
1C70
0000
E00E
E00E
E00E
E00E
E00E
E00E
E00E
E00E
FFFE
FFFE
E00E
E00E
E00E
E00E
E00E
E00E
E00E
E00E
E00E
ENDCHAR
STARTCHAR hcircumflex
ENCODING 293
SWIDTH 611 0
DWIDTH 15 0
BBX 13 24 0 0
BITMAP
1C00
3E00
7700
E380
0000
3800
3800
3800
3800
3800
3BC0
3FF0
3C70
3838
3838
3838
3838
3838
3838
3838
3838
3838
3838
3838
ENDCHAR
STARTCHAR Hbar
ENCODING 294
SWIDTH 722 0
DWIDTH 19 0
BBX 15 19 2 0
BITMAP
E00E
E00E
E00E
E00E
FFFE
FFFE
E00E
E00E
FFFE
FFFE
E00E
E00E
E00E
E00E
E00E
E00E
E00E
E00E
E00E
ENDCHAR
STARTCHAR hbar
ENCODING 295
SWIDTH 611 0
DWIDTH 15 0
BBX 11 19 2 0
BITMAP
E000
E000
E000
F800
F800
EF00
FFC0
F1C0
E0E0
E0E0
E0E0
E0E0
E0E0
E0E0
E0E0
E0E0
E0E0
E0E0
E0E0
ENDCHAR
STARTCHAR Itilde
ENCODING 296
SWIDTH 278 0
DWIDTH 7 0
BBX 9 23 -1 0
BITMAP
7980
FF80
CF00
0000
1C00
1C00
1C00
1C00
1C00
1C00
1C00
1C00
1C00
1C00
1C00
1C00
1C00
1C00
1C00
1C00
1C00
1C00
1C00
ENDCHAR
STARTCHAR itilde
ENCODING 297
SWIDTH 278 0
DWIDTH 7 0
BBX 9 18 -1 0
BITMAP
7980
FF80
CF00
0000
1C00
1C00
1C00
1C00
1C00
1C00
1C00
1C00
1C00
1C00
1C00
1C00
1C00
1C00
ENDCHAR
STARTCHAR Imacron
ENCODING 298
SWIDTH 278 0
DWIDTH 7 0
BBX 7 22 0 0
BITMAP
FE
FE
00
38
38
38
38
38
38
38
38
38
38
38
38
38
38
38
38
38
38
38
ENDCHAR
STARTCHAR imacron
ENCODING 299
SWIDTH 278 0
DWIDTH 7 0
BBX 7 17 0 0
BITMAP
FE
FE
00
38
38
38
38
38
38
38
38
38
38
38
38
38
38
ENDCHAR
STARTCHAR Ibreve
ENCODING 300
SWIDTH 278 0
DWIDTH 7 0
BBX 9 24 -1 0
BITMAP
C180
E380
7F00
3E00
0000
1C00
1C00
1C00
1C00
1C00
1C00
1C00
1C00
1C00
1C00
1C00
1C00
1C00
1C00
1C00
1C00
1C00
1C00
1C00
ENDCHAR
STARTCHAR ibreve
ENCODING 301
SWIDTH 278 0
DWIDTH 7 0
BBX 9 19 -1 0
BITMAP
C180
E380
7F00
3E00
0000
1C00
1C00
1C00
1C00
1C00
1C00
1C00
1C00
1C00
1C00
1C00
1C00
1C00
1C00
ENDCHAR
STARTCHAR Iogonek
ENCODING 302
SWIDTH 278 0
DWIDTH 7 0
BBX 6 24 0 -5
BITMAP
38
38
38
38
38
38
38
38
38
38
38
38
38
38
38
38
38
38
3C
70
E0
E0
FC
78
ENDCHAR
STARTCHAR iogonek
ENCODING 303
SWIDTH 278 0
DWIDTH 7 0
BBX 6 24 0 -5
BITMAP
38
38
38
00
00
38
38
38
38
38
38
38
38
38
38
38
38
38
3C
70
E0
E0
FC
78
ENDCHAR
STARTCHAR Idotaccent
ENCODING 304
SWIDTH 278 0
DWIDTH 7 0
BBX 3 22 2 0
BITMAP
E0
E0
00
E0
E0
E0
E0
E0
E0
E0
E0
E0
E0
E0
E0
E0
E0
E0
E0
E0
E0
E0
ENDCHAR
STARTCHAR dotlessi
ENCODING 305
SWIDTH 278 0
DWIDTH 7 0
BBX 3 14 2 0
BITMAP
E0
E0
E0
E0
E0
E0
E0
E0
E0
E0
E0
E0
E0
E0
ENDCHAR
STARTCHAR IJ
ENCODING 306
SWIDTH 820 0
DWIDTH 21 0
BBX 17 19 2 0
BITMAP
E00380
E00380
E00380
E00380
E00380
E00380
E00380
E00380
E00380
E00380
E00380
E00380
E38380
E38380
E38380
E38380
E1C780
E1FF00
E0FE00
ENDCHAR
STARTCHAR ij
ENCODING 307
SWIDTH 542 0
DWIDTH 14 0
BBX 10 24 2 -5
BITMAP
E1C0
E1C0
E1C0
0000
0000
E1C0
E1C0
E1C0
E1C0
E1C0
E1C0
E1C0
E1C0
E1C0
E1C0
E1C0
E1C0
E1C0
E1C0
01C0
01C0
01C0
07C0
0780
ENDCHAR
STARTCHAR Jcircumflex
ENCODING 308
SWIDTH 556 0
DWIDTH 14 0
BBX 13 24 1 0
BITMAP
01C0
03E0
0770
0E38
0000
00E0
00E0
00E0
00E0
00E0
00E0
00E0
00E0
00E0
00E0
00E0
00E0
E0E0
E0E0
E0E0
E0E0
71E0
7FC0
3F80
ENDCHAR
STARTCHAR jcircumflex
ENCODING 309
SWIDTH 278 0
DWIDTH 7 0
BBX 9 24 -1 -5
BITMAP
1C00
3E00
7700
E380
0000
1C00
1C00
1C00
1C00
1C00
1C00
1C00
1C00
1C00
1C00
1C00
1C00
1C00
1C00
1C00
1C00
1C00
7C00
7800
ENDCHAR
STARTCHAR Kcommaaccent
ENCODING 310
SWIDTH 722 0
DWIDTH 18 0
BBX 14 26 2 -7
BITMAP
E03C
E078
E0F0
E1E0
E3C0
E780
EF00
FE00
FE00
FF00
F780
E380
E1C0
E1E0
E0E0
E070
E078
E038
E03C
0000
0700
0700
0700
0300
0300
0600
ENDCHAR
STARTCHAR kcommaaccent
ENCODING 311
SWIDTH 556 0
DWIDTH 14 0
BBX 11 26 2 -7
BITMAP
E000
E000
E000
E000
E000
E1C0
E3C0
E780
EF00
FE00
FC00
FE00
EF00
E700
E780
E3C0
E1C0
E1E0
E0E0
0000
0E00
0E00
0E00
0600
0600
0C00
ENDCHAR
STARTCHAR kgreenlandic
ENCODING 312
SWIDTH 556 0
DWIDTH 14 0
BBX 11 14 2 0
BITMAP
E1C0
E3C0
E780
EF00
FE00
FC00
FE00
EF00
E700
E780
E3C0
E1C0
E1E0
E0E0
ENDCHAR
STARTCHAR Lacute
ENCODING 313
SWIDTH 611 0
DWIDTH 15 0
BBX 12 24 2 0
BITMAP
0E00
1C00
3800
7000
0000
E000
E000
E000
E000
E000
E000
E000
E000
E000
E000
E000
E000
E000
E000
E000
E000
E000
FFF0
FFF0
ENDCHAR
STARTCHAR lacute
ENCODING 314
SWIDTH 278 0
DWIDTH 7 0
BBX 6 24 1 0
BITMAP
1C
38
70
E0
00
70
70
70
70
70
70
70
70
70
70
70
70
70
70
70
70
70
70
70
ENDCHAR
STARTCHAR Lcommaaccent
ENCODING 315
SWIDTH 611 0
DWIDTH 15 0
BBX 12 26 2 -7
BITMAP
E000
E000
E000
E000
E000
E000
E000
E000
E000
E000
E000
E000
E000
E000
E000
E000
E000
FFF0
FFF0
0000
0E00
0E00
0E00
0600
0600
0C00
ENDCHAR
STARTCHAR lcommaaccent
ENCODING 316
SWIDTH 278 0
DWIDTH 7 0
BBX 3 26 2 -7
BITMAP
E0
E0
E0
E0
E0
E0
E0
E0
E0
E0
E0
E0
E0
E0
E0
E0
E0
E0
E0
00
E0
E0
E0
60
60
C0
ENDCHAR
STARTCHAR Lcaron
ENCODING 317
SWIDTH 858 0
DWIDTH 21 0
BBX 17 19 2 0
BITMAP
E00380
E00380
E00380
E00180
E00180
E00300
E00000
E00000
E00000
E00000
E00000
E00000
E00000
E00000
E00000
E00000
E00000
FFF000
FFF000
ENDCHAR
STARTCHAR lcaron
ENCODING 318
SWIDTH 542 0
DWIDTH 14 0
BBX 10 19 2 0
BITMAP
E1C0
E1C0
E1C0
E0C0
E0C0
E180
E000
E000
E000
E000
E000
E000
E000
E000
E000
E000
E000
E000
E000
ENDCHAR
STARTCHAR Ldot
ENCODING 319
SWIDTH 858 0
DWIDTH 21 0
BBX 17 19 2 0
BITMAP
E00000
E00000
E00000
E00000
E00000
E00000
E00000
E00000
E00000
E00000
E00380
E00380
E00380
E00000
E00000
E00000
E00000
FFF000
FFF000
ENDCHAR
STARTCHAR ldot
ENCODING 320
SWIDTH 542 0
DWIDTH 14 0
BBX 10 19 2 0
BITMAP
E000
E000
E000
E000
E000
E000
E000
E000
E000
E000
E1C0
E1C0
E1C0
E000
E000
E000
E000
E000
E000
ENDCHAR
STARTCHAR Lslash
ENCODING 321
SWIDTH 611 0
DWIDTH 15 0
BBX 14 19 0 0
BITMAP
3800
3800
3800
3800
3800
3800
3B00
3E00
3C00
7800
F800
3800
3800
3800
3800
3800
3800
3FFC
3FFC
ENDCHAR
STARTCHAR lslash
ENCODING 322
SWIDTH 278 0
DWIDTH 7 0
BBX 7 19 0 0
BITMAP
38
38
38
38
38
38
38
3E
3C
78
F8
38
38
38
38
38
38
38
38
ENDCHAR
STARTCHAR Nacute
ENCODING 323
SWIDTH 722 0
DWIDTH 19 0
BBX 15 24 2 0
BITMAP
00E0
01C0
0380
0700
0000
E00E
F00E
F00E
F80E
F80E
FC0E
EE0E
EE0E
E70E
E38E
E38E
E1CE
E0CE
E0EE
E07E
E03E
E03E
E01E
E00E
ENDCHAR
STARTCHAR nacute
ENCODING 324
SWIDTH 611 0
DWIDTH 15 0
BBX 11 19 2 0
BITMAP
0380
0700
0E00
1C00
0000
EF80
FFC0
F1C0
E0E0
E0E0
E0E0
E0E0
E0E0
E0E0
E0E0
E0E0
E0E0
E0E0
E0E0
ENDCHAR
STARTCHAR Ncommaaccent
ENCODING 325
SWIDTH 722 0
DWIDTH 19 0
BBX 15 26 2 -7
BITMAP
E00E
F00E
F00E
F80E
F80E
FC0E
EE0E
EE0E
E70E
E38E
E38E
E1CE
E0CE
E0EE
E07E
E03E
E03E
E01E
E00E
0000
0380
0380
0380
0180
0180
0300
ENDCHAR
STARTCHAR ncommaaccent
ENCODING 326
SWIDTH 611 0
DWIDTH 15 0
BBX 11 21 2 -7
BITMAP
EF80
FFC0
F1C0
E0E0
E0E0
E0E0
E0E0
E0E0
E0E0
E0E0
E0E0
E0E0
E0E0
E0E0
0000
0E00
0E00
0E00
0600
0600
0C00
ENDCHAR
STARTCHAR Ncaron
ENCODING 327
SWIDTH 722 0
DWIDTH 19 0
BBX 15 24 2 0
BITMAP
1C70
0EE0
07C0
0380
0000
E00E
F00E
F00E
F80E
F80E
FC0E
EE0E
EE0E
E70E
E38E
E38E
E1CE
E0CE
E0EE
E07E
E03E
E03E
E01E
E00E
ENDCHAR
STARTCHAR ncaron
ENCODING 328
SWIDTH 611 0
DWIDTH 15 0
BBX 11 19 2 0
BITMAP
71C0
3B80
1F00
0E00
0000
EF80
FFC0
F1C0
E0E0
E0E0
E0E0
E0E0
E0E0
E0E0
E0E0
E0E0
E0E0
E0E0
E0E0
ENDCHAR
STARTCHAR napostrophe
ENCODING 329
SWIDTH 875 0
DWIDTH 22 0
BBX 18 19 2 0
BITMAP
E00000
E00000
E00000
600000
600000
C1DF00
01FF80
01E380
01C1C0
01C1C0
01C1C0
01C1C0
01C1C0
01C1C0
01C1C0
01C1C0
01C1C0
01C1C0
01C1C0
ENDCHAR
STARTCHAR Eng
ENCODING 330
SWIDTH 722 0
DWIDTH 19 0
BBX 15 24 2 -5
BITMAP
E00E
F00E
F00E
F80E
F80E
FC0E
EE0E
EE0E
E70E
E38E
E38E
E1CE
E0CE
E0EE
E07E
E03E
E03E
E01E
E00E
000E
000E
000E
003E
003C
ENDCHAR
STARTCHAR eng
ENCODING 331
SWIDTH 611 0
DWIDTH 15 0
BBX 11 19 2 -5
BITMAP
EF80
FFC0
F1C0
E0E0
E0E0
E0E0
E0E0
E0E0
E0E0
E0E0
E0E0
E0E0
E0E0
E0E0
00E0
00E0
00E0
03E0
03C0
ENDCHAR
STARTCHAR Omacron
ENCODING 332
SWIDTH 778 0
DWIDTH 19 0
BBX 17 22 1 0
BITMAP
07F000
07F000
000000
07F000
1FFC00
3E3E00
780F00
700700
F00780
E00380
E00380
E00380
E00380
E00380
E00380
E00380
F00780
700700
780F00
3E3E00
1FFC00
07F000
ENDCHAR
STARTCHAR omacron
ENCODING 333
SWIDTH 611 0
DWIDTH 14 0
BBX 12 17 1 0
BITMAP
1FC0
1FC0
0000
0F00
3FC0
79E0
70E0
E070
E070
E070
E070
E070
E070
70E0
79E0
3FC0
0F00
ENDCHAR
STARTCHAR Obreve
ENCODING 334
SWIDTH 778 0
DWIDTH 19 0
BBX 17 24 1 0
BITMAP
0C1800
0E3800
07F000
03E000
000000
07F000
1FFC00
3E3E00
780F00
700700
F00780
E00380
E00380
E00380
E00380
E00380
E00380
E00380
F00780
700700
780F00
3E3E00
1FFC00
07F000
ENDCHAR
STARTCHAR obreve
ENCODING 335
SWIDTH 611 0
DWIDTH 14 0
BBX 12 19 1 0
BITMAP
3060
38E0
1FC0
0F80
0000
0F00
3FC0
79E0
70E0
E070
E070
E070
E070
E070
E070
70E0
79E0
3FC0
0F00
ENDCHAR
STARTCHAR Ohungarumlaut
ENCODING 336
SWIDTH 778 0
DWIDTH 19 0
BBX 17 23 1 0
BITMAP
01DC00
03B800
077000
000000
07F000
1FFC00
3E3E00
780F00
700700
F00780
E00380
E00380
E00380
E00380
E00380
E00380
E00380
F00780
700700
780F00
3E3E00
1FFC00
07F000
ENDCHAR
STARTCHAR ohungarumlaut
ENCODING 337
SWIDTH 611 0
DWIDTH 14 0
BBX 12 18 1 0
BITMAP
0EE0
1DC0
3B80
0000
0F00
3FC0
79E0
70E0
E070
E070
E070
E070
E070
E070
70E0
79E0
3FC0
0F00
ENDCHAR
STARTCHAR OE
ENCODING 338
SWIDTH 1000 0
DWIDTH 26 0
BBX 24 19 1 0
BITMAP
0FDFFE
1FFFFE
3C7C00
703C00
701C00
E01C00
E01C00
E01C00
E01FFC
E01FFC
E01C00
E01C00
E01C00
E01C00
701C00
703C00
3C7C00
1FFFFF
07DFFF
ENDCHAR
STARTCHAR oe
ENCODING 339
SWIDTH 944 0
DWIDTH 23 0
BBX 21 14 1 0
BITMAP
0F0780
3FDFE0
79FCF0
70F870
E07038
E07038
E07FF8
E07FF8
E07000
E07000
70F838
79FC78
3FDFF0
0F07C0
ENDCHAR
STARTCHAR Racute
ENCODING 340
SWIDTH 722 0
DWIDTH 17 0
BBX 14 24 2 0
BITMAP
01C0
0380
0700
0E00
0000
FFE0
FFF8
E038
E01C
E01C
E01C
E01C
E038
FFF8
FFF0
E078
E038
E01C
E01C
E01C
E01C
E01C
E01C
E01C
ENDCHAR
STARTCHAR racute
ENCODING 341
SWIDTH 389 0
DWIDTH 10 0
BBX 7 19 2 0
BITMAP
0E
1C
38
70
00
EE
FE
FE
F0
E0
E0
E0
E0
E0
E0
E0
E0
E0
E0
ENDCHAR
STARTCHAR Rcommaaccent
ENCODING 342
SWIDTH 722 0
DWIDTH 17 0
BBX 14 26 2 -7
BITMAP
FFE0
FFF8
E038
E01C
E01C
E01C
E01C
E038
FFF8
FFF0
E078
E038
E01C
E01C
E01C
E01C
E01C
E01C
E01C
0000
0380
0380
0380
0180
0180
0300
ENDCHAR
STARTCHAR rcommaaccent
ENCODING 343
SWIDTH 389 0
DWIDTH 10 0
BBX 7 21 2 -7
BITMAP
EE
FE
FE
F0
E0
E0
E0
E0
E0
E0
E0
E0
E0
E0
00
70
70
70
30
30
60
ENDCHAR
STARTCHAR Rcaron
ENCODING 344
SWIDTH 722 0
DWIDTH 17 0
BBX 14 24 2 0
BITMAP
38E0
1DC0
0F80
0700
0000
FFE0
FFF8
E038
E01C
E01C
E01C
E01C
E038
FFF8
FFF0
E078
E038
E01C
E01C
E01C
E01C
E01C
E01C
E01C
ENDCHAR
STARTCHAR rcaron
ENCODING 345
SWIDTH 389 0
DWIDTH 10 0
BBX 9 19 1 0
BITMAP
E380
7700
3E00
1C00
0000
7700
7F00
7F00
7800
7000
7000
7000
7000
7000
7000
7000
7000
7000
7000
ENDCHAR
STARTCHAR Sacute
ENCODING 346
SWIDTH 667 0
DWIDTH 17 0
BBX 14 24 2 0
BITMAP
00E0
01C0
0380
0700
0000
0FC0
3FF0
78F8
F038
E038
E000
F000
7C00
3FC0
07F0
00F8
003C
001C
E01C
E01C
E03C
F8F8
7FF0
1FC0
ENDCHAR
STARTCHAR sacute
ENCODING 347
SWIDTH 556 0
DWIDTH 13 0
BBX 11 19 1 0
BITMAP
0380
0700
0E00
1C00
0000
3F00
7F80
F3C0
E1C0
E000
FC00
7F80
0FC0
01E0
E0E0
E0E0
F1E0
7FC0
3F80
ENDCHAR
STARTCHAR Scircumflex
ENCODING 348
SWIDTH 667 0
DWIDTH 17 0
BBX 14 24 2 0
BITMAP
0700
0F80
1DC0
38E0
0000
0FC0
3FF0
78F8
F038
E038
E000
F000
7C00
3FC0
07F0
00F8
003C
001C
E01C
E01C
E03C
F8F8
7FF0
1FC0
ENDCHAR
STARTCHAR scircumflex
ENCODING 349
SWIDTH 556 0
DWIDTH 13 0
BBX 11 19 1 0
BITMAP
0E00
1F00
3B80
71C0
0000
3F00
7F80
F3C0
E1C0
E000
FC00
7F80
0FC0
01E0
E0E0
E0E0
F1E0
7FC0
3F80
ENDCHAR
STARTCHAR Scedilla
ENCODING 350
SWIDTH 667 0
DWIDTH 17 0
BBX 14 24 2 -5
BITMAP
0FC0
3FF0
78F8
F038
E038
E000
F000
7C00
3FC0
07F0
00F8
003C
001C
E01C
E01C
E03C
F8F8
7FF0
1FC0
0780
01C0
01C0
0FC0
0780
ENDCHAR
STARTCHAR scedilla
ENCODING 351
SWIDTH 556 0
DWIDTH 13 0
BBX 11 19 1 -5
BITMAP
3F00
7F80
F3C0
E1C0
E000
FC00
7F80
0FC0
01E0
E0E0
E0E0
F1E0
7FC0
3F80
0F00
0380
0380
1F80
0F00
ENDCHAR
STARTCHAR Scaron
ENCODING 352
SWIDTH 667 0
DWIDTH 17 0
BBX 14 19 1 0
BITMAP
1C70
0EE0
07C0
0380
0000
0FC0
3FF0
7878
7038
7800
7FC0
3FF0
0FFC
003C
E01C
E01C
787C
3FF8
1FE0
ENDCHAR
STARTCHAR scaron
ENCODING 353
SWIDTH 556 0
DWIDTH 13 0
BBX 11 19 1 0
BITMAP
71C0
3B80
1F00
0E00
0000
3F00
7F80
F3C0
E1C0
E000
FC00
7F80
0FC0
01E0
E0E0
E0E0
F1E0
7FC0
3F80
ENDCHAR
STARTCHAR Tcommaaccent
ENCODING 354
SWIDTH 611 0
DWIDTH 15 0
BBX 15 24 0 -5
BITMAP
FFFE
FFFE
0380
0380
0380
0380
0380
0380
0380
0380
0380
0380
0380
0380
0380
0380
0380
0380
0380
03C0
00E0
00E0
07E0
03C0
ENDCHAR
STARTCHAR tcommaaccent
ENCODING 355
SWIDTH 333 0
DWIDTH 9 0
BBX 7 23 1 -5
BITMAP
38
38
38
38
FE
FE
38
38
38
38
38
38
38
38
38
38
3E
3E
3C
0E
0E
7E
3C
ENDCHAR
STARTCHAR Tcaron
ENCODING 356
SWIDTH 611 0
DWIDTH 15 0
BBX 15 24 0 0
BITMAP
1C70
0EE0
07C0
0380
0000
FFFE
FFFE
0380
0380
0380
0380
0380
0380
0380
0380
0380
0380
0380
0380
0380
0380
0380
0380
0380
ENDCHAR
STARTCHAR tcaron
ENCODING 357
SWIDTH 594 0
DWIDTH 16 0
BBX 13 19 1 0
BITMAP
0038
3838
3838
3818
3818
FE30
FE00
3800
3800
3800
3800
3800
3800
3800
3800
3800
3800
3E00
1E00
ENDCHAR
STARTCHAR Tbar
ENCODING 358
SWIDTH 611 0
DWIDTH 15 0
BBX 15 19 0 0
BITMAP
FFFE
FFFE
0380
0380
0380
0380
0380
0380
0380
0380
0380
0380
0380
0380
0380
0380
0380
0380
0380
ENDCHAR
STARTCHAR tbar
ENCODING 359
SWIDTH 333 0
DWIDTH 9 0
BBX 7 18 1 0
BITMAP
38
38
38
38
FE
FE
38
38
38
38
38
38
38
38
38
38
3E
1E
ENDCHAR
STARTCHAR Utilde
ENCODING 360
SWIDTH 722 0
DWIDTH 19 0
BBX 15 23 2 0
BITMAP
0F30
1FF0
19E0
0000
E00E
E00E
E00E
E00E
E00E
E00E
E00E
E00E
E00E
E00E
E00E
E00E
E00E
E00E
F01E
701C
7C7C
3FF8
0FE0
ENDCHAR
STARTCHAR utilde
ENCODING 361
SWIDTH 611 0
DWIDTH 15 0
BBX 11 18 2 0
BITMAP
3CC0
7FC0
6780
0000
E0E0
E0E0
E0E0
E0E0
E0E0
E0E0
E0E0
E0E0
E0E0
E0E0
E1E0
73E0
7EE0
1CE0
ENDCHAR
STARTCHAR Umacron
ENCODING 362
SWIDTH 722 0
DWIDTH 19 0
BBX 15 22 2 0
BITMAP
0FE0
0FE0
0000
E00E
E00E
E00E
E00E
E00E
E00E
E00E
E00E
E00E
E00E
E00E
E00E
E00E
E00E
F01E
701C
7C7C
3FF8
0FE0
ENDCHAR
STARTCHAR umacron
ENCODING 363
SWIDTH 611 0
DWIDTH 15 0
BBX 11 17 2 0
BITMAP
3F80
3F80
0000
E0E0
E0E0
E0E0
E0E0
E0E0
E0E0
E0E0
E0E0
E0E0
E0E0
E1E0
73E0
7EE0
1CE0
ENDCHAR
STARTCHAR Ubreve
ENCODING 364
SWIDTH 722 0
DWIDTH 19 0
BBX 15 24 2 0
BITMAP
1830
1C70
0FE0
07C0
0000
E00E
E00E
E00E
E00E
E00E
E00E
E00E
E00E
E00E
E00E
E00E
E00E
E00E
E00E
F01E
701C
7C7C
3FF8
0FE0
ENDCHAR
STARTCHAR ubreve
ENCODING 365
SWIDTH 611 0
DWIDTH 15 0
BBX 11 19 2 0
BITMAP
60C0
71C0
3F80
1F00
0000
E0E0
E0E0
E0E0
E0E0
E0E0
E0E0
E0E0
E0E0
E0E0
E0E0
E1E0
73E0
7EE0
1CE0
ENDCHAR
STARTCHAR Uring
ENCODING 366
SWIDTH 722 0
DWIDTH 19 0
BBX 15 25 2 0
BITMAP
0380
07C0
06C0
07C0
0380
0000
E00E
E00E
E00E
E00E
E00E
E00E
E00E
E00E
E00E
E00E
E00E
E00E
E00E
E00E
F01E
701C
7C7C
3FF8
0FE0
ENDCHAR
STARTCHAR uring
ENCODING 367
SWIDTH 611 0
DWIDTH 15 0
BBX 11 20 2 0
BITMAP
0E00
1F00
1B00
1F00
0E00
0000
E0E0
E0E0
E0E0
E0E0
E0E0
E0E0
E0E0
E0E0
E0E0
E0E0
E1E0
73E0
7EE0
1CE0
ENDCHAR
STARTCHAR Uhungarumlaut
ENCODING 368
SWIDTH 722 0
DWIDTH 19 0
BBX 15 23 2 0
BITMAP
03B8
0770
0EE0
0000
E00E
E00E
E00E
E00E
E00E
E00E
E00E
E00E
E00E
E00E
E00E
E00E
E00E
E00E
F01E
701C
7C7C
3FF8
0FE0
ENDCHAR
STARTCHAR uhungarumlaut
ENCODING 369
SWIDTH 611 0
DWIDTH 15 0
BBX 11 18 2 0
BITMAP
0EE0
1DC0
3B80
0000
E0E0
E0E0
E0E0
E0E0
E0E0
E0E0
E0E0
E0E0
E0E0
E0E0
E1E0
73E0
7EE0
1CE0
ENDCHAR
STARTCHAR Uogonek
ENCODING 370
SWIDTH 722 0
DWIDTH 19 0
BBX 15 24 2 -5
BITMAP
E00E
E00E
E00E
E00E
E00E
E00E
E00E
E00E
E00E
E00E
E00E
E00E
E00E
E00E
F01E
701C
7C7C
3FF8
0FE0
0700
0E00
0E00
0FC0
0780
ENDCHAR
STARTCHAR uogonek
ENCODING 371
SWIDTH 611 0
DWIDTH 15 0
BBX 11 19 2 -5
BITMAP
E0E0
E0E0
E0E0
E0E0
E0E0
E0E0
E0E0
E0E0
E0E0
E0E0
E1E0
73E0
7EE0
1FE0
0E00
1C00
1C00
1F80
0F00
ENDCHAR
STARTCHAR Wcircumflex
ENCODING 372
SWIDTH 944 0
DWIDTH 23 0
BBX 21 24 1 0
BITMAP
007000
00F800
01DC00
038E00
000000
E07038
E07038
E07038
E07038
70F870
70F870
70D870
71DC70
31DC60
39DCE0
398CE0
3B8EE0
1B8EC0
1B8EC0
1F07C0
1F07C0
0E0380
0E0380
0E0380
ENDCHAR
STARTCHAR wcircumflex
ENCODING 373
SWIDTH 778 0
DWIDTH 19 0
BBX 19 19 0 0
BITMAP
00E000
01F000
03B800
071C00
000000
E0E0E0
E0E0E0
60E0C0
71F1C0
71F1C0
31B180
33B980
3BBB80
1B1B00
1F1F00
1F1F00
0E0E00
0E0E00
0E0E00
ENDCHAR
STARTCHAR Ycircumflex
ENCODING 374
SWIDTH 667 0
DWIDTH 17 0
BBX 15 24 1 0
BITMAP
0380
07C0
0EE0
1C70
0000
E00E
F00E
701C
781C
3838
3C38
1C70
1C70
0EE0
0EE0
07C0
07C0
0380
0380
0380
0380
0380
0380
0380
ENDCHAR
STARTCHAR ycircumflex
ENCODING 375
SWIDTH 556 0
DWIDTH 15 0
BBX 13 24 1 -5
BITMAP
0700
0F80
1DC0
38E0
0000
E038
E038
7038
7870
3870
3CF0
1CE0
1CE0
0FC0
0FC0
07C0
0780
0380
0380
0700
0700
0E00
3E00
3C00
ENDCHAR
STARTCHAR Ydieresis
ENCODING 376
SWIDTH 667 0
DWIDTH 17 0
BBX 15 18 1 0
BITMAP
0EE0
0EE0
0000
0000
E00E
E00E
701C
3838
1830
1C70
0EE0
07C0
0380
0380
0380
0380
0380
0380
ENDCHAR
STARTCHAR Zacute
ENCODING 377
SWIDTH 611 0
DWIDTH 16 0
BBX 14 24 1 0
BITMAP
00E0
01C0
0380
0700
0000
FFFC
FFFC
003C
0078
00F0
01E0
01E0
03C0
0780
0780
0F00
1E00
1E00
3C00
3800
7800
F000
FFFC
FFFC
ENDCHAR
STARTCHAR zacute
ENCODING 378
SWIDTH 500 0
DWIDTH 13 0
BBX 11 19 1 0
BITMAP
01C0
0380
0700
0E00
0000
FFE0
FFE0
01C0
0380
0780
0F00
0E00
1E00
3C00
3800
7000
F000
FFE0
FFE0
ENDCHAR
STARTCHAR Zdotaccent
ENCODING 379
SWIDTH 611 0
DWIDTH 16 0
BBX 14 22 1 0
BITMAP
0380
0380
0000
FFFC
FFFC
003C
0078
00F0
01E0
01E0
03C0
0780
0780
0F00
1E00
1E00
3C00
3800
7800
F000
FFFC
FFFC
ENDCHAR
STARTCHAR zdotaccent
ENCODING 380
SWIDTH 500 0
DWIDTH 13 0
BBX 11 17 1 0
BITMAP
0E00
0E00
0000
FFE0
FFE0
01C0
0380
0780
0F00
0E00
1E00
3C00
3800
7000
F000
FFE0
FFE0
ENDCHAR
STARTCHAR Zcaron
ENCODING 381
SWIDTH 611 0
DWIDTH 16 0
BBX 14 19 1 0
BITMAP
38E0
1DC0
0F80
0700
0000
FFF8
FFF8
0078
00F0
01E0
03C0
0780
0F00
1E00
3C00
7800
F000
FFFC
FFFC
ENDCHAR
STARTCHAR zcaron
ENCODING 382
SWIDTH 500 0
DWIDTH 13 0
BBX 11 19 1 0
BITMAP
71C0
3B80
1F00
0E00
0000
FFE0
FFE0
01C0
0380
0780
0F00
0E00
1E00
3C00
3800
7000
F000
FFE0
FFE0
ENDCHAR
STARTCHAR uni0186
ENCODING 390
SWIDTH 722 0
DWIDTH 18 0
BBX 16 19 1 0
BITMAP
0FE0
3FF8
7C7C
F01E
E00E
E00F
0007
0007
0007
0007
0007
0007
0007
000F
E00E
F01E
7C7C
3FF8
0FE0
ENDCHAR
STARTCHAR uni0189
ENCODING 393
SWIDTH 722 0
DWIDTH 19 0
BBX 19 19 -1 0
BITMAP
1FFC00
1FFF00
1C0F80
1C03C0
1C01C0
1C01E0
1C00E0
1C00E0
FFC0E0
FFC0E0
1C00E0
1C00E0
1C00E0
1C01E0
1C01C0
1C03C0
1C0F80
1FFF00
1FFC00
ENDCHAR
STARTCHAR uni018E
ENCODING 398
SWIDTH 667 0
DWIDTH 16 0
BBX 13 19 2 0
BITMAP
FFF8
FFF8
0038
0038
0038
0038
0038
0038
0038
3FF8
3FF8
0038
0038
0038
0038
0038
0038
7FF8
7FF8
ENDCHAR
STARTCHAR florin
ENCODING 402
SWIDTH 556 0
DWIDTH 12 0
BBX 13 23 -2 -5
BITMAP
00F8
01F8
03C0
0380
0380
0380
1FF0
1FF0
0700
0700
0700
0700
0700
0E00
0E00
0E00
0E00
0E00
0E00
0C00
1C00
F800
F000
ENDCHAR
STARTCHAR uni0197
ENCODING 407
SWIDTH 278 0
DWIDTH 7 0
BBX 3 19 2 0
BITMAP
E0
E0
E0
E0
E0
E0
E0
E0
E0
E0
E0
E0
E0
E0
E0
E0
E0
E0
E0
ENDCHAR
STARTCHAR uni019A
ENCODING 410
SWIDTH 278 0
DWIDTH 7 0
BBX 3 19 2 0
BITMAP
E0
E0
E0
E0
E0
E0
E0
E0
E0
E0
E0
E0
E0
E0
E0
E0
E0
E0
E0
ENDCHAR
STARTCHAR uni019D
ENCODING 413
SWIDTH 722 0
DWIDTH 19 0
BBX 17 24 0 -5
BITMAP
380380
3C0380
3C0380
3E0380
3E0380
3F0380
3B8380
3B8380
39C380
38E380
38E380
387380
383380
383B80
381F80
380F80
380F80
380780
380380
380000
380000
380000
F80000
F00000
ENDCHAR
STARTCHAR uni019F
ENCODING 415
SWIDTH 778 0
DWIDTH 19 0
BBX 17 19 1 0
BITMAP
07F000
1FFC00
3E3E00
780F00
700700
F00780
E00380
E00380
FFFF80
FFFF80
E00380
E00380
E00380
F00780
700700
780F00
3E3E00
1FFC00
07F000
ENDCHAR
STARTCHAR Ohorn
ENCODING 416
SWIDTH 778 0
DWIDTH 19 0
BBX 18 19 1 0
BITMAP
07F1C0
1FFDC0
3E3FC0
780FC0
7007C0
F00780
E00380
E00380
E00380
E00380
E00380
E00380
E00380
F00780
700700
780F00
3E3E00
1FFC00
07F000
ENDCHAR
STARTCHAR ohorn
ENCODING 417
SWIDTH 611 0
DWIDTH 14 0
BBX 14 14 1 0
BITMAP
0F1C
3FDC
79FC
70EC
E07C
E078
E070
E070
E070
E070
70E0
79E0
3FC0
0F00
ENDCHAR
STARTCHAR uni01A7
ENCODING 423
SWIDTH 667 0
DWIDTH 17 0
BBX 14 19 2 0
BITMAP
0FC0
3FF0
7C78
703C
701C
001C
003C
00F8
0FF0
3F80
7C00
F000
E000
E01C
E01C
F01C
7C7C
3FF8
0FE0
ENDCHAR
STARTCHAR uni01A8
ENCODING 424
SWIDTH 556 0
DWIDTH 13 0
BBX 11 14 1 0
BITMAP
1F80
3FC0
79E0
70E0
00E0
07E0
3FC0
7E00
F000
E0E0
E0E0
F1E0
7FC0
3F80
ENDCHAR
STARTCHAR uni01AE
ENCODING 430
SWIDTH 611 0
DWIDTH 15 0
BBX 15 24 0 -5
BITMAP
FFFE
FFFE
0380
0380
0380
0380
0380
0380
0380
0380
0380
0380
0380
0380
0380
0380
0380
0380
0380
0380
0380
0380
03E0
01E0
ENDCHAR
STARTCHAR Uhorn
ENCODING 431
SWIDTH 722 0
DWIDTH 19 0
BBX 17 19 2 0
BITMAP
E00F80
E00F80
E00F80
E00F80
E00F80
E00F00
E00E00
E00E00
E00E00
E00E00
E00E00
E00E00
E00E00
E00E00
F01E00
701C00
7C7C00
3FF800
0FE000
ENDCHAR
STARTCHAR uhorn
ENCODING 432
SWIDTH 611 0
DWIDTH 15 0
BBX 13 14 2 0
BITMAP
E0F8
E0F8
E0F8
E0F8
E0F8
E0F0
E0E0
E0E0
E0E0
E0E0
E1E0
73E0
7EE0
1CE0
ENDCHAR
STARTCHAR uni01B5
ENCODING 437
SWIDTH 611 0
DWIDTH 16 0
BBX 14 19 1 0
BITMAP
FFFC
FFFC
003C
0078
00F0
01E0
01E0
03C0
0780
0780
0F00
1E00
1E00
3C00
3800
7800
F000
FFFC
FFFC
ENDCHAR
STARTCHAR uni01B6
ENCODING 438
SWIDTH 500 0
DWIDTH 13 0
BBX 11 14 1 0
BITMAP
FFE0
FFE0
01C0
0380
0780
0F00
0E00
1E00
3C00
3800
7000
F000
FFE0
FFE0
ENDCHAR
STARTCHAR uni01BB
ENCODING 443
SWIDTH 556 0
DWIDTH 13 0
BBX 12 18 0 0
BITMAP
1F00
7FC0
71E0
E0E0
E070
E070
0070
00E0
FFF0
FFF0
0780
1F00
3C00
7800
F000
E000
FFF0
FFF0
ENDCHAR
STARTCHAR uni01BC
ENCODING 444
SWIDTH 556 0
DWIDTH 13 0
BBX 12 18 0 0
BITMAP
7FE0
7FE0
7000
7000
7000
7000
7F80
7FC0
71E0
00E0
0070
0070
0070
E070
E0F0
F1E0
7FC0
1F80
ENDCHAR
STARTCHAR uni01C0
ENCODING 448
SWIDTH 280 0
DWIDTH 7 0
BBX 2 24 3 -5
BITMAP
C0
C0
C0
C0
C0
C0
C0
C0
C0
C0
C0
C0
C0
C0
C0
C0
C0
C0
C0
C0
C0
C0
C0
C0
ENDCHAR
STARTCHAR uni01C2
ENCODING 450
SWIDTH 584 0
DWIDTH 14 0
BBX 10 24 2 -4
BITMAP
0C00
0C00
0C00
0C00
0C00
0C00
0C00
0C00
0C00
0C00
FFC0
FFC0
0C00
FFC0
FFC0
0C00
0C00
0C00
0C00
0C00
0C00
0C00
0C00
0C00
ENDCHAR
STARTCHAR uni01C3
ENCODING 451
SWIDTH 333 0
DWIDTH 7 0
BBX 3 19 2 0
BITMAP
E0
E0
E0
E0
E0
E0
E0
E0
E0
E0
E0
C0
C0
C0
00
00
E0
E0
E0
ENDCHAR
STARTCHAR uni01CD
ENCODING 461
SWIDTH 722 0
DWIDTH 18 0
BBX 16 24 1 0
BITMAP
1C70
0EE0
07C0
0380
0000
03C0
03C0
07E0
07E0
0E60
0E70
0E70
1C38
1C38
1C38
381C
381C
3FFC
7FFE
700E
700E
E007
E007
E007
ENDCHAR
STARTCHAR uni01CE
ENCODING 462
SWIDTH 556 0
DWIDTH 14 0
BBX 12 19 1 0
BITMAP
38E0
1DC0
0F80
0700
0000
1F80
3FC0
71E0
70E0
00E0
07E0
3FE0
7CE0
F0E0
E0E0
E1E0
F3E0
7FF0
3E70
ENDCHAR
STARTCHAR uni01CF
ENCODING 463
SWIDTH 278 0
DWIDTH 7 0
BBX 9 24 -1 0
BITMAP
E380
7700
3E00
1C00
0000
1C00
1C00
1C00
1C00
1C00
1C00
1C00
1C00
1C00
1C00
1C00
1C00
1C00
1C00
1C00
1C00
1C00
1C00
1C00
ENDCHAR
STARTCHAR uni01D0
ENCODING 464
SWIDTH 278 0
DWIDTH 7 0
BBX 9 19 -1 0
BITMAP
E380
7700
3E00
1C00
0000
1C00
1C00
1C00
1C00
1C00
1C00
1C00
1C00
1C00
1C00
1C00
1C00
1C00
1C00
ENDCHAR
STARTCHAR uni01D1
ENCODING 465
SWIDTH 778 0
DWIDTH 19 0
BBX 17 24 1 0
BITMAP
0E3800
077000
03E000
01C000
000000
07F000
1FFC00
3E3E00
780F00
700700
F00780
E00380
E00380
E00380
E00380
E00380
E00380
E00380
F00780
700700
780F00
3E3E00
1FFC00
07F000
ENDCHAR
STARTCHAR uni01D2
ENCODING 466
SWIDTH 611 0
DWIDTH 14 0
BBX 12 19 1 0
BITMAP
38E0
1DC0
0F80
0700
0000
0F00
3FC0
79E0
70E0
E070
E070
E070
E070
E070
E070
70E0
79E0
3FC0
0F00
ENDCHAR
STARTCHAR uni01D3
ENCODING 467
SWIDTH 722 0
DWIDTH 19 0
BBX 15 24 2 0
BITMAP
1C70
0EE0
07C0
0380
0000
E00E
E00E
E00E
E00E
E00E
E00E
E00E
E00E
E00E
E00E
E00E
E00E
E00E
E00E
F01E
701C
7C7C
3FF8
0FE0
ENDCHAR
STARTCHAR uni01D4
ENCODING 468
SWIDTH 611 0
DWIDTH 15 0
BBX 11 19 2 0
BITMAP
71C0
3B80
1F00
0E00
0000
E0E0
E0E0
E0E0
E0E0
E0E0
E0E0
E0E0
E0E0
E0E0
E0E0
E1E0
73E0
7EE0
1CE0
ENDCHAR
STARTCHAR uni01D5
ENCODING 469
SWIDTH 722 0
DWIDTH 19 0
BBX 15 26 2 0
BITMAP
0FE0
0FE0
0000
1C70
1C70
0000
0000
E00E
E00E
E00E
E00E
E00E
E00E
E00E
E00E
E00E
E00E
E00E
E00E
E00E
E00E
F01E
701C
7C7C
3FF8
0FE0
ENDCHAR
STARTCHAR uni01D6
ENCODING 470
SWIDTH 611 0
DWIDTH 15 0
BBX 11 21 2 0
BITMAP
3F80
3F80
0000
39C0
39C0
0000
0000
E0E0
E0E0
E0E0
E0E0
E0E0
E0E0
E0E0
E0E0
E0E0
E0E0
E1E0
73E0
7EE0
1CE0
ENDCHAR
STARTCHAR uni01D7
ENCODING 471
SWIDTH 722 0
DWIDTH 19 0
BBX 15 28 2 0
BITMAP
00E0
01C0
0380
0700
0000
1C70
1C70
0000
0000
E00E
E00E
E00E
E00E
E00E
E00E
E00E
E00E
E00E
E00E
E00E
E00E
E00E
E00E
F01E
701C
7C7C
3FF8
0FE0
ENDCHAR
STARTCHAR uni01D8
ENCODING 472
SWIDTH 611 0
DWIDTH 15 0
BBX 11 23 2 0
BITMAP
0380
0700
0E00
1C00
0000
39C0
39C0
0000
0000
E0E0
E0E0
E0E0
E0E0
E0E0
E0E0
E0E0
E0E0
E0E0
E0E0
E1E0
73E0
7EE0
1CE0
ENDCHAR
STARTCHAR uni01D9
ENCODING 473
SWIDTH 722 0
DWIDTH 19 0
BBX 15 28 2 0
BITMAP
1C70
0EE0
07C0
0380
0000
1C70
1C70
0000
0000
E00E
E00E
E00E
E00E
E00E
E00E
E00E
E00E
E00E
E00E
E00E
E00E
E00E
E00E
F01E
701C
7C7C
3FF8
0FE0
ENDCHAR
STARTCHAR uni01DA
ENCODING 474
SWIDTH 611 0
DWIDTH 15 0
BBX 11 23 2 0
BITMAP
71C0
3B80
1F00
0E00
0000
39C0
39C0
0000
0000
E0E0
E0E0
E0E0
E0E0
E0E0
E0E0
E0E0
E0E0
E0E0
E0E0
E1E0
73E0
7EE0
1CE0
ENDCHAR
STARTCHAR uni01DB
ENCODING 475
SWIDTH 722 0
DWIDTH 19 0
BBX 15 28 2 0
BITMAP
0E00
0700
0380
01C0
0000
1C70
1C70
0000
0000
E00E
E00E
E00E
E00E
E00E
E00E
E00E
E00E
E00E
E00E
E00E
E00E
E00E
E00E
F01E
701C
7C7C
3FF8
0FE0
ENDCHAR
STARTCHAR uni01DC
ENCODING 476
SWIDTH 611 0
DWIDTH 15 0
BBX 11 23 2 0
BITMAP
3800
1C00
0E00
0700
0000
39C0
39C0
0000
0000
E0E0
E0E0
E0E0
E0E0
E0E0
E0E0
E0E0
E0E0
E0E0
E0E0
E1E0
73E0
7EE0
1CE0
ENDCHAR
STARTCHAR uni01DD
ENCODING 477
SWIDTH 556 0
DWIDTH 14 0
BBX 12 14 1 0
BITMAP
1F00
7FC0
F1E0
E0E0
0070
0070
FFF0
FFF0
E070
E070
70E0
79E0
3FC0
0F00
ENDCHAR
STARTCHAR uni01DE
ENCODING 478
SWIDTH 722 0
DWIDTH 18 0
BBX 16 26 1 0
BITMAP
07F0
07F0
0000
0E70
0E70
0000
0000
03C0
03C0
07E0
07E0
0E60
0E70
0E70
1C38
1C38
1C38
381C
381C
3FFC
7FFE
700E
700E
E007
E007
E007
ENDCHAR
STARTCHAR uni01DF
ENCODING 479
SWIDTH 556 0
DWIDTH 14 0
BBX 12 21 1 0
BITMAP
1FC0
1FC0
0000
39C0
39C0
0000
0000
1F80
3FC0
71E0
70E0
00E0
07E0
3FE0
7CE0
F0E0
E0E0
E1E0
F3E0
7FF0
3E70
ENDCHAR
STARTCHAR uni01E0
ENCODING 480
SWIDTH 722 0
DWIDTH 18 0
BBX 16 25 1 0
BITMAP
0FE0
0FE0
0000
0380
0380
0000
03C0
03C0
07E0
07E0
0E60
0E70
0E70
1C38
1C38
1C38
381C
381C
3FFC
7FFE
700E
700E
E007
E007
E007
ENDCHAR
STARTCHAR uni01E1
ENCODING 481
SWIDTH 556 0
DWIDTH 14 0
BBX 12 20 1 0
BITMAP
1FC0
1FC0
0000
0700
0700
0000
1F80
3FC0
71E0
70E0
00E0
07E0
3FE0
7CE0
F0E0
E0E0
E1E0
F3E0
7FF0
3E70
ENDCHAR
STARTCHAR uni01E2
ENCODING 482
SWIDTH 1000 0
DWIDTH 24 0
BBX 22 22 1 0
BITMAP
00FE00
00FE00
000000
03FFF8
03FFF8
077000
077000
0E7000
0E7000
0E7000
1C7000
1C7FF0
1C7FF0
387000
387000
3FF000
7FF000
707000
707000
E07000
E07FFC
E07FFC
ENDCHAR
STARTCHAR uni01E3
ENCODING 483
SWIDTH 889 0
DWIDTH 22 0
BBX 20 17 1 0
BITMAP
03F800
03F800
000000
1F8F00
3FFFC0
71F9E0
70F0E0
00E070
07E070
3FFFF0
7CFFF0
F0E000
E0E000
E1F070
F3F8F0
7F3FE0
3E0F80
ENDCHAR
STARTCHAR uni01E4
ENCODING 484
SWIDTH 778 0
DWIDTH 19 0
BBX 17 19 1 0
BITMAP
07F000
1FFC00
3E3E00
780F00
700700
F00000
E00000
E00000
E00000
E07F80
E07F80
E00380
E00380
F00780
700780
780F80
3E3F80
1FFB80
07F380
ENDCHAR
STARTCHAR uni01E5
ENCODING 485
SWIDTH 611 0
DWIDTH 15 0
BBX 12 19 1 -5
BITMAP
1F70
3FF0
79F0
70F0
E070
E070
E070
E070
E070
E070
70F0
79F0
3FF0
FFF0
FFF0
E070
F0E0
7FE0
1F80
ENDCHAR
STARTCHAR Gcaron
ENCODING 486
SWIDTH 778 0
DWIDTH 19 0
BBX 17 24 1 0
BITMAP
0E3800
077000
03E000
01C000
000000
07F000
1FFC00
3E3E00
780F00
700700
F00000
E00000
E00000
E00000
E07F80
E07F80
E00380
E00380
F00380
700780
780F80
3E3F80
1FFB80
07F380
ENDCHAR
STARTCHAR gcaron
ENCODING 487
SWIDTH 611 0
DWIDTH 15 0
BBX 12 24 1 -5
BITMAP
38E0
1DC0
0F80
0700
0000
1F70
3FF0
79F0
70F0
E070
E070
E070
E070
E070
E070
70F0
79F0
3FF0
1F70
0070
E070
F0E0
7FE0
1F80
ENDCHAR
STARTCHAR uni01E8
ENCODING 488
SWIDTH 722 0
DWIDTH 18 0
BBX 14 24 2 0
BITMAP
38E0
1DC0
0F80
0700
0000
E03C
E078
E0F0
E1E0
E3C0
E780
EF00
FE00
FE00
FF00
F780
E380
E1C0
E1E0
E0E0
E070
E078
E038
E03C
ENDCHAR
STARTCHAR uni01E9
ENCODING 489
SWIDTH 556 0
DWIDTH 14 0
BBX 13 24 0 0
BITMAP
E380
7700
3E00
1C00
0000
3800
3800
3800
3800
3800
3870
38F0
39E0
3BC0
3F80
3F00
3F80
3BC0
39C0
39E0
38F0
3870
3878
3838
ENDCHAR
STARTCHAR uni01EA
ENCODING 490
SWIDTH 778 0
DWIDTH 19 0
BBX 17 24 1 -5
BITMAP
07F000
1FFC00
3E3E00
780F00
700700
F00780
E00380
E00380
E00380
E00380
E00380
E00380
E00380
F00780
700700
780F00
3E3E00
1FFC00
07F000
038000
070000
070000
07E000
03C000
ENDCHAR
STARTCHAR uni01EB
ENCODING 491
SWIDTH 611 0
DWIDTH 14 0
BBX 12 19 1 -5
BITMAP
0F00
3FC0
79E0
70E0
E070
E070
E070
E070
E070
E070
70E0
79E0
3FC0
0F80
0E00
1C00
1C00
1F80
0F00
ENDCHAR
STARTCHAR uni01EC
ENCODING 492
SWIDTH 778 0
DWIDTH 19 0
BBX 17 27 1 -5
BITMAP
07F000
07F000
000000
07F000
1FFC00
3E3E00
780F00
700700
F00780
E00380
E00380
E00380
E00380
E00380
E00380
E00380
F00780
700700
780F00
3E3E00
1FFC00
07F000
038000
070000
070000
07E000
03C000
ENDCHAR
STARTCHAR uni01ED
ENCODING 493
SWIDTH 611 0
DWIDTH 14 0
BBX 12 22 1 -5
BITMAP
1FC0
1FC0
0000
0F00
3FC0
79E0
70E0
E070
E070
E070
E070
E070
E070
70E0
79E0
3FC0
0F80
0E00
1C00
1C00
1F80
0F00
ENDCHAR
STARTCHAR uni01F0
ENCODING 496
SWIDTH 278 0
DWIDTH 7 0
BBX 9 24 -1 -5
BITMAP
E380
7700
3E00
1C00
0000
1C00
1C00
1C00
1C00
1C00
1C00
1C00
1C00
1C00
1C00
1C00
1C00
1C00
1C00
1C00
1C00
1C00
7C00
7800
ENDCHAR
STARTCHAR uni01F4
ENCODING 500
SWIDTH 778 0
DWIDTH 19 0
BBX 17 24 1 0
BITMAP
007000
00E000
01C000
038000
000000
07F000
1FFC00
3E3E00
780F00
700700
F00000
E00000
E00000
E00000
E07F80
E07F80
E00380
E00380
F00380
700780
780F80
3E3F80
1FFB80
07F380
ENDCHAR
STARTCHAR uni01F5
ENCODING 501
SWIDTH 611 0
DWIDTH 15 0
BBX 12 24 1 -5
BITMAP
01C0
0380
0700
0E00
0000
1F70
3FF0
79F0
70F0
E070
E070
E070
E070
E070
E070
70F0
79F0
3FF0
1F70
0070
E070
F0E0
7FE0
1F80
ENDCHAR
STARTCHAR uni01F8
ENCODING 504
SWIDTH 722 0
DWIDTH 19 0
BBX 15 24 2 0
BITMAP
1C00
0E00
0700
0380
0000
E00E
F00E
F00E
F80E
F80E
FC0E
EE0E
EE0E
E70E
E38E
E38E
E1CE
E0CE
E0EE
E07E
E03E
E03E
E01E
E00E
ENDCHAR
STARTCHAR uni01F9
ENCODING 505
SWIDTH 611 0
DWIDTH 15 0
BBX 11 19 2 0
BITMAP
7000
3800
1C00
0E00
0000
EF80
FFC0
F1C0
E0E0
E0E0
E0E0
E0E0
E0E0
E0E0
E0E0
E0E0
E0E0
E0E0
E0E0
ENDCHAR
STARTCHAR Aringacute
ENCODING 506
SWIDTH 722 0
DWIDTH 18 0
BBX 16 29 1 0
BITMAP
0070
00E0
01C0
0380
0000
03C0
0660
0420
0660
03C0
03C0
03C0
07E0
07E0
0E60
0E70
0E70
1C38
1C38
1C38
381C
381C
3FFC
7FFE
700E
700E
E007
E007
E007
ENDCHAR
STARTCHAR aringacute
ENCODING 507
SWIDTH 556 0
DWIDTH 14 0
BBX 12 24 1 0
BITMAP
01C0
0380
0700
0E00
0000
0700
0D80
0880
0D80
0700
1F80
3FC0
71E0
70E0
00E0
07E0
3FE0
7CE0
F0E0
E0E0
E1E0
F3E0
7FF0
3E70
ENDCHAR
STARTCHAR AEacute
ENCODING 508
SWIDTH 1000 0
DWIDTH 24 0
BBX 22 24 1 0
BITMAP
000E00
001C00
003800
007000
000000
03FFF8
03FFF8
077000
077000
0E7000
0E7000
0E7000
1C7000
1C7FF0
1C7FF0
387000
387000
3FF000
7FF000
707000
707000
E07000
E07FFC
E07FFC
ENDCHAR
STARTCHAR aeacute
ENCODING 509
SWIDTH 889 0
DWIDTH 22 0
BBX 20 19 1 0
BITMAP
001C00
003800
007000
00E000
000000
1F8F00
3FFFC0
71F9E0
70F0E0
00E070
07E070
3FFFF0
7CFFF0
F0E000
E0E000
E1F070
F3F8F0
7F3FE0
3E0F80
ENDCHAR
STARTCHAR Oslashacute
ENCODING 510
SWIDTH 778 0
DWIDTH 19 0
BBX 19 24 0 0
BITMAP
001C00
003800
007000
00E000
000000
03F860
0FFEE0
1F1FC0
3C0380
380780
780FC0
701DC0
7039C0
7071C0
70E1C0
71C1C0
7381C0
7701C0
7E03C0
3C0380
3C0780
7F1F00
EFFE00
C3F800
ENDCHAR
STARTCHAR oslashacute
ENCODING 511
SWIDTH 611 0
DWIDTH 14 0
BBX 14 19 0 0
BITMAP
00E0
01C0
0380
0700
0000
078C
1FFC
3CF8
3870
70F8
71F8
73B8
7738
7E38
7C38
3870
7CF0
FFE0
C780
ENDCHAR
STARTCHAR uni0200
ENCODING 512
SWIDTH 722 0
DWIDTH 18 0
BBX 16 23 1 0
BITMAP
1DC0
0EE0
0770
0000
03C0
03C0
07E0
07E0
0E60
0E70
0E70
1C38
1C38
1C38
381C
381C
3FFC
7FFE
700E
700E
E007
E007
E007
ENDCHAR
STARTCHAR uni0201
ENCODING 513
SWIDTH 556 0
DWIDTH 14 0
BBX 12 18 1 0
BITMAP
7700
3B80
1DC0
0000
1F80
3FC0
71E0
70E0
00E0
07E0
3FE0
7CE0
F0E0
E0E0
E1E0
F3E0
7FF0
3E70
ENDCHAR
STARTCHAR uni0202
ENCODING 514
SWIDTH 722 0
DWIDTH 18 0
BBX 16 24 1 0
BITMAP
07C0
0FE0
1C70
1830
0000
03C0
03C0
07E0
07E0
0E60
0E70
0E70
1C38
1C38
1C38
381C
381C
3FFC
7FFE
700E
700E
E007
E007
E007
ENDCHAR
STARTCHAR uni0203
ENCODING 515
SWIDTH 556 0
DWIDTH 14 0
BBX 12 19 1 0
BITMAP
0F80
1FC0
38E0
3060
0000
1F80
3FC0
71E0
70E0
00E0
07E0
3FE0
7CE0
F0E0
E0E0
E1E0
F3E0
7FF0
3E70
ENDCHAR
STARTCHAR uni0204
ENCODING 516
SWIDTH 667 0
DWIDTH 16 0
BBX 13 23 2 0
BITMAP
EE00
7700
3B80
0000
FFF0
FFF0
E000
E000
E000
E000
E000
E000
FFE0
FFE0
E000
E000
E000
E000
E000
E000
E000
FFF8
FFF8
ENDCHAR
STARTCHAR uni0205
ENCODING 517
SWIDTH 556 0
DWIDTH 14 0
BBX 12 18 1 0
BITMAP
7700
3B80
1DC0
0000
0F00
3FC0
79E0
70E0
E070
E070
FFF0
FFF0
E000
E000
7070
78F0
3FE0
0F80
ENDCHAR
STARTCHAR uni0206
ENCODING 518
SWIDTH 667 0
DWIDTH 16 0
BBX 13 24 2 0
BITMAP
1F00
3F80
71C0
60C0
0000
FFF0
FFF0
E000
E000
E000
E000
E000
E000
FFE0
FFE0
E000
E000
E000
E000
E000
E000
E000
FFF8
FFF8
ENDCHAR
STARTCHAR uni0207
ENCODING 519
SWIDTH 556 0
DWIDTH 14 0
BBX 12 19 1 0
BITMAP
0F80
1FC0
38E0
3060
0000
0F00
3FC0
79E0
70E0
E070
E070
FFF0
FFF0
E000
E000
7070
78F0
3FE0
0F80
ENDCHAR
STARTCHAR uni0208
ENCODING 520
SWIDTH 278 0
DWIDTH 7 0
BBX 9 23 -2 0
BITMAP
EE00
7700
3B80
0000
0E00
0E00
0E00
0E00
0E00
0E00
0E00
0E00
0E00
0E00
0E00
0E00
0E00
0E00
0E00
0E00
0E00
0E00
0E00
ENDCHAR
STARTCHAR uni0209
ENCODING 521
SWIDTH 278 0
DWIDTH 7 0
BBX 9 18 -2 0
BITMAP
EE00
7700
3B80
0000
0E00
0E00
0E00
0E00
0E00
0E00
0E00
0E00
0E00
0E00
0E00
0E00
0E00
0E00
ENDCHAR
STARTCHAR uni020A
ENCODING 522
SWIDTH 278 0
DWIDTH 7 0
BBX 9 24 -1 0
BITMAP
3E00
7F00
E380
C180
0000
1C00
1C00
1C00
1C00
1C00
1C00
1C00
1C00
1C00
1C00
1C00
1C00
1C00
1C00
1C00
1C00
1C00
1C00
1C00
ENDCHAR
STARTCHAR uni020B
ENCODING 523
SWIDTH 278 0
DWIDTH 7 0
BBX 9 19 -1 0
BITMAP
3E00
7F00
E380
C180
0000
1C00
1C00
1C00
1C00
1C00
1C00
1C00
1C00
1C00
1C00
1C00
1C00
1C00
1C00
ENDCHAR
STARTCHAR uni020C
ENCODING 524
SWIDTH 778 0
DWIDTH 19 0
BBX 17 23 1 0
BITMAP
1DC000
0EE000
077000
000000
07F000
1FFC00
3E3E00
780F00
700700
F00780
E00380
E00380
E00380
E00380
E00380
E00380
E00380
F00780
700700
780F00
3E3E00
1FFC00
07F000
ENDCHAR
STARTCHAR uni020D
ENCODING 525
SWIDTH 611 0
DWIDTH 14 0
BBX 12 18 1 0
BITMAP
7700
3B80
1DC0
0000
0F00
3FC0
79E0
70E0
E070
E070
E070
E070
E070
E070
70E0
79E0
3FC0
0F00
ENDCHAR
STARTCHAR uni020E
ENCODING 526
SWIDTH 778 0
DWIDTH 19 0
BBX 17 24 1 0
BITMAP
03E000
07F000
0E3800
0C1800
000000
07F000
1FFC00
3E3E00
780F00
700700
F00780
E00380
E00380
E00380
E00380
E00380
E00380
E00380
F00780
700700
780F00
3E3E00
1FFC00
07F000
ENDCHAR
STARTCHAR uni020F
ENCODING 527
SWIDTH 611 0
DWIDTH 14 0
BBX 12 19 1 0
BITMAP
0F80
1FC0
38E0
3060
0000
0F00
3FC0
79E0
70E0
E070
E070
E070
E070
E070
E070
70E0
79E0
3FC0
0F00
ENDCHAR
STARTCHAR uni0210
ENCODING 528
SWIDTH 722 0
DWIDTH 17 0
BBX 14 23 2 0
BITMAP
7700
3B80
1DC0
0000
FFE0
FFF8
E038
E01C
E01C
E01C
E01C
E038
FFF8
FFF0
E078
E038
E01C
E01C
E01C
E01C
E01C
E01C
E01C
ENDCHAR
STARTCHAR uni0211
ENCODING 529
SWIDTH 389 0
DWIDTH 10 0
BBX 9 18 0 0
BITMAP
EE00
7700
3B80
0000
3B80
3F80
3F80
3C00
3800
3800
3800
3800
3800
3800
3800
3800
3800
3800
ENDCHAR
STARTCHAR uni0212
ENCODING 530
SWIDTH 722 0
DWIDTH 17 0
BBX 14 24 2 0
BITMAP
0F80
1FC0
38E0
3060
0000
FFE0
FFF8
E038
E01C
E01C
E01C
E01C
E038
FFF8
FFF0
E078
E038
E01C
E01C
E01C
E01C
E01C
E01C
E01C
ENDCHAR
STARTCHAR uni0213
ENCODING 531
SWIDTH 389 0
DWIDTH 10 0
BBX 9 19 1 0
BITMAP
3E00
7F00
E380
C180
0000
7700
7F00
7F00
7800
7000
7000
7000
7000
7000
7000
7000
7000
7000
7000
ENDCHAR
STARTCHAR uni0214
ENCODING 532
SWIDTH 722 0
DWIDTH 19 0
BBX 15 23 2 0
BITMAP
3B80
1DC0
0EE0
0000
E00E
E00E
E00E
E00E
E00E
E00E
E00E
E00E
E00E
E00E
E00E
E00E
E00E
E00E
F01E
701C
7C7C
3FF8
0FE0
ENDCHAR
STARTCHAR uni0215
ENCODING 533
SWIDTH 611 0
DWIDTH 15 0
BBX 11 18 2 0
BITMAP
EE00
7700
3B80
0000
E0E0
E0E0
E0E0
E0E0
E0E0
E0E0
E0E0
E0E0
E0E0
E0E0
E1E0
73E0
7EE0
1CE0
ENDCHAR
STARTCHAR uni0216
ENCODING 534
SWIDTH 722 0
DWIDTH 19 0
BBX 15 24 2 0
BITMAP
07C0
0FE0
1C70
1830
0000
E00E
E00E
E00E
E00E
E00E
E00E
E00E
E00E
E00E
E00E
E00E
E00E
E00E
E00E
F01E
701C
7C7C
3FF8
0FE0
ENDCHAR
STARTCHAR uni0217
ENCODING 535
SWIDTH 611 0
DWIDTH 15 0
BBX 11 19 2 0
BITMAP
1F00
3F80
71C0
60C0
0000
E0E0
E0E0
E0E0
E0E0
E0E0
E0E0
E0E0
E0E0
E0E0
E0E0
E1E0
73E0
7EE0
1CE0
ENDCHAR
STARTCHAR Scommaaccent
ENCODING 536
SWIDTH 667 0
DWIDTH 17 0
BBX 14 26 2 -7
BITMAP
0FC0
3FF0
78F8
F038
E038
E000
F000
7C00
3FC0
07F0
00F8
003C
001C
E01C
E01C
E03C
F8F8
7FF0
1FC0
0000
0700
0700
0700
0300
0300
0600
ENDCHAR
STARTCHAR scommaaccent
ENCODING 537
SWIDTH 556 0
DWIDTH 13 0
BBX 11 21 1 -7
BITMAP
3F00
7F80
F3C0
E1C0
E000
FC00
7F80
0FC0
01E0
E0E0
E0E0
F1E0
7FC0
3F80
0000
0E00
0E00
0E00
0600
0600
0C00
ENDCHAR
STARTCHAR Tcommaaccent
ENCODING 538
SWIDTH 611 0
DWIDTH 15 0
BBX 15 26 0 -7
BITMAP
FFFE
FFFE
0380
0380
0380
0380
0380
0380
0380
0380
0380
0380
0380
0380
0380
0380
0380
0380
0380
0000
0380
0380
0380
0180
0180
0300
ENDCHAR
STARTCHAR tcommaaccent
ENCODING 539
SWIDTH 333 0
DWIDTH 9 0
BBX 7 25 1 -7
BITMAP
38
38
38
38
FE
FE
38
38
38
38
38
38
38
38
38
38
3E
1E
00
38
38
38
18
18
30
ENDCHAR
STARTCHAR uni021E
ENCODING 542
SWIDTH 722 0
DWIDTH 19 0
BBX 15 24 2 0
BITMAP
1C70
0EE0
07C0
0380
0000
E00E
E00E
E00E
E00E
E00E
E00E
E00E
E00E
FFFE
FFFE
E00E
E00E
E00E
E00E
E00E
E00E
E00E
E00E
E00E
ENDCHAR
STARTCHAR uni021F
ENCODING 543
SWIDTH 611 0
DWIDTH 15 0
BBX 13 24 0 0
BITMAP
E380
7700
3E00
1C00
0000
3800
3800
3800
3800
3800
3BC0
3FF0
3C70
3838
3838
3838
3838
3838
3838
3838
3838
3838
3838
3838
ENDCHAR
STARTCHAR uni0226
ENCODING 550
SWIDTH 722 0
DWIDTH 18 0
BBX 16 22 1 0
BITMAP
0380
0380
0000
03C0
03C0
07E0
07E0
0E60
0E70
0E70
1C38
1C38
1C38
381C
381C
3FFC
7FFE
700E
700E
E007
E007
E007
ENDCHAR
STARTCHAR uni0227
ENCODING 551
SWIDTH 556 0
DWIDTH 14 0
BBX 12 17 1 0
BITMAP
0700
0700
0000
1F80
3FC0
71E0
70E0
00E0
07E0
3FE0
7CE0
F0E0
E0E0
E1E0
F3E0
7FF0
3E70
ENDCHAR
STARTCHAR uni0228
ENCODING 552
SWIDTH 667 0
DWIDTH 16 0
BBX 13 24 2 -5
BITMAP
FFF0
FFF0
E000
E000
E000
E000
E000
E000
FFE0
FFE0
E000
E000
E000
E000
E000
E000
E000
FFF8
FFF8
0F00
0380
0380
1F80
0F00
ENDCHAR
STARTCHAR uni0229
ENCODING 553
SWIDTH 556 0
DWIDTH 14 0
BBX 12 19 1 -5
BITMAP
0F00
3FC0
79E0
70E0
E070
E070
FFF0
FFF0
E000
E000
7070
78F0
3FE0
0F80
0F00
0380
0380
1F80
0F00
ENDCHAR
STARTCHAR uni022A
ENCODING 554
SWIDTH 778 0
DWIDTH 19 0
BBX 17 26 1 0
BITMAP
07F000
07F000
000000
0E3800
0E3800
000000
000000
07F000
1FFC00
3E3E00
780F00
700700
F00780
E00380
E00380
E00380
E00380
E00380
E00380
E00380
F00780
700700
780F00
3E3E00
1FFC00
07F000
ENDCHAR
STARTCHAR uni022B
ENCODING 555
SWIDTH 611 0
DWIDTH 14 0
BBX 12 21 1 0
BITMAP
1FC0
1FC0
0000
39C0
39C0
0000
0000
0F00
3FC0
79E0
70E0
E070
E070
E070
E070
E070
E070
70E0
79E0
3FC0
0F00
ENDCHAR
STARTCHAR uni022C
ENCODING 556
SWIDTH 778 0
DWIDTH 19 0
BBX 17 26 1 0
BITMAP
07F000
07F000
000000
079800
0FF800
0CF000
000000
07F000
1FFC00
3E3E00
780F00
700700
F00780
E00380
E00380
E00380
E00380
E00380
E00380
E00380
F00780
700700
780F00
3E3E00
1FFC00
07F000
ENDCHAR
STARTCHAR uni022D
ENCODING 557
SWIDTH 611 0
DWIDTH 14 0
BBX 12 22 1 0
BITMAP
3F80
3F80
0000
3CC0
7FC0
6780
0000
0000
0F00
3FC0
79E0
70E0
E070
E070
E070
E070
E070
E070
70E0
79E0
3FC0
0F00
ENDCHAR
STARTCHAR uni022E
ENCODING 558
SWIDTH 778 0
DWIDTH 19 0
BBX 17 22 1 0
BITMAP
01C000
01C000
000000
07F000
1FFC00
3E3E00
780F00
700700
F00780
E00380
E00380
E00380
E00380
E00380
E00380
E00380
F00780
700700
780F00
3E3E00
1FFC00
07F000
ENDCHAR
STARTCHAR uni022F
ENCODING 559
SWIDTH 611 0
DWIDTH 14 0
BBX 12 17 1 0
BITMAP
0700
0700
0000
0F00
3FC0
79E0
70E0
E070
E070
E070
E070
E070
E070
70E0
79E0
3FC0
0F00
ENDCHAR
STARTCHAR uni0230
ENCODING 560
SWIDTH 778 0
DWIDTH 19 0
BBX 17 25 1 0
BITMAP
07F000
07F000
000000
01C000
01C000
000000
07F000
1FFC00
3E3E00
780F00
700700
F00780
E00380
E00380
E00380
E00380
E00380
E00380
E00380
F00780
700700
780F00
3E3E00
1FFC00
07F000
ENDCHAR
STARTCHAR uni0231
ENCODING 561
SWIDTH 611 0
DWIDTH 14 0
BBX 12 20 1 0
BITMAP
1FC0
1FC0
0000
0700
0700
0000
0F00
3FC0
79E0
70E0
E070
E070
E070
E070
E070
E070
70E0
79E0
3FC0
0F00
ENDCHAR
STARTCHAR uni0232
ENCODING 562
SWIDTH 667 0
DWIDTH 17 0
BBX 15 22 1 0
BITMAP
0FE0
0FE0
0000
E00E
F00E
701C
781C
3838
3C38
1C70
1C70
0EE0
0EE0
07C0
07C0
0380
0380
0380
0380
0380
0380
0380
ENDCHAR
STARTCHAR uni0233
ENCODING 563
SWIDTH 556 0
DWIDTH 15 0
BBX 13 22 1 -5
BITMAP
1FC0
1FC0
0000
E038
E038
7038
7870
3870
3CF0
1CE0
1CE0
0FC0
0FC0
07C0
0780
0380
0380
0700
0700
0E00
3E00
3C00
ENDCHAR
STARTCHAR uni0250
ENCODING 592
SWIDTH 556 0
DWIDTH 14 0
BBX 12 14 1 0
BITMAP
E7C0
FFE0
7CF0
7870
7070
70F0
73E0
7FC0
7E00
7000
70E0
78E0
3FC0
1F80
ENDCHAR
STARTCHAR uni0254
ENCODING 596
SWIDTH 556 0
DWIDTH 13 0
BBX 11 14 1 0
BITMAP
3F00
7F80
F3C0
E1C0
00E0
00E0
00E0
00E0
00E0
00E0
E1C0
F3C0
7F80
3F00
ENDCHAR
STARTCHAR uni0258
ENCODING 600
SWIDTH 556 0
DWIDTH 14 0
BBX 12 14 1 0
BITMAP
0F00
3FC0
79E0
70E0
E070
E070
FFF0
FFF0
0070
0070
E0E0
F1E0
7FC0
1F00
ENDCHAR
STARTCHAR uni0259
ENCODING 601
SWIDTH 556 0
DWIDTH 14 0
BBX 12 14 1 0
BITMAP
1F00
7FC0
F1E0
E0E0
0070
0070
FFF0
FFF0
E070
E070
70E0
79E0
3FC0
0F00
ENDCHAR
STARTCHAR uni025F
ENCODING 607
SWIDTH 333 0
DWIDTH 9 0
BBX 7 19 1 -5
BITMAP
38
38
38
38
38
38
38
38
38
38
38
38
FE
FE
38
38
38
F8
F0
ENDCHAR
STARTCHAR uni0265
ENCODING 613
SWIDTH 611 0
DWIDTH 15 0
BBX 11 19 2 -5
BITMAP
E0E0
E0E0
E0E0
E0E0
E0E0
E0E0
E0E0
E0E0
E0E0
E0E0
E0E0
71E0
7FE0
1EE0
00E0
00E0
00E0
00E0
00E0
ENDCHAR
STARTCHAR uni0275
ENCODING 629
SWIDTH 611 0
DWIDTH 14 0
BBX 12 14 1 0
BITMAP
0F00
3FC0
79E0
70E0
E070
E070
FFF0
FFF0
E070
E070
70E0
79E0
3FC0
0F00
ENDCHAR
STARTCHAR uni0279
ENCODING 633
SWIDTH 389 0
DWIDTH 10 0
BBX 7 14 2 0
BITMAP
0E
0E
0E
0E
0E
0E
0E
0E
0E
0E
1E
FE
FE
EE
ENDCHAR
STARTCHAR uni0287
ENCODING 647
SWIDTH 333 0
DWIDTH 9 0
BBX 7 18 1 0
BITMAP
F0
F8
38
38
38
38
38
38
38
38
38
38
FE
FE
38
38
38
38
ENDCHAR
STARTCHAR uni0288
ENCODING 648
SWIDTH 333 0
DWIDTH 9 0
BBX 7 23 1 -5
BITMAP
38
38
38
38
FE
FE
38
38
38
38
38
38
38
38
38
38
38
38
38
38
38
3E
1E
ENDCHAR
STARTCHAR uni0289
ENCODING 649
SWIDTH 611 0
DWIDTH 15 0
BBX 11 14 2 0
BITMAP
E0E0
E0E0
E0E0
E0E0
E0E0
E0E0
FFE0
FFE0
E0E0
E0E0
E1E0
73E0
7EE0
1CE0
ENDCHAR
STARTCHAR uni028C
ENCODING 652
SWIDTH 556 0
DWIDTH 14 0
BBX 12 14 1 0
BITMAP
0F00
0F00
0F00
1F80
1F80
39C0
39C0
39C0
70E0
70E0
70E0
E070
E070
E070
ENDCHAR
STARTCHAR uni028D
ENCODING 653
SWIDTH 778 0
DWIDTH 19 0
BBX 19 14 0 0
BITMAP
0E0E00
0E0E00
0E0E00
1F1F00
1F1F00
1B1B00
3BBB80
33B980
31B180
71F1C0
71F1C0
60E0C0
E0E0E0
E0E0E0
ENDCHAR
STARTCHAR uni028E
ENCODING 654
SWIDTH 556 0
DWIDTH 15 0
BBX 13 19 1 0
BITMAP
01E0
03E0
0380
0700
0700
0E00
0E00
0F00
1F00
1F80
1F80
39C0
39C0
79E0
70E0
70F0
E070
E038
E038
ENDCHAR
STARTCHAR uni029E
ENCODING 670
SWIDTH 556 0
DWIDTH 14 0
BBX 11 19 2 -5
BITMAP
E0E0
F0E0
70E0
78E0
3CE0
1CE0
1EE0
0FE0
07E0
0FE0
1EE0
3CE0
78E0
70E0
00E0
00E0
00E0
00E0
00E0
ENDCHAR
STARTCHAR uni02BB
ENCODING 699
SWIDTH 278 0
DWIDTH 7 0
BBX 3 6 2 13
BITMAP
60
C0
C0
E0
E0
E0
ENDCHAR
STARTCHAR afii57929
ENCODING 700
SWIDTH 278 0
DWIDTH 7 0
BBX 3 6 2 13
BITMAP
E0
E0
E0
60
60
C0
ENDCHAR
STARTCHAR afii64937
ENCODING 701
SWIDTH 278 0
DWIDTH 7 0
BBX 3 6 2 13
BITMAP
E0
E0
E0
C0
C0
60
ENDCHAR
STARTCHAR circumflex
ENCODING 710
SWIDTH 333 0
DWIDTH 9 0
BBX 9 4 0 15
BITMAP
1C00
3E00
7700
E380
ENDCHAR
STARTCHAR caron
ENCODING 711
SWIDTH 333 0
DWIDTH 9 0
BBX 9 4 0 15
BITMAP
E380
7700
3E00
1C00
ENDCHAR
STARTCHAR uni02C8
ENCODING 712
SWIDTH 238 0
DWIDTH 6 0
BBX 2 6 2 13
BITMAP
C0
C0
C0
C0
C0
80
ENDCHAR
STARTCHAR macron
ENCODING 713
SWIDTH 333 0
DWIDTH 9 0
BBX 7 2 1 17
BITMAP
FE
FE
ENDCHAR
STARTCHAR uni02CA
ENCODING 714
SWIDTH 333 0
DWIDTH 8 0
BBX 6 4 1 15
BITMAP
1C
38
70
E0
ENDCHAR
STARTCHAR uni02CB
ENCODING 715
SWIDTH 333 0
DWIDTH 8 0
BBX 6 4 1 15
BITMAP
E0
70
38
1C
ENDCHAR
STARTCHAR uni02CD
ENCODING 717
SWIDTH 333 0
DWIDTH 9 0
BBX 7 2 1 -3
BITMAP
FE
FE
ENDCHAR
STARTCHAR uni02CE
ENCODING 718
SWIDTH 333 0
DWIDTH 8 0
BBX 6 4 1 -5
BITMAP
E0
70
38
1C
ENDCHAR
STARTCHAR uni02CF
ENCODING 719
SWIDTH 333 0
DWIDTH 8 0
BBX 6 4 1 -5
BITMAP
1C
38
70
E0
ENDCHAR
STARTCHAR breve
ENCODING 728
SWIDTH 333 0
DWIDTH 9 0
BBX 9 4 0 15
BITMAP
C180
E380
7F00
3E00
ENDCHAR
STARTCHAR dotaccent
ENCODING 729
SWIDTH 333 0
DWIDTH 7 0
BBX 3 2 2 16
BITMAP
E0
E0
ENDCHAR
STARTCHAR ring
ENCODING 730
SWIDTH 333 0
DWIDTH 7 0
BBX 5 5 1 14
BITMAP
70
F8
D8
F8
70
ENDCHAR
STARTCHAR ogonek
ENCODING 731
SWIDTH 333 0
DWIDTH 8 0
BBX 6 6 1 -5
BITMAP
3C
70
E0
E0
FC
78
ENDCHAR
STARTCHAR tilde
ENCODING 732
SWIDTH 333 0
DWIDTH 9 0
BBX 9 3 0 16
BITMAP
7980
FF80
CF00
ENDCHAR
STARTCHAR hungarumlaut
ENCODING 733
SWIDTH 333 0
DWIDTH 9 0
BBX 9 3 0 16
BITMAP
3B80
7700
EE00
ENDCHAR
STARTCHAR uni02EE
ENCODING 750
SWIDTH 500 0
DWIDTH 12 0
BBX 8 6 2 13
BITMAP
E7
E7
E7
63
63
C6
ENDCHAR
STARTCHAR uni037E
ENCODING 894
SWIDTH 333 0
DWIDTH 7 0
BBX 3 17 2 -3
BITMAP
E0
E0
E0
00
00
00
00
00
00
00
00
E0
E0
E0
60
60
C0
ENDCHAR
STARTCHAR tonos
ENCODING 900
SWIDTH 333 0
DWIDTH 8 0
BBX 6 4 1 15
BITMAP
1C
38
70
E0
ENDCHAR
STARTCHAR dieresistonos
ENCODING 901
SWIDTH 333 0
DWIDTH 9 0
BBX 7 7 1 16
BITMAP
0E
1C
38
70
00
EE
EE
ENDCHAR
STARTCHAR anoteleia
ENCODING 903
SWIDTH 278 0
DWIDTH 7 0
BBX 3 3 2 6
BITMAP
E0
E0
E0
ENDCHAR
STARTCHAR mu
ENCODING 956
SWIDTH 611 0
DWIDTH 15 0
BBX 11 19 2 -5
BITMAP
E0E0
E0E0
E0E0
E0E0
E0E0
E0E0
E0E0
E0E0
E0E0
E0E0
E1E0
F3E0
FEE0
ECE0
E000
E000
E000
E000
E000
ENDCHAR
STARTCHAR uni1E00
ENCODING 7680
SWIDTH 722 0
DWIDTH 18 0
BBX 16 25 1 -6
BITMAP
03C0
03C0
07E0
07E0
0E60
0E70
0E70
1C38
1C38
1C38
381C
381C
3FFC
7FFE
700E
700E
E007
E007
E007
0000
01C0
03E0
0360
03E0
01C0
ENDCHAR
STARTCHAR uni1E01
ENCODING 7681
SWIDTH 556 0
DWIDTH 14 0
BBX 12 20 1 -6
BITMAP
1F80
3FC0
71E0
70E0
00E0
07E0
3FE0
7CE0
F0E0
E0E0
E1E0
F3E0
7FF0
3E70
0000
0700
0F80
0D80
0F80
0700
ENDCHAR
STARTCHAR uni1E02
ENCODING 7682
SWIDTH 722 0
DWIDTH 18 0
BBX 15 22 2 0
BITMAP
0700
0700
0000
FFE0
FFF8
E078
E01C
E01C
E01C
E01C
E038
FFF0
FFF8
E01C
E00E
E00E
E00E
E00E
E01E
E07C
FFF8
FFE0
ENDCHAR
STARTCHAR uni1E03
ENCODING 7683
SWIDTH 611 0
DWIDTH 15 0
BBX 12 22 2 0
BITMAP
3800
3800
0000
E000
E000
E000
E000
E000
EF80
FFC0
F9E0
F0E0
E070
E070
E070
E070
E070
E070
F0E0
F9E0
FFC0
EF80
ENDCHAR
STARTCHAR uni1E04
ENCODING 7684
SWIDTH 722 0
DWIDTH 18 0
BBX 15 22 2 -3
BITMAP
FFE0
FFF8
E078
E01C
E01C
E01C
E01C
E038
FFF0
FFF8
E01C
E00E
E00E
E00E
E00E
E01E
E07C
FFF8
FFE0
0000
0380
0380
ENDCHAR
STARTCHAR uni1E05
ENCODING 7685
SWIDTH 611 0
DWIDTH 15 0
BBX 12 22 2 -3
BITMAP
E000
E000
E000
E000
E000
EF80
FFC0
F9E0
F0E0
E070
E070
E070
E070
E070
E070
F0E0
F9E0
FFC0
EF80
0000
0E00
0E00
ENDCHAR
STARTCHAR uni1E06
ENCODING 7686
SWIDTH 722 0
DWIDTH 18 0
BBX 15 22 2 -3
BITMAP
FFE0
FFF8
E078
E01C
E01C
E01C
E01C
E038
FFF0
FFF8
E01C
E00E
E00E
E00E
E00E
E01E
E07C
FFF8
FFE0
0000
0FE0
0FE0
ENDCHAR
STARTCHAR uni1E07
ENCODING 7687
SWIDTH 611 0
DWIDTH 15 0
BBX 12 22 2 -3
BITMAP
E000
E000
E000
E000
E000
EF80
FFC0
F9E0
F0E0
E070
E070
E070
E070
E070
E070
F0E0
F9E0
FFC0
EF80
0000
3F80
3F80
ENDCHAR
STARTCHAR uni1E08
ENCODING 7688
SWIDTH 722 0
DWIDTH 18 0
BBX 16 29 1 -5
BITMAP
00E0
01C0
0380
0700
0000
07F0
1FFC
3E3E
780F
7007
F000
E000
E000
E000
E000
E000
E000
E000
F007
7007
780F
3E3E
1FFC
07F0
03C0
00E0
00E0
07E0
03C0
ENDCHAR
STARTCHAR uni1E09
ENCODING 7689
SWIDTH 556 0
DWIDTH 13 0
BBX 11 24 1 -5
BITMAP
0380
0700
0E00
1C00
0000
1F80
3FC0
79E0
70E0
E000
E000
E000
E000
E000
E000
70E0
79E0
3FC0
1F80
1E00
0700
0700
3F00
1E00
ENDCHAR
STARTCHAR uni1E0A
ENCODING 7690
SWIDTH 722 0
DWIDTH 19 0
BBX 16 22 2 0
BITMAP
0380
0380
0000
FFE0
FFF8
E07C
E01E
E00E
E00F
E007
E007
E007
E007
E007
E007
E007
E00F
E00E
E01E
E07C
FFF8
FFE0
ENDCHAR
STARTCHAR uni1E0B
ENCODING 7691
SWIDTH 611 0
DWIDTH 15 0
BBX 12 22 1 0
BITMAP
00E0
00E0
0000
0070
0070
0070
0070
0070
1F70
3FF0
79F0
70F0
E070
E070
E070
E070
E070
E070
70F0
79F0
3FF0
1F70
ENDCHAR
STARTCHAR uni1E0C
ENCODING 7692
SWIDTH 722 0
DWIDTH 19 0
BBX 16 22 2 -3
BITMAP
FFE0
FFF8
E07C
E01E
E00E
E00F
E007
E007
E007
E007
E007
E007
E007
E00F
E00E
E01E
E07C
FFF8
FFE0
0000
0380
0380
ENDCHAR
STARTCHAR uni1E0D
ENCODING 7693
SWIDTH 611 0
DWIDTH 15 0
BBX 12 22 1 -3
BITMAP
0070
0070
0070
0070
0070
1F70
3FF0
79F0
70F0
E070
E070
E070
E070
E070
E070
70F0
79F0
3FF0
1F70
0000
0700
0700
ENDCHAR
STARTCHAR uni1E0E
ENCODING 7694
SWIDTH 722 0
DWIDTH 19 0
BBX 16 22 2 -3
BITMAP
FFE0
FFF8
E07C
E01E
E00E
E00F
E007
E007
E007
E007
E007
E007
E007
E00F
E00E
E01E
E07C
FFF8
FFE0
0000
0FE0
0FE0
ENDCHAR
STARTCHAR uni1E0F
ENCODING 7695
SWIDTH 611 0
DWIDTH 15 0
BBX 12 22 1 -3
BITMAP
0070
0070
0070
0070
0070
1F70
3FF0
79F0
70F0
E070
E070
E070
E070
E070
E070
70F0
79F0
3FF0
1F70
0000
1FC0
1FC0
ENDCHAR
STARTCHAR uni1E10
ENCODING 7696
SWIDTH 722 0
DWIDTH 19 0
BBX 16 24 2 -5
BITMAP
FFE0
FFF8
E07C
E01E
E00E
E00F
E007
E007
E007
E007
E007
E007
E007
E00F
E00E
E01E
E07C
FFF8
FFE0
0780
01C0
01C0
0FC0
0780
ENDCHAR
STARTCHAR uni1E11
ENCODING 7697
SWIDTH 611 0
DWIDTH 15 0
BBX 12 24 1 -5
BITMAP
0070
0070
0070
0070
0070
1F70
3FF0
79F0
70F0
E070
E070
E070
E070
E070
E070
70F0
79F0
3FF0
1F70
0780
01C0
01C0
0FC0
0780
ENDCHAR
STARTCHAR uni1E12
ENCODING 7698
SWIDTH 722 0
DWIDTH 19 0
BBX 16 24 2 -5
BITMAP
FFE0
FFF8
E07C
E01E
E00E
E00F
E007
E007
E007
E007
E007
E007
E007
E00F
E00E
E01E
E07C
FFF8
FFE0
0000
0380
07C0
0EE0
1C70
ENDCHAR
STARTCHAR uni1E13
ENCODING 7699
SWIDTH 611 0
DWIDTH 15 0
BBX 12 24 1 -5
BITMAP
0070
0070
0070
0070
0070
1F70
3FF0
79F0
70F0
E070
E070
E070
E070
E070
E070
70F0
79F0
3FF0
1F70
0000
0700
0F80
1DC0
38E0
ENDCHAR
STARTCHAR uni1E14
ENCODING 7700
SWIDTH 667 0
DWIDTH 16 0
BBX 13 27 2 0
BITMAP
3800
1C00
0E00
0700
0000
3F80
3F80
0000
FFF0
FFF0
E000
E000
E000
E000
E000
E000
FFE0
FFE0
E000
E000
E000
E000
E000
E000
E000
FFF8
FFF8
ENDCHAR
STARTCHAR uni1E15
ENCODING 7701
SWIDTH 556 0
DWIDTH 14 0
BBX 12 22 1 0
BITMAP
1C00
0E00
0700
0380
0000
1FC0
1FC0
0000
0F00
3FC0
79E0
70E0
E070
E070
FFF0
FFF0
E000
E000
7070
78F0
3FE0
0F80
ENDCHAR
STARTCHAR uni1E16
ENCODING 7702
SWIDTH 667 0
DWIDTH 16 0
BBX 13 27 2 0
BITMAP
01C0
0380
0700
0E00
0000
3F80
3F80
0000
FFF0
FFF0
E000
E000
E000
E000
E000
E000
FFE0
FFE0
E000
E000
E000
E000
E000
E000
E000
FFF8
FFF8
ENDCHAR
STARTCHAR uni1E17
ENCODING 7703
SWIDTH 556 0
DWIDTH 14 0
BBX 12 22 1 0
BITMAP
01C0
0380
0700
0E00
0000
1FC0
1FC0
0000
0F00
3FC0
79E0
70E0
E070
E070
FFF0
FFF0
E000
E000
7070
78F0
3FE0
0F80
ENDCHAR
STARTCHAR uni1E18
ENCODING 7704
SWIDTH 667 0
DWIDTH 16 0
BBX 13 24 2 -5
BITMAP
FFF0
FFF0
E000
E000
E000
E000
E000
E000
FFE0
FFE0
E000
E000
E000
E000
E000
E000
E000
FFF8
FFF8
0000
0E00
1F00
3B80
71C0
ENDCHAR
STARTCHAR uni1E19
ENCODING 7705
SWIDTH 556 0
DWIDTH 14 0
BBX 12 19 1 -5
BITMAP
0F00
3FC0
79E0
70E0
E070
E070
FFF0
FFF0
E000
E000
7070
78F0
3FE0
0F80
0000
0700
0F80
1DC0
38E0
ENDCHAR
STARTCHAR uni1E1A
ENCODING 7706
SWIDTH 667 0
DWIDTH 16 0
BBX 13 23 2 -4
BITMAP
FFF0
FFF0
E000
E000
E000
E000
E000
E000
FFE0
FFE0
E000
E000
E000
E000
E000
E000
E000
FFF8
FFF8
0000
3CC0
7FC0
6780
ENDCHAR
STARTCHAR uni1E1B
ENCODING 7707
SWIDTH 556 0
DWIDTH 14 0
BBX 12 18 1 -4
BITMAP
0F00
3FC0
79E0
70E0
E070
E070
FFF0
FFF0
E000
E000
7070
78F0
3FE0
0F80
0000
1E60
3FE0
33C0
ENDCHAR
STARTCHAR uni1E1C
ENCODING 7708
SWIDTH 667 0
DWIDTH 16 0
BBX 13 29 2 -5
BITMAP
60C0
71C0
3F80
1F00
0000
FFF0
FFF0
E000
E000
E000
E000
E000
E000
FFE0
FFE0
E000
E000
E000
E000
E000
E000
E000
FFF8
FFF8
0F00
0380
0380
1F80
0F00
ENDCHAR
STARTCHAR uni1E1D
ENCODING 7709
SWIDTH 556 0
DWIDTH 14 0
BBX 12 24 1 -5
BITMAP
3060
38E0
1FC0
0F80
0000
0F00
3FC0
79E0
70E0
E070
E070
FFF0
FFF0
E000
E000
7070
78F0
3FE0
0F80
0F00
0380
0380
1F80
0F00
ENDCHAR
STARTCHAR uni1E1E
ENCODING 7710
SWIDTH 611 0
DWIDTH 15 0
BBX 12 22 2 0
BITMAP
0E00
0E00
0000
FFF0
FFF0
E000
E000
E000
E000
E000
E000
FFE0
FFE0
E000
E000
E000
E000
E000
E000
E000
E000
E000
ENDCHAR
STARTCHAR uni1E1F
ENCODING 7711
SWIDTH 333 0
DWIDTH 9 0
BBX 7 22 1 0
BITMAP
38
38
00
1E
3E
38
38
38
FE
FE
38
38
38
38
38
38
38
38
38
38
38
38
ENDCHAR
STARTCHAR uni1E20
ENCODING 7712
SWIDTH 778 0
DWIDTH 19 0
BBX 17 22 1 0
BITMAP
07F000
07F000
000000
07F000
1FFC00
3E3E00
780F00
700700
F00000
E00000
E00000
E00000
E07F80
E07F80
E00380
E00380
F00380
700780
780F80
3E3F80
1FFB80
07F380
ENDCHAR
STARTCHAR uni1E21
ENCODING 7713
SWIDTH 611 0
DWIDTH 15 0
BBX 12 22 1 -5
BITMAP
1FC0
1FC0
0000
1F70
3FF0
79F0
70F0
E070
E070
E070
E070
E070
E070
70F0
79F0
3FF0
1F70
0070
E070
F0E0
7FE0
1F80
ENDCHAR
STARTCHAR uni1E22
ENCODING 7714
SWIDTH 722 0
DWIDTH 19 0
BBX 15 22 2 0
BITMAP
0380
0380
0000
E00E
E00E
E00E
E00E
E00E
E00E
E00E
E00E
FFFE
FFFE
E00E
E00E
E00E
E00E
E00E
E00E
E00E
E00E
E00E
ENDCHAR
STARTCHAR uni1E23
ENCODING 7715
SWIDTH 611 0
DWIDTH 15 0
BBX 11 22 2 0
BITMAP
7000
7000
0000
E000
E000
E000
E000
E000
EF00
FFC0
F1C0
E0E0
E0E0
E0E0
E0E0
E0E0
E0E0
E0E0
E0E0
E0E0
E0E0
E0E0
ENDCHAR
STARTCHAR uni1E24
ENCODING 7716
SWIDTH 722 0
DWIDTH 19 0
BBX 15 22 2 -3
BITMAP
E00E
E00E
E00E
E00E
E00E
E00E
E00E
E00E
FFFE
FFFE
E00E
E00E
E00E
E00E
E00E
E00E
E00E
E00E
E00E
0000
0380
0380
ENDCHAR
STARTCHAR uni1E25
ENCODING 7717
SWIDTH 611 0
DWIDTH 15 0
BBX 11 22 2 -3
BITMAP
E000
E000
E000
E000
E000
EF00
FFC0
F1C0
E0E0
E0E0
E0E0
E0E0
E0E0
E0E0
E0E0
E0E0
E0E0
E0E0
E0E0
0000
0E00
0E00
ENDCHAR
STARTCHAR uni1E26
ENCODING 7718
SWIDTH 722 0
DWIDTH 19 0
BBX 15 22 2 0
BITMAP
0EE0
0EE0
0000
E00E
E00E
E00E
E00E
E00E
E00E
E00E
E00E
FFFE
FFFE
E00E
E00E
E00E
E00E
E00E
E00E
E00E
E00E
E00E
ENDCHAR
STARTCHAR uni1E27
ENCODING 7719
SWIDTH 611 0
DWIDTH 15 0
BBX 12 22 1 0
BITMAP
EE00
EE00
0000
7000
7000
7000
7000
7000
7780
7FE0
78E0
7070
7070
7070
7070
7070
7070
7070
7070
7070
7070
7070
ENDCHAR
STARTCHAR uni1E28
ENCODING 7720
SWIDTH 722 0
DWIDTH 19 0
BBX 15 24 2 -5
BITMAP
E00E
E00E
E00E
E00E
E00E
E00E
E00E
E00E
FFFE
FFFE
E00E
E00E
E00E
E00E
E00E
E00E
E00E
E00E
E38E
03C0
00E0
00E0
07E0
03C0
ENDCHAR
STARTCHAR uni1E29
ENCODING 7721
SWIDTH 611 0
DWIDTH 15 0
BBX 11 24 2 -5
BITMAP
E000
E000
E000
E000
E000
EF00
FFC0
F1C0
E0E0
E0E0
E0E0
E0E0
E0E0
E0E0
E0E0
E0E0
E0E0
E0E0
EEE0
0F00
0380
0380
1F80
0F00
ENDCHAR
STARTCHAR uni1E2A
ENCODING 7722
SWIDTH 722 0
DWIDTH 19 0
BBX 15 24 2 -5
BITMAP
E00E
E00E
E00E
E00E
E00E
E00E
E00E
E00E
FFFE
FFFE
E00E
E00E
E00E
E00E
E00E
E00E
E00E
E00E
E00E
0000
1830
1C70
0FE0
07C0
ENDCHAR
STARTCHAR uni1E2B
ENCODING 7723
SWIDTH 611 0
DWIDTH 15 0
BBX 11 24 2 -5
BITMAP
E000
E000
E000
E000
E000
EF00
FFC0
F1C0
E0E0
E0E0
E0E0
E0E0
E0E0
E0E0
E0E0
E0E0
E0E0
E0E0
E0E0
0000
60C0
71C0
3F80
1F00
ENDCHAR
STARTCHAR uni1E2C
ENCODING 7724
SWIDTH 278 0
DWIDTH 7 0
BBX 9 23 -1 -4
BITMAP
1C00
1C00
1C00
1C00
1C00
1C00
1C00
1C00
1C00
1C00
1C00
1C00
1C00
1C00
1C00
1C00
1C00
1C00
1C00
0000
7980
FF80
CF00
ENDCHAR
STARTCHAR uni1E2D
ENCODING 7725
SWIDTH 278 0
DWIDTH 7 0
BBX 9 23 -1 -4
BITMAP
1C00
1C00
1C00
0000
0000
1C00
1C00
1C00
1C00
1C00
1C00
1C00
1C00
1C00
1C00
1C00
1C00
1C00
1C00
0000
7980
FF80
CF00
ENDCHAR
STARTCHAR uni1E2E
ENCODING 7726
SWIDTH 278 0
DWIDTH 7 0
BBX 7 28 0 0
BITMAP
0E
1C
38
70
00
EE
EE
00
00
38
38
38
38
38
38
38
38
38
38
38
38
38
38
38
38
38
38
38
ENDCHAR
STARTCHAR uni1E2F
ENCODING 7727
SWIDTH 278 0
DWIDTH 7 0
BBX 7 23 0 0
BITMAP
0E
1C
38
70
00
EE
EE
00
00
38
38
38
38
38
38
38
38
38
38
38
38
38
38
ENDCHAR
STARTCHAR uni1E30
ENCODING 7728
SWIDTH 722 0
DWIDTH 18 0
BBX 14 24 2 0
BITMAP
01C0
0380
0700
0E00
0000
E03C
E078
E0F0
E1E0
E3C0
E780
EF00
FE00
FE00
FF00
F780
E380
E1C0
E1E0
E0E0
E070
E078
E038
E03C
ENDCHAR
STARTCHAR uni1E31
ENCODING 7729
SWIDTH 556 0
DWIDTH 14 0
BBX 11 24 2 0
BITMAP
0E00
1C00
3800
7000
0000
E000
E000
E000
E000
E000
E1C0
E3C0
E780
EF00
FE00
FC00
FE00
EF00
E700
E780
E3C0
E1C0
E1E0
E0E0
ENDCHAR
STARTCHAR uni1E32
ENCODING 7730
SWIDTH 722 0
DWIDTH 18 0
BBX 14 22 2 -3
BITMAP
E03C
E078
E0F0
E1E0
E3C0
E780
EF00
FE00
FE00
FF00
F780
E380
E1C0
E1E0
E0E0
E070
E078
E038
E03C
0000
0700
0700
ENDCHAR
STARTCHAR uni1E33
ENCODING 7731
SWIDTH 556 0
DWIDTH 14 0
BBX 11 22 2 -3
BITMAP
E000
E000
E000
E000
E000
E1C0
E3C0
E780
EF00
FE00
FC00
FE00
EF00
E700
E780
E3C0
E1C0
E1E0
E0E0
0000
0E00
0E00
ENDCHAR
STARTCHAR uni1E34
ENCODING 7732
SWIDTH 722 0
DWIDTH 18 0
BBX 14 22 2 -3
BITMAP
E03C
E078
E0F0
E1E0
E3C0
E780
EF00
FE00
FE00
FF00
F780
E380
E1C0
E1E0
E0E0
E070
E078
E038
E03C
0000
1FC0
1FC0
ENDCHAR
STARTCHAR uni1E35
ENCODING 7733
SWIDTH 556 0
DWIDTH 14 0
BBX 11 22 2 -3
BITMAP
E000
E000
E000
E000
E000
E1C0
E3C0
E780
EF00
FE00
FC00
FE00
EF00
E700
E780
E3C0
E1C0
E1E0
E0E0
0000
3F80
3F80
ENDCHAR
STARTCHAR uni1E36
ENCODING 7734
SWIDTH 611 0
DWIDTH 15 0
BBX 12 22 2 -3
BITMAP
E000
E000
E000
E000
E000
E000
E000
E000
E000
E000
E000
E000
E000
E000
E000
E000
E000
FFF0
FFF0
0000
0E00
0E00
ENDCHAR
STARTCHAR uni1E37
ENCODING 7735
SWIDTH 278 0
DWIDTH 7 0
BBX 3 22 2 -3
BITMAP
E0
E0
E0
E0
E0
E0
E0
E0
E0
E0
E0
E0
E0
E0
E0
E0
E0
E0
E0
00
E0
E0
ENDCHAR
STARTCHAR uni1E38
ENCODING 7736
SWIDTH 611 0
DWIDTH 15 0
BBX 12 25 2 -3
BITMAP
FE00
FE00
0000
E000
E000
E000
E000
E000
E000
E000
E000
E000
E000
E000
E000
E000
E000
E000
E000
E000
FFF0
FFF0
0000
0E00
0E00
ENDCHAR
STARTCHAR uni1E39
ENCODING 7737
SWIDTH 278 0
DWIDTH 7 0
BBX 7 25 0 -3
BITMAP
FE
FE
00
38
38
38
38
38
38
38
38
38
38
38
38
38
38
38
38
38
38
38
00
38
38
ENDCHAR
STARTCHAR uni1E3A
ENCODING 7738
SWIDTH 611 0
DWIDTH 15 0
BBX 12 22 2 -3
BITMAP
E000
E000
E000
E000
E000
E000
E000
E000
E000
E000
E000
E000
E000
E000
E000
E000
E000
FFF0
FFF0
0000
3F80
3F80
ENDCHAR
STARTCHAR uni1E3B
ENCODING 7739
SWIDTH 278 0
DWIDTH 7 0
BBX 7 22 0 -3
BITMAP
38
38
38
38
38
38
38
38
38
38
38
38
38
38
38
38
38
38
38
00
FE
FE
ENDCHAR
STARTCHAR uni1E3C
ENCODING 7740
SWIDTH 611 0
DWIDTH 15 0
BBX 12 24 2 -5
BITMAP
E000
E000
E000
E000
E000
E000
E000
E000
E000
E000
E000
E000
E000
E000
E000
E000
E000
FFF0
FFF0
0000
0E00
1F00
3B80
71C0
ENDCHAR
STARTCHAR uni1E3D
ENCODING 7741
SWIDTH 278 0
DWIDTH 7 0
BBX 9 24 -1 -5
BITMAP
1C00
1C00
1C00
1C00
1C00
1C00
1C00
1C00
1C00
1C00
1C00
1C00
1C00
1C00
1C00
1C00
1C00
1C00
1C00
0000
1C00
3E00
7700
E380
ENDCHAR
STARTCHAR uni1E3E
ENCODING 7742
SWIDTH 833 0
DWIDTH 23 0
BBX 19 24 2 0
BITMAP
003800
007000
00E000
01C000
000000
E000E0
F001E0
F001E0
F803E0
F803E0
FC07E0
EC06E0
EE0EE0
E60CE0
E71CE0
E71CE0
E318E0
E3B8E0
E3B8E0
E1F0E0
E1F0E0
E0E0E0
E0E0E0
E0E0E0
ENDCHAR
STARTCHAR uni1E3F
ENCODING 7743
SWIDTH 889 0
DWIDTH 21 0
BBX 17 19 2 0
BITMAP
007000
00E000
01C000
038000
000000
EF3E00
FFFF00
F3E780
E1C380
E1C380
E1C380
E1C380
E1C380
E1C380
E1C380
E1C380
E1C380
E1C380
E1C380
ENDCHAR
STARTCHAR uni1E40
ENCODING 7744
SWIDTH 833 0
DWIDTH 23 0
BBX 19 22 2 0
BITMAP
00E000
00E000
000000
E000E0
F001E0
F001E0
F803E0
F803E0
FC07E0
EC06E0
EE0EE0
E60CE0
E71CE0
E71CE0
E318E0
E3B8E0
E3B8E0
E1F0E0
E1F0E0
E0E0E0
E0E0E0
E0E0E0
ENDCHAR
STARTCHAR uni1E41
ENCODING 7745
SWIDTH 889 0
DWIDTH 21 0
BBX 17 17 2 0
BITMAP
01C000
01C000
000000
EF3E00
FFFF00
F3E780
E1C380
E1C380
E1C380
E1C380
E1C380
E1C380
E1C380
E1C380
E1C380
E1C380
E1C380
ENDCHAR
STARTCHAR uni1E42
ENCODING 7746
SWIDTH 833 0
DWIDTH 23 0
BBX 19 22 2 -3
BITMAP
E000E0
F001E0
F001E0
F803E0
F803E0
FC07E0
EC06E0
EE0EE0
E60CE0
E71CE0
E71CE0
E318E0
E3B8E0
E3B8E0
E1F0E0
E1F0E0
E0E0E0
E0E0E0
E0E0E0
000000
00E000
00E000
ENDCHAR
STARTCHAR uni1E43
ENCODING 7747
SWIDTH 889 0
DWIDTH 21 0
BBX 17 17 2 -3
BITMAP
EF3E00
FFFF00
F3E780
E1C380
E1C380
E1C380
E1C380
E1C380
E1C380
E1C380
E1C380
E1C380
E1C380
E1C380
000000
01C000
01C000
ENDCHAR
STARTCHAR uni1E44
ENCODING 7748
SWIDTH 722 0
DWIDTH 19 0
BBX 15 22 2 0
BITMAP
0380
0380
0000
E00E
F00E
F00E
F80E
F80E
FC0E
EE0E
EE0E
E70E
E38E
E38E
E1CE
E0CE
E0EE
E07E
E03E
E03E
E01E
E00E
ENDCHAR
STARTCHAR uni1E45
ENCODING 7749
SWIDTH 611 0
DWIDTH 15 0
BBX 11 17 2 0
BITMAP
0E00
0E00
0000
EF80
FFC0
F1C0
E0E0
E0E0
E0E0
E0E0
E0E0
E0E0
E0E0
E0E0
E0E0
E0E0
E0E0
ENDCHAR
STARTCHAR uni1E46
ENCODING 7750
SWIDTH 722 0
DWIDTH 19 0
BBX 15 22 2 -3
BITMAP
E00E
F00E
F00E
F80E
F80E
FC0E
EE0E
EE0E
E70E
E38E
E38E
E1CE
E0CE
E0EE
E07E
E03E
E03E
E01E
E00E
0000
0380
0380
ENDCHAR
STARTCHAR uni1E47
ENCODING 7751
SWIDTH 611 0
DWIDTH 15 0
BBX 11 17 2 -3
BITMAP
EF80
FFC0
F1C0
E0E0
E0E0
E0E0
E0E0
E0E0
E0E0
E0E0
E0E0
E0E0
E0E0
E0E0
0000
0E00
0E00
ENDCHAR
STARTCHAR uni1E48
ENCODING 7752
SWIDTH 722 0
DWIDTH 19 0
BBX 15 22 2 -3
BITMAP
E00E
F00E
F00E
F80E
F80E
FC0E
EE0E
EE0E
E70E
E38E
E38E
E1CE
E0CE
E0EE
E07E
E03E
E03E
E01E
E00E
0000
0FE0
0FE0
ENDCHAR
STARTCHAR uni1E49
ENCODING 7753
SWIDTH 611 0
DWIDTH 15 0
BBX 11 17 2 -3
BITMAP
EF80
FFC0
F1C0
E0E0
E0E0
E0E0
E0E0
E0E0
E0E0
E0E0
E0E0
E0E0
E0E0
E0E0
0000
3F80
3F80
ENDCHAR
STARTCHAR uni1E4A
ENCODING 7754
SWIDTH 722 0
DWIDTH 19 0
BBX 15 24 2 -5
BITMAP
E00E
F00E
F00E
F80E
F80E
FC0E
EE0E
EE0E
E70E
E38E
E38E
E1CE
E0CE
E0EE
E07E
E03E
E03E
E01E
E00E
0000
0380
07C0
0EE0
1C70
ENDCHAR
STARTCHAR uni1E4B
ENCODING 7755
SWIDTH 611 0
DWIDTH 15 0
BBX 11 19 2 -5
BITMAP
EF80
FFC0
F1C0
E0E0
E0E0
E0E0
E0E0
E0E0
E0E0
E0E0
E0E0
E0E0
E0E0
E0E0
0000
0E00
1F00
3B80
71C0
ENDCHAR
STARTCHAR uni1E4C
ENCODING 7756
SWIDTH 778 0
DWIDTH 19 0
BBX 17 28 1 0
BITMAP
007000
00E000
01C000
038000
000000
079800
0FF800
0CF000
000000
07F000
1FFC00
3E3E00
780F00
700700
F00780
E00380
E00380
E00380
E00380
E00380
E00380
E00380
F00780
700700
780F00
3E3E00
1FFC00
07F000
ENDCHAR
STARTCHAR uni1E4D
ENCODING 7757
SWIDTH 611 0
DWIDTH 14 0
BBX 12 24 1 0
BITMAP
0380
0700
0E00
1C00
0000
3CC0
7FC0
6780
0000
0000
0F00
3FC0
79E0
70E0
E070
E070
E070
E070
E070
E070
70E0
79E0
3FC0
0F00
ENDCHAR
STARTCHAR uni1E4E
ENCODING 7758
SWIDTH 778 0
DWIDTH 19 0
BBX 17 26 1 0
BITMAP
077000
077000
000000
079800
0FF800
0CF000
000000
07F000
1FFC00
3E3E00
780F00
700700
F00780
E00380
E00380
E00380
E00380
E00380
E00380
E00380
F00780
700700
780F00
3E3E00
1FFC00
07F000
ENDCHAR
STARTCHAR uni1E4F
ENCODING 7759
SWIDTH 611 0
DWIDTH 14 0
BBX 12 22 1 0
BITMAP
3B80
3B80
0000
3CC0
7FC0
6780
0000
0000
0F00
3FC0
79E0
70E0
E070
E070
E070
E070
E070
E070
70E0
79E0
3FC0
0F00
ENDCHAR
STARTCHAR uni1E50
ENCODING 7760
SWIDTH 778 0
DWIDTH 19 0
BBX 17 27 1 0
BITMAP
070000
038000
01C000
00E000
000000
07F000
07F000
000000
07F000
1FFC00
3E3E00
780F00
700700
F00780
E00380
E00380
E00380
E00380
E00380
E00380
E00380
F00780
700700
780F00
3E3E00
1FFC00
07F000
ENDCHAR
STARTCHAR uni1E51
ENCODING 7761
SWIDTH 611 0
DWIDTH 14 0
BBX 12 22 1 0
BITMAP
1C00
0E00
0700
0380
0000
1FC0
1FC0
0000
0F00
3FC0
79E0
70E0
E070
E070
E070
E070
E070
E070
70E0
79E0
3FC0
0F00
ENDCHAR
STARTCHAR uni1E52
ENCODING 7762
SWIDTH 778 0
DWIDTH 19 0
BBX 17 27 1 0
BITMAP
007000
00E000
01C000
038000
000000
07F000
07F000
000000
07F000
1FFC00
3E3E00
780F00
700700
F00780
E00380
E00380
E00380
E00380
E00380
E00380
E00380
F00780
700700
780F00
3E3E00
1FFC00
07F000
ENDCHAR
STARTCHAR uni1E53
ENCODING 7763
SWIDTH 611 0
DWIDTH 14 0
BBX 12 22 1 0
BITMAP
01C0
0380
0700
0E00
0000
1FC0
1FC0
0000
0F00
3FC0
79E0
70E0
E070
E070
E070
E070
E070
E070
70E0
79E0
3FC0
0F00
ENDCHAR
STARTCHAR uni1E54
ENCODING 7764
SWIDTH 667 0
DWIDTH 17 0
BBX 14 24 2 0
BITMAP
01C0
0380
0700
0E00
0000
FFE0
FFF8
E038
E01C
E01C
E01C
E01C
E038
FFF8
FFF0
E000
E000
E000
E000
E000
E000
E000
E000
E000
ENDCHAR
STARTCHAR uni1E55
ENCODING 7765
SWIDTH 611 0
DWIDTH 15 0
BBX 12 24 2 -5
BITMAP
0380
0700
0E00
1C00
0000
EF80
FFC0
F9E0
F0E0
E070
E070
E070
E070
E070
E070
F0E0
F9E0
FFC0
EF80
E000
E000
E000
E000
E000
ENDCHAR
STARTCHAR uni1E56
ENCODING 7766
SWIDTH 667 0
DWIDTH 17 0
BBX 14 22 2 0
BITMAP
0700
0700
0000
FFE0
FFF8
E038
E01C
E01C
E01C
E01C
E038
FFF8
FFF0
E000
E000
E000
E000
E000
E000
E000
E000
E000
ENDCHAR
STARTCHAR uni1E57
ENCODING 7767
SWIDTH 611 0
DWIDTH 15 0
BBX 12 22 2 -5
BITMAP
0E00
0E00
0000
EF80
FFC0
F9E0
F0E0
E070
E070
E070
E070
E070
E070
F0E0
F9E0
FFC0
EF80
E000
E000
E000
E000
E000
ENDCHAR
STARTCHAR uni1E58
ENCODING 7768
SWIDTH 722 0
DWIDTH 17 0
BBX 14 22 2 0
BITMAP
0700
0700
0000
FFE0
FFF8
E038
E01C
E01C
E01C
E01C
E038
FFF8
FFF0
E078
E038
E01C
E01C
E01C
E01C
E01C
E01C
E01C
ENDCHAR
STARTCHAR uni1E59
ENCODING 7769
SWIDTH 389 0
DWIDTH 10 0
BBX 7 17 2 0
BITMAP
38
38
00
EE
FE
FE
F0
E0
E0
E0
E0
E0
E0
E0
E0
E0
E0
ENDCHAR
STARTCHAR uni1E5A
ENCODING 7770
SWIDTH 722 0
DWIDTH 17 0
BBX 14 22 2 -3
BITMAP
FFE0
FFF8
E038
E01C
E01C
E01C
E01C
E038
FFF8
FFF0
E078
E038
E01C
E01C
E01C
E01C
E01C
E01C
E01C
0000
0380
0380
ENDCHAR
STARTCHAR uni1E5B
ENCODING 7771
SWIDTH 389 0
DWIDTH 10 0
BBX 7 17 2 -3
BITMAP
EE
FE
FE
F0
E0
E0
E0
E0
E0
E0
E0
E0
E0
E0
00
70
70
ENDCHAR
STARTCHAR uni1E5C
ENCODING 7772
SWIDTH 722 0
DWIDTH 17 0
BBX 14 25 2 -3
BITMAP
1FC0
1FC0
0000
FFE0
FFF8
E038
E01C
E01C
E01C
E01C
E038
FFF8
FFF0
E078
E038
E01C
E01C
E01C
E01C
E01C
E01C
E01C
0000
0380
0380
ENDCHAR
STARTCHAR uni1E5D
ENCODING 7773
SWIDTH 389 0
DWIDTH 10 0
BBX 7 20 2 -3
BITMAP
FE
FE
00
EE
FE
FE
F0
E0
E0
E0
E0
E0
E0
E0
E0
E0
E0
00
70
70
ENDCHAR
STARTCHAR uni1E5E
ENCODING 7774
SWIDTH 722 0
DWIDTH 17 0
BBX 14 22 2 -3
BITMAP
FFE0
FFF8
E038
E01C
E01C
E01C
E01C
E038
FFF8
FFF0
E078
E038
E01C
E01C
E01C
E01C
E01C
E01C
E01C
0000
0FE0
0FE0
ENDCHAR
STARTCHAR uni1E5F
ENCODING 7775
SWIDTH 389 0
DWIDTH 10 0
BBX 8 17 1 -3
BITMAP
77
7F
7F
78
70
70
70
70
70
70
70
70
70
70
00
FE
FE
ENDCHAR
STARTCHAR uni1E60
ENCODING 7776
SWIDTH 667 0
DWIDTH 17 0
BBX 14 22 2 0
BITMAP
0700
0700
0000
0FC0
3FF0
78F8
F038
E038
E000
F000
7C00
3FC0
07F0
00F8
003C
001C
E01C
E01C
E03C
F8F8
7FF0
1FC0
ENDCHAR
STARTCHAR uni1E61
ENCODING 7777
SWIDTH 556 0
DWIDTH 13 0
BBX 11 17 1 0
BITMAP
0E00
0E00
0000
3F00
7F80
F3C0
E1C0
E000
FC00
7F80
0FC0
01E0
E0E0
E0E0
F1E0
7FC0
3F80
ENDCHAR
STARTCHAR uni1E62
ENCODING 7778
SWIDTH 667 0
DWIDTH 17 0
BBX 14 22 2 -3
BITMAP
0FC0
3FF0
78F8
F038
E038
E000
F000
7C00
3FC0
07F0
00F8
003C
001C
E01C
E01C
E03C
F8F8
7FF0
1FC0
0000
0700
0700
ENDCHAR
STARTCHAR uni1E63
ENCODING 7779
SWIDTH 556 0
DWIDTH 13 0
BBX 11 17 1 -3
BITMAP
3F00
7F80
F3C0
E1C0
E000
FC00
7F80
0FC0
01E0
E0E0
E0E0
F1E0
7FC0
3F80
0000
0E00
0E00
ENDCHAR
STARTCHAR uni1E64
ENCODING 7780
SWIDTH 667 0
DWIDTH 17 0
BBX 14 27 2 0
BITMAP
0380
0380
0000
00E0
01C0
0380
0700
0000
0FC0
3FF0
78F8
F038
E038
E000
F000
7C00
3FC0
07F0
00F8
003C
001C
E01C
E01C
E03C
F8F8
7FF0
1FC0
ENDCHAR
STARTCHAR uni1E65
ENCODING 7781
SWIDTH 556 0
DWIDTH 13 0
BBX 11 22 1 0
BITMAP
0E00
0E00
0000
0380
0700
0E00
1C00
0000
3F00
7F80
F3C0
E1C0
E000
FC00
7F80
0FC0
01E0
E0E0
E0E0
F1E0
7FC0
3F80
ENDCHAR
STARTCHAR uni1E66
ENCODING 7782
SWIDTH 667 0
DWIDTH 17 0
BBX 14 22 1 0
BITMAP
0380
0380
0000
1C70
0EE0
07C0
0380
0000
0FC0
3FF0
7878
7038
7800
7FC0
3FF0
0FFC
003C
E01C
E01C
787C
3FF8
1FE0
ENDCHAR
STARTCHAR uni1E67
ENCODING 7783
SWIDTH 556 0
DWIDTH 13 0
BBX 11 22 1 0
BITMAP
0E00
0E00
0000
71C0
3B80
1F00
0E00
0000
3F00
7F80
F3C0
E1C0
E000
FC00
7F80
0FC0
01E0
E0E0
E0E0
F1E0
7FC0
3F80
ENDCHAR
STARTCHAR uni1E68
ENCODING 7784
SWIDTH 667 0
DWIDTH 17 0
BBX 14 25 2 -3
BITMAP
0700
0700
0000
0FC0
3FF0
78F8
F038
E038
E000
F000
7C00
3FC0
07F0
00F8
003C
001C
E01C
E01C
E03C
F8F8
7FF0
1FC0
0000
0700
0700
ENDCHAR
STARTCHAR uni1E69
ENCODING 7785
SWIDTH 556 0
DWIDTH 13 0
BBX 11 20 1 -3
BITMAP
1C00
1C00
0000
3F00
7F80
F3C0
E1C0
E000
FC00
7F80
0FC0
01E0
E0E0
E0E0
F1E0
7FC0
3F80
0000
0E00
0E00
ENDCHAR
STARTCHAR uni1E6A
ENCODING 7786
SWIDTH 611 0
DWIDTH 15 0
BBX 15 22 0 0
BITMAP
0380
0380
0000
FFFE
FFFE
0380
0380
0380
0380
0380
0380
0380
0380
0380
0380
0380
0380
0380
0380
0380
0380
0380
ENDCHAR
STARTCHAR uni1E6B
ENCODING 7787
SWIDTH 333 0
DWIDTH 9 0
BBX 7 21 1 0
BITMAP
38
38
00
38
38
38
38
FE
FE
38
38
38
38
38
38
38
38
38
38
3E
1E
ENDCHAR
STARTCHAR uni1E6C
ENCODING 7788
SWIDTH 611 0
DWIDTH 15 0
BBX 15 22 0 -3
BITMAP
FFFE
FFFE
0380
0380
0380
0380
0380
0380
0380
0380
0380
0380
0380
0380
0380
0380
0380
0380
0380
0000
0380
0380
ENDCHAR
STARTCHAR uni1E6D
ENCODING 7789
SWIDTH 333 0
DWIDTH 9 0
BBX 7 21 1 -3
BITMAP
38
38
38
38
FE
FE
38
38
38
38
38
38
38
38
38
38
3E
1E
00
38
38
ENDCHAR
STARTCHAR uni1E6E
ENCODING 7790
SWIDTH 611 0
DWIDTH 15 0
BBX 15 22 0 -3
BITMAP
FFFE
FFFE
0380
0380
0380
0380
0380
0380
0380
0380
0380
0380
0380
0380
0380
0380
0380
0380
0380
0000
0FE0
0FE0
ENDCHAR
STARTCHAR uni1E6F
ENCODING 7791
SWIDTH 333 0
DWIDTH 9 0
BBX 7 21 1 -3
BITMAP
38
38
38
38
FE
FE
38
38
38
38
38
38
38
38
38
38
3E
1E
00
FE
FE
ENDCHAR
STARTCHAR uni1E70
ENCODING 7792
SWIDTH 611 0
DWIDTH 15 0
BBX 15 24 0 -5
BITMAP
FFFE
FFFE
0380
0380
0380
0380
0380
0380
0380
0380
0380
0380
0380
0380
0380
0380
0380
0380
0380
0000
0380
07C0
0EE0
1C70
ENDCHAR
STARTCHAR uni1E71
ENCODING 7793
SWIDTH 333 0
DWIDTH 9 0
BBX 9 23 0 -5
BITMAP
1C00
1C00
1C00
1C00
7F00
7F00
1C00
1C00
1C00
1C00
1C00
1C00
1C00
1C00
1C00
1C00
1F00
0F00
0000
1C00
3E00
7700
E380
ENDCHAR
STARTCHAR uni1E72
ENCODING 7794
SWIDTH 722 0
DWIDTH 19 0
BBX 15 22 2 -3
BITMAP
E00E
E00E
E00E
E00E
E00E
E00E
E00E
E00E
E00E
E00E
E00E
E00E
E00E
E00E
F01E
701C
7C7C
3FF8
0FE0
0000
0EE0
0EE0
ENDCHAR
STARTCHAR uni1E73
ENCODING 7795
SWIDTH 611 0
DWIDTH 15 0
BBX 11 17 2 -3
BITMAP
E0E0
E0E0
E0E0
E0E0
E0E0
E0E0
E0E0
E0E0
E0E0
E0E0
E1E0
73E0
7EE0
1CE0
0000
3B80
3B80
ENDCHAR
STARTCHAR uni1E74
ENCODING 7796
SWIDTH 722 0
DWIDTH 19 0
BBX 15 23 2 -4
BITMAP
E00E
E00E
E00E
E00E
E00E
E00E
E00E
E00E
E00E
E00E
E00E
E00E
E00E
E00E
F01E
701C
7C7C
3FF8
0FE0
0000
0F30
1FF0
19E0
ENDCHAR
STARTCHAR uni1E75
ENCODING 7797
SWIDTH 611 0
DWIDTH 15 0
BBX 11 18 2 -4
BITMAP
E0E0
E0E0
E0E0
E0E0
E0E0
E0E0
E0E0
E0E0
E0E0
E0E0
E1E0
73E0
7EE0
1CE0
0000
3CC0
7FC0
6780
ENDCHAR
STARTCHAR uni1E76
ENCODING 7798
SWIDTH 722 0
DWIDTH 19 0
BBX 15 24 2 -5
BITMAP
E00E
E00E
E00E
E00E
E00E
E00E
E00E
E00E
E00E
E00E
E00E
E00E
E00E
E00E
F01E
701C
7C7C
3FF8
0FE0
0000
0380
07C0
0EE0
1C70
ENDCHAR
STARTCHAR uni1E77
ENCODING 7799
SWIDTH 611 0
DWIDTH 15 0
BBX 11 19 2 -5
BITMAP
E0E0
E0E0
E0E0
E0E0
E0E0
E0E0
E0E0
E0E0
E0E0
E0E0
E1E0
73E0
7EE0
1CE0
0000
0E00
1F00
3B80
71C0
ENDCHAR
STARTCHAR uni1E78
ENCODING 7800
SWIDTH 722 0
DWIDTH 19 0
BBX 15 28 2 0
BITMAP
00E0
01C0
0380
0700
0000
0F30
1FF0
19E0
0000
E00E
E00E
E00E
E00E
E00E
E00E
E00E
E00E
E00E
E00E
E00E
E00E
E00E
E00E
F01E
701C
7C7C
3FF8
0FE0
ENDCHAR
STARTCHAR uni1E79
ENCODING 7801
SWIDTH 611 0
DWIDTH 15 0
BBX 11 23 2 0
BITMAP
0380
0700
0E00
1C00
0000
3CC0
7FC0
6780
0000
E0E0
E0E0
E0E0
E0E0
E0E0
E0E0
E0E0
E0E0
E0E0
E0E0
E1E0
73E0
7EE0
1CE0
ENDCHAR
STARTCHAR uni1E7A
ENCODING 7802
SWIDTH 722 0
DWIDTH 19 0
BBX 15 25 2 0
BITMAP
0EE0
0EE0
0000
0FE0
0FE0
0000
E00E
E00E
E00E
E00E
E00E
E00E
E00E
E00E
E00E
E00E
E00E
E00E
E00E
E00E
F01E
701C
7C7C
3FF8
0FE0
ENDCHAR
STARTCHAR uni1E7B
ENCODING 7803
SWIDTH 611 0
DWIDTH 15 0
BBX 11 20 2 0
BITMAP
3B80
3B80
0000
3F80
3F80
0000
E0E0
E0E0
E0E0
E0E0
E0E0
E0E0
E0E0
E0E0
E0E0
E0E0
E1E0
73E0
7EE0
1CE0
ENDCHAR
STARTCHAR uni1E7C
ENCODING 7804
SWIDTH 667 0
DWIDTH 18 0
BBX 16 23 1 0
BITMAP
0798
0FF8
0CF0
0000
E007
E007
F00F
700E
781E
381C
381C
3C3C
1C38
1C38
1E78
0E70
0E70
0E70
07E0
07E0
03C0
03C0
03C0
ENDCHAR
STARTCHAR uni1E7D
ENCODING 7805
SWIDTH 556 0
DWIDTH 14 0
BBX 12 18 1 0
BITMAP
1E60
3FE0
33C0
0000
E070
E070
E070
70E0
70E0
70E0
39C0
39C0
39C0
1F80
1F80
0F00
0F00
0F00
ENDCHAR
STARTCHAR uni1E7E
ENCODING 7806
SWIDTH 667 0
DWIDTH 18 0
BBX 16 22 1 -3
BITMAP
E007
E007
F00F
700E
781E
381C
381C
3C3C
1C38
1C38
1E78
0E70
0E70
0E70
07E0
07E0
03C0
03C0
03C0
0000
01C0
01C0
ENDCHAR
STARTCHAR uni1E7F
ENCODING 7807
SWIDTH 556 0
DWIDTH 14 0
BBX 12 17 1 -3
BITMAP
E070
E070
E070
70E0
70E0
70E0
39C0
39C0
39C0
1F80
1F80
0F00
0F00
0F00
0000
0700
0700
ENDCHAR
STARTCHAR Wgrave
ENCODING 7808
SWIDTH 944 0
DWIDTH 23 0
BBX 21 24 1 0
BITMAP
01C000
00E000
007000
003800
000000
E07038
E07038
E07038
E07038
70F870
70F870
70D870
71DC70
31DC60
39DCE0
398CE0
3B8EE0
1B8EC0
1B8EC0
1F07C0
1F07C0
0E0380
0E0380
0E0380
ENDCHAR
STARTCHAR wgrave
ENCODING 7809
SWIDTH 778 0
DWIDTH 19 0
BBX 19 19 0 0
BITMAP
038000
01C000
00E000
007000
000000
E0E0E0
E0E0E0
60E0C0
71F1C0
71F1C0
31B180
33B980
3BBB80
1B1B00
1F1F00
1F1F00
0E0E00
0E0E00
0E0E00
ENDCHAR
STARTCHAR Wacute
ENCODING 7810
SWIDTH 944 0
DWIDTH 23 0
BBX 21 24 1 0
BITMAP
001C00
003800
007000
00E000
000000
E07038
E07038
E07038
E07038
70F870
70F870
70D870
71DC70
31DC60
39DCE0
398CE0
3B8EE0
1B8EC0
1B8EC0
1F07C0
1F07C0
0E0380
0E0380
0E0380
ENDCHAR
STARTCHAR wacute
ENCODING 7811
SWIDTH 778 0
DWIDTH 19 0
BBX 19 19 0 0
BITMAP
003800
007000
00E000
01C000
000000
E0E0E0
E0E0E0
60E0C0
71F1C0
71F1C0
31B180
33B980
3BBB80
1B1B00
1F1F00
1F1F00
0E0E00
0E0E00
0E0E00
ENDCHAR
STARTCHAR Wdieresis
ENCODING 7812
SWIDTH 944 0
DWIDTH 23 0
BBX 21 22 1 0
BITMAP
01DC00
01DC00
000000
E07038
E07038
E07038
E07038
70F870
70F870
70D870
71DC70
31DC60
39DCE0
398CE0
3B8EE0
1B8EC0
1B8EC0
1F07C0
1F07C0
0E0380
0E0380
0E0380
ENDCHAR
STARTCHAR wdieresis
ENCODING 7813
SWIDTH 778 0
DWIDTH 19 0
BBX 19 17 0 0
BITMAP
03B800
03B800
000000
E0E0E0
E0E0E0
60E0C0
71F1C0
71F1C0
31B180
33B980
3BBB80
1B1B00
1F1F00
1F1F00
0E0E00
0E0E00
0E0E00
ENDCHAR
STARTCHAR uni1E86
ENCODING 7814
SWIDTH 944 0
DWIDTH 23 0
BBX 21 22 1 0
BITMAP
007000
007000
000000
E07038
E07038
E07038
E07038
70F870
70F870
70D870
71DC70
31DC60
39DCE0
398CE0
3B8EE0
1B8EC0
1B8EC0
1F07C0
1F07C0
0E0380
0E0380
0E0380
ENDCHAR
STARTCHAR uni1E87
ENCODING 7815
SWIDTH 778 0
DWIDTH 19 0
BBX 19 17 0 0
BITMAP
00E000
00E000
000000
E0E0E0
E0E0E0
60E0C0
71F1C0
71F1C0
31B180
33B980
3BBB80
1B1B00
1F1F00
1F1F00
0E0E00
0E0E00
0E0E00
ENDCHAR
STARTCHAR uni1E88
ENCODING 7816
SWIDTH 944 0
DWIDTH 23 0
BBX 21 22 1 -3
BITMAP
E07038
E07038
E07038
E07038
70F870
70F870
70D870
71DC70
31DC60
39DCE0
398CE0
3B8EE0
1B8EC0
1B8EC0
1F07C0
1F07C0
0E0380
0E0380
0E0380
000000
007000
007000
ENDCHAR
STARTCHAR uni1E89
ENCODING 7817
SWIDTH 778 0
DWIDTH 19 0
BBX 19 17 0 -3
BITMAP
E0E0E0
E0E0E0
60E0C0
71F1C0
71F1C0
31B180
33B980
3BBB80
1B1B00
1F1F00
1F1F00
0E0E00
0E0E00
0E0E00
000000
00E000
00E000
ENDCHAR
STARTCHAR uni1E8A
ENCODING 7818
SWIDTH 667 0
DWIDTH 18 0
BBX 16 22 1 0
BITMAP
01C0
01C0
0000
E007
F00F
781E
381C
1C38
0E70
0FF0
07E0
03C0
03C0
07E0
0FF0
0E70
1C38
3C3C
381C
700E
F00F
E007
ENDCHAR
STARTCHAR uni1E8B
ENCODING 7819
SWIDTH 556 0
DWIDTH 13 0
BBX 11 17 1 0
BITMAP
0E00
0E00
0000
E0E0
F1E0
71C0
3B80
3F80
1F00
0E00
1F00
1F00
3B80
7BC0
71C0
F1E0
E0E0
ENDCHAR
STARTCHAR uni1E8C
ENCODING 7820
SWIDTH 667 0
DWIDTH 18 0
BBX 16 22 1 0
BITMAP
0770
0770
0000
E007
F00F
781E
381C
1C38
0E70
0FF0
07E0
03C0
03C0
07E0
0FF0
0E70
1C38
3C3C
381C
700E
F00F
E007
ENDCHAR
STARTCHAR uni1E8D
ENCODING 7821
SWIDTH 556 0
DWIDTH 13 0
BBX 11 17 1 0
BITMAP
3B80
3B80
0000
E0E0
F1E0
71C0
3B80
3F80
1F00
0E00
1F00
1F00
3B80
7BC0
71C0
F1E0
E0E0
ENDCHAR
STARTCHAR uni1E8E
ENCODING 7822
SWIDTH 667 0
DWIDTH 17 0
BBX 15 22 1 0
BITMAP
0380
0380
0000
E00E
F00E
701C
781C
3838
3C38
1C70
1C70
0EE0
0EE0
07C0
07C0
0380
0380
0380
0380
0380
0380
0380
ENDCHAR
STARTCHAR uni1E8F
ENCODING 7823
SWIDTH 556 0
DWIDTH 15 0
BBX 13 22 1 -5
BITMAP
0700
0700
0000
E038
E038
7038
7870
3870
3CF0
1CE0
1CE0
0FC0
0FC0
07C0
0780
0380
0380
0700
0700
0E00
3E00
3C00
ENDCHAR
STARTCHAR uni1E90
ENCODING 7824
SWIDTH 611 0
DWIDTH 16 0
BBX 14 24 1 0
BITMAP
0380
07C0
0EE0
1C70
0000
FFFC
FFFC
003C
0078
00F0
01E0
01E0
03C0
0780
0780
0F00
1E00
1E00
3C00
3800
7800
F000
FFFC
FFFC
ENDCHAR
STARTCHAR uni1E91
ENCODING 7825
SWIDTH 500 0
DWIDTH 13 0
BBX 11 19 1 0
BITMAP
0E00
1F00
3B80
71C0
0000
FFE0
FFE0
01C0
0380
0780
0F00
0E00
1E00
3C00
3800
7000
F000
FFE0
FFE0
ENDCHAR
STARTCHAR uni1E92
ENCODING 7826
SWIDTH 611 0
DWIDTH 16 0
BBX 14 22 1 -3
BITMAP
FFFC
FFFC
003C
0078
00F0
01E0
01E0
03C0
0780
0780
0F00
1E00
1E00
3C00
3800
7800
F000
FFFC
FFFC
0000
0700
0700
ENDCHAR
STARTCHAR uni1E93
ENCODING 7827
SWIDTH 500 0
DWIDTH 13 0
BBX 11 17 1 -3
BITMAP
FFE0
FFE0
01C0
0380
0780
0F00
0E00
1E00
3C00
3800
7000
F000
FFE0
FFE0
0000
1C00
1C00
ENDCHAR
STARTCHAR uni1E94
ENCODING 7828
SWIDTH 611 0
DWIDTH 16 0
BBX 14 22 1 -3
BITMAP
FFFC
FFFC
003C
0078
00F0
01E0
01E0
03C0
0780
0780
0F00
1E00
1E00
3C00
3800
7800
F000
FFFC
FFFC
0000
1FC0
1FC0
ENDCHAR
STARTCHAR uni1E95
ENCODING 7829
SWIDTH 500 0
DWIDTH 13 0
BBX 11 17 1 -3
BITMAP
FFE0
FFE0
01C0
0380
0780
0F00
0E00
1E00
3C00
3800
7000
F000
FFE0
FFE0
0000
7F00
7F00
ENDCHAR
STARTCHAR uni1E96
ENCODING 7830
SWIDTH 611 0
DWIDTH 15 0
BBX 11 22 2 -3
BITMAP
E000
E000
E000
E000
E000
EF00
FFC0
F1C0
E0E0
E0E0
E0E0
E0E0
E0E0
E0E0
E0E0
E0E0
E0E0
E0E0
E0E0
0000
3F80
3F80
ENDCHAR
STARTCHAR uni1E97
ENCODING 7831
SWIDTH 333 0
DWIDTH 9 0
BBX 7 21 1 0
BITMAP
EE
EE
00
38
38
38
38
FE
FE
38
38
38
38
38
38
38
38
38
38
3E
1E
ENDCHAR
STARTCHAR uni1E98
ENCODING 7832
SWIDTH 778 0
DWIDTH 19 0
BBX 19 20 0 0
BITMAP
00E000
01F000
01B000
01F000
00E000
000000
E0E0E0
E0E0E0
60E0C0
71F1C0
71F1C0
31B180
33B980
3BBB80
1B1B00
1F1F00
1F1F00
0E0E00
0E0E00
0E0E00
ENDCHAR
STARTCHAR uni1E99
ENCODING 7833
SWIDTH 556 0
DWIDTH 15 0
BBX 13 25 1 -5
BITMAP
0700
0F80
0D80
0F80
0700
0000
E038
E038
7038
7870
3870
3CF0
1CE0
1CE0
0FC0
0FC0
07C0
0780
0380
0380
0700
0700
0E00
3E00
3C00
ENDCHAR
STARTCHAR uni1EA0
ENCODING 7840
SWIDTH 722 0
DWIDTH 18 0
BBX 16 22 1 -3
BITMAP
03C0
03C0
07E0
07E0
0E60
0E70
0E70
1C38
1C38
1C38
381C
381C
3FFC
7FFE
700E
700E
E007
E007
E007
0000
01C0
01C0
ENDCHAR
STARTCHAR uni1EA1
ENCODING 7841
SWIDTH 556 0
DWIDTH 14 0
BBX 12 17 1 -3
BITMAP
1F80
3FC0
71E0
70E0
00E0
07E0
3FE0
7CE0
F0E0
E0E0
E1E0
F3E0
7FF0
3E70
0000
0700
0700
ENDCHAR
STARTCHAR uni1EA4
ENCODING 7844
SWIDTH 722 0
DWIDTH 18 0
BBX 16 29 1 0
BITMAP
0070
00E0
01C0
0380
0000
01C0
03E0
0770
0E38
0000
03C0
03C0
07E0
07E0
0E60
0E70
0E70
1C38
1C38
1C38
381C
381C
3FFC
7FFE
700E
700E
E007
E007
E007
ENDCHAR
STARTCHAR uni1EA5
ENCODING 7845
SWIDTH 556 0
DWIDTH 14 0
BBX 12 24 1 0
BITMAP
01C0
0380
0700
0E00
0000
0700
0F80
1DC0
38E0
0000
1F80
3FC0
71E0
70E0
00E0
07E0
3FE0
7CE0
F0E0
E0E0
E1E0
F3E0
7FF0
3E70
ENDCHAR
STARTCHAR uni1EA6
ENCODING 7846
SWIDTH 722 0
DWIDTH 18 0
BBX 16 29 1 0
BITMAP
0700
0380
01C0
00E0
0000
01C0
03E0
0770
0E38
0000
03C0
03C0
07E0
07E0
0E60
0E70
0E70
1C38
1C38
1C38
381C
381C
3FFC
7FFE
700E
700E
E007
E007
E007
ENDCHAR
STARTCHAR uni1EA7
ENCODING 7847
SWIDTH 556 0
DWIDTH 14 0
BBX 12 24 1 0
BITMAP
1C00
0E00
0700
0380
0000
0700
0F80
1DC0
38E0
0000
1F80
3FC0
71E0
70E0
00E0
07E0
3FE0
7CE0
F0E0
E0E0
E1E0
F3E0
7FF0
3E70
ENDCHAR
STARTCHAR uni1EAA
ENCODING 7850
SWIDTH 722 0
DWIDTH 18 0
BBX 16 28 1 0
BITMAP
0798
0FF8
0CF0
0000
01C0
03E0
0770
0E38
0000
03C0
03C0
07E0
07E0
0E60
0E70
0E70
1C38
1C38
1C38
381C
381C
3FFC
7FFE
700E
700E
E007
E007
E007
ENDCHAR
STARTCHAR uni1EAB
ENCODING 7851
SWIDTH 556 0
DWIDTH 14 0
BBX 12 23 1 0
BITMAP
1E60
3FE0
33C0
0000
0700
0F80
1DC0
38E0
0000
1F80
3FC0
71E0
70E0
00E0
07E0
3FE0
7CE0
F0E0
E0E0
E1E0
F3E0
7FF0
3E70
ENDCHAR
STARTCHAR uni1EAC
ENCODING 7852
SWIDTH 722 0
DWIDTH 18 0
BBX 16 27 1 -3
BITMAP
0380
07C0
0EE0
1C70
0000
03C0
03C0
07E0
07E0
0E60
0E70
0E70
1C38
1C38
1C38
381C
381C
3FFC
7FFE
700E
700E
E007
E007
E007
0000
01C0
01C0
ENDCHAR
STARTCHAR uni1EAD
ENCODING 7853
SWIDTH 556 0
DWIDTH 14 0
BBX 12 22 1 -3
BITMAP
0700
0F80
1DC0
38E0
0000
1F80
3FC0
71E0
70E0
00E0
07E0
3FE0
7CE0
F0E0
E0E0
E1E0
F3E0
7FF0
3E70
0000
0700
0700
ENDCHAR
STARTCHAR uni1EAE
ENCODING 7854
SWIDTH 722 0
DWIDTH 18 0
BBX 16 29 1 0
BITMAP
00E0
01C0
0380
0700
0000
1830
1C70
0FE0
07C0
0000
03C0
03C0
07E0
07E0
0E60
0E70
0E70
1C38
1C38
1C38
381C
381C
3FFC
7FFE
700E
700E
E007
E007
E007
ENDCHAR
STARTCHAR uni1EAF
ENCODING 7855
SWIDTH 556 0
DWIDTH 14 0
BBX 12 24 1 0
BITMAP
01C0
0380
0700
0E00
0000
3060
38E0
1FC0
0F80
0000
1F80
3FC0
71E0
70E0
00E0
07E0
3FE0
7CE0
F0E0
E0E0
E1E0
F3E0
7FF0
3E70
ENDCHAR
STARTCHAR uni1EB0
ENCODING 7856
SWIDTH 722 0
DWIDTH 18 0
BBX 16 29 1 0
BITMAP
0E00
0700
0380
01C0
0000
1830
1C70
0FE0
07C0
0000
03C0
03C0
07E0
07E0
0E60
0E70
0E70
1C38
1C38
1C38
381C
381C
3FFC
7FFE
700E
700E
E007
E007
E007
ENDCHAR
STARTCHAR uni1EB1
ENCODING 7857
SWIDTH 556 0
DWIDTH 14 0
BBX 12 24 1 0
BITMAP
1C00
0E00
0700
0380
0000
3060
38E0
1FC0
0F80
0000
1F80
3FC0
71E0
70E0
00E0
07E0
3FE0
7CE0
F0E0
E0E0
E1E0
F3E0
7FF0
3E70
ENDCHAR
STARTCHAR uni1EB4
ENCODING 7860
SWIDTH 722 0
DWIDTH 18 0
BBX 16 28 1 0
BITMAP
0F30
1FF0
19E0
0000
1830
1C70
0FE0
07C0
0000
03C0
03C0
07E0
07E0
0E60
0E70
0E70
1C38
1C38
1C38
381C
381C
3FFC
7FFE
700E
700E
E007
E007
E007
ENDCHAR
STARTCHAR uni1EB5
ENCODING 7861
SWIDTH 556 0
DWIDTH 14 0
BBX 12 23 1 0
BITMAP
1E60
3FE0
33C0
0000
3060
38E0
1FC0
0F80
0000
1F80
3FC0
71E0
70E0
00E0
07E0
3FE0
7CE0
F0E0
E0E0
E1E0
F3E0
7FF0
3E70
ENDCHAR
STARTCHAR uni1EB6
ENCODING 7862
SWIDTH 722 0
DWIDTH 18 0
BBX 16 27 1 -3
BITMAP
1830
1C70
0FE0
07C0
0000
03C0
03C0
07E0
07E0
0E60
0E70
0E70
1C38
1C38
1C38
381C
381C
3FFC
7FFE
700E
700E
E007
E007
E007
0000
01C0
01C0
ENDCHAR
STARTCHAR uni1EB7
ENCODING 7863
SWIDTH 556 0
DWIDTH 14 0
BBX 12 22 1 -3
BITMAP
3060
38E0
1FC0
0F80
0000
1F80
3FC0
71E0
70E0
00E0
07E0
3FE0
7CE0
F0E0
E0E0
E1E0
F3E0
7FF0
3E70
0000
0700
0700
ENDCHAR
STARTCHAR uni1EB8
ENCODING 7864
SWIDTH 667 0
DWIDTH 16 0
BBX 13 22 2 -3
BITMAP
FFF0
FFF0
E000
E000
E000
E000
E000
E000
FFE0
FFE0
E000
E000
E000
E000
E000
E000
E000
FFF8
FFF8
0000
0E00
0E00
ENDCHAR
STARTCHAR uni1EB9
ENCODING 7865
SWIDTH 556 0
DWIDTH 14 0
BBX 12 17 1 -3
BITMAP
0F00
3FC0
79E0
70E0
E070
E070
FFF0
FFF0
E000
E000
7070
78F0
3FE0
0F80
0000
0700
0700
ENDCHAR
STARTCHAR uni1EBC
ENCODING 7868
SWIDTH 667 0
DWIDTH 16 0
BBX 13 23 2 0
BITMAP
3CC0
7FC0
6780
0000
FFF0
FFF0
E000
E000
E000
E000
E000
E000
FFE0
FFE0
E000
E000
E000
E000
E000
E000
E000
FFF8
FFF8
ENDCHAR
STARTCHAR uni1EBD
ENCODING 7869
SWIDTH 556 0
DWIDTH 14 0
BBX 12 18 1 0
BITMAP
1E60
3FE0
33C0
0000
0F00
3FC0
79E0
70E0
E070
E070
FFF0
FFF0
E000
E000
7070
78F0
3FE0
0F80
ENDCHAR
STARTCHAR uni1EBE
ENCODING 7870
SWIDTH 667 0
DWIDTH 16 0
BBX 13 29 2 0
BITMAP
01C0
0380
0700
0E00
0000
0700
0F80
1DC0
38E0
0000
FFF0
FFF0
E000
E000
E000
E000
E000
E000
FFE0
FFE0
E000
E000
E000
E000
E000
E000
E000
FFF8
FFF8
ENDCHAR
STARTCHAR uni1EBF
ENCODING 7871
SWIDTH 556 0
DWIDTH 14 0
BBX 12 24 1 0
BITMAP
01C0
0380
0700
0E00
0000
0700
0F80
1DC0
38E0
0000
0F00
3FC0
79E0
70E0
E070
E070
FFF0
FFF0
E000
E000
7070
78F0
3FE0
0F80
ENDCHAR
STARTCHAR uni1EC0
ENCODING 7872
SWIDTH 667 0
DWIDTH 16 0
BBX 13 29 2 0
BITMAP
1C00
0E00
0700
0380
0000
0700
0F80
1DC0
38E0
0000
FFF0
FFF0
E000
E000
E000
E000
E000
E000
FFE0
FFE0
E000
E000
E000
E000
E000
E000
E000
FFF8
FFF8
ENDCHAR
STARTCHAR uni1EC1
ENCODING 7873
SWIDTH 556 0
DWIDTH 14 0
BBX 12 24 1 0
BITMAP
1C00
0E00
0700
0380
0000
0700
0F80
1DC0
38E0
0000
0F00
3FC0
79E0
70E0
E070
E070
FFF0
FFF0
E000
E000
7070
78F0
3FE0
0F80
ENDCHAR
STARTCHAR uni1EC4
ENCODING 7876
SWIDTH 667 0
DWIDTH 16 0
BBX 13 28 2 0
BITMAP
1E60
3FE0
33C0
0000
0700
0F80
1DC0
38E0
0000
FFF0
FFF0
E000
E000
E000
E000
E000
E000
FFE0
FFE0
E000
E000
E000
E000
E000
E000
E000
FFF8
FFF8
ENDCHAR
STARTCHAR uni1EC5
ENCODING 7877
SWIDTH 556 0
DWIDTH 14 0
BBX 12 23 1 0
BITMAP
1E60
3FE0
33C0
0000
0700
0F80
1DC0
38E0
0000
0F00
3FC0
79E0
70E0
E070
E070
FFF0
FFF0
E000
E000
7070
78F0
3FE0
0F80
ENDCHAR
STARTCHAR uni1EC6
ENCODING 7878
SWIDTH 667 0
DWIDTH 16 0
BBX 13 27 2 -3
BITMAP
0E00
1F00
3B80
71C0
0000
FFF0
FFF0
E000
E000
E000
E000
E000
E000
FFE0
FFE0
E000
E000
E000
E000
E000
E000
E000
FFF8
FFF8
0000
0E00
0E00
ENDCHAR
STARTCHAR uni1EC7
ENCODING 7879
SWIDTH 556 0
DWIDTH 14 0
BBX 12 22 1 -3
BITMAP
0700
0F80
1DC0
38E0
0000
0F00
3FC0
79E0
70E0
E070
E070
FFF0
FFF0
E000
E000
7070
78F0
3FE0
0F80
0000
0700
0700
ENDCHAR
STARTCHAR uni1ECA
ENCODING 7882
SWIDTH 278 0
DWIDTH 7 0
BBX 3 22 2 -3
BITMAP
E0
E0
E0
E0
E0
E0
E0
E0
E0
E0
E0
E0
E0
E0
E0
E0
E0
E0
E0
00
E0
E0
ENDCHAR
STARTCHAR uni1ECB
ENCODING 7883
SWIDTH 278 0
DWIDTH 7 0
BBX 3 22 2 -3
BITMAP
E0
E0
E0
00
00
E0
E0
E0
E0
E0
E0
E0
E0
E0
E0
E0
E0
E0
E0
00
E0
E0
ENDCHAR
STARTCHAR uni1ECC
ENCODING 7884
SWIDTH 778 0
DWIDTH 19 0
BBX 17 22 1 -3
BITMAP
07F000
1FFC00
3E3E00
780F00
700700
F00780
E00380
E00380
E00380
E00380
E00380
E00380
E00380
F00780
700700
780F00
3E3E00
1FFC00
07F000
000000
01C000
01C000
ENDCHAR
STARTCHAR uni1ECD
ENCODING 7885
SWIDTH 611 0
DWIDTH 14 0
BBX 12 17 1 -3
BITMAP
0F00
3FC0
79E0
70E0
E070
E070
E070
E070
E070
E070
70E0
79E0
3FC0
0F00
0000
0700
0700
ENDCHAR
STARTCHAR uni1ED0
ENCODING 7888
SWIDTH 778 0
DWIDTH 19 0
BBX 17 29 1 0
BITMAP
007000
00E000
01C000
038000
000000
01C000
03E000
077000
0E3800
000000
07F000
1FFC00
3E3E00
780F00
700700
F00780
E00380
E00380
E00380
E00380
E00380
E00380
E00380
F00780
700700
780F00
3E3E00
1FFC00
07F000
ENDCHAR
STARTCHAR uni1ED1
ENCODING 7889
SWIDTH 611 0
DWIDTH 14 0
BBX 12 24 1 0
BITMAP
0380
0700
0E00
1C00
0000
0E00
1F00
3B80
71C0
0000
0F00
3FC0
79E0
70E0
E070
E070
E070
E070
E070
E070
70E0
79E0
3FC0
0F00
ENDCHAR
STARTCHAR uni1ED2
ENCODING 7890
SWIDTH 778 0
DWIDTH 19 0
BBX 17 29 1 0
BITMAP
070000
038000
01C000
00E000
000000
01C000
03E000
077000
0E3800
000000
07F000
1FFC00
3E3E00
780F00
700700
F00780
E00380
E00380
E00380
E00380
E00380
E00380
E00380
F00780
700700
780F00
3E3E00
1FFC00
07F000
ENDCHAR
STARTCHAR uni1ED3
ENCODING 7891
SWIDTH 611 0
DWIDTH 14 0
BBX 12 24 1 0
BITMAP
3800
1C00
0E00
0700
0000
0E00
1F00
3B80
71C0
0000
0F00
3FC0
79E0
70E0
E070
E070
E070
E070
E070
E070
70E0
79E0
3FC0
0F00
ENDCHAR
STARTCHAR uni1ED6
ENCODING 7894
SWIDTH 778 0
DWIDTH 19 0
BBX 17 28 1 0
BITMAP
079800
0FF800
0CF000
000000
01C000
03E000
077000
0E3800
000000
07F000
1FFC00
3E3E00
780F00
700700
F00780
E00380
E00380
E00380
E00380
E00380
E00380
E00380
F00780
700700
780F00
3E3E00
1FFC00
07F000
ENDCHAR
STARTCHAR uni1ED7
ENCODING 7895
SWIDTH 611 0
DWIDTH 14 0
BBX 12 23 1 0
BITMAP
3CC0
7FC0
6780
0000
0E00
1F00
3B80
71C0
0000
0F00
3FC0
79E0
70E0
E070
E070
E070
E070
E070
E070
70E0
79E0
3FC0
0F00
ENDCHAR
STARTCHAR uni1ED8
ENCODING 7896
SWIDTH 778 0
DWIDTH 19 0
BBX 17 27 1 -3
BITMAP
01C000
03E000
077000
0E3800
000000
07F000
1FFC00
3E3E00
780F00
700700
F00780
E00380
E00380
E00380
E00380
E00380
E00380
E00380
F00780
700700
780F00
3E3E00
1FFC00
07F000
000000
01C000
01C000
ENDCHAR
STARTCHAR uni1ED9
ENCODING 7897
SWIDTH 611 0
DWIDTH 14 0
BBX 12 22 1 -3
BITMAP
0700
0F80
1DC0
38E0
0000
0F00
3FC0
79E0
70E0
E070
E070
E070
E070
E070
E070
70E0
79E0
3FC0
0F00
0000
0700
0700
ENDCHAR
STARTCHAR uni1EDA
ENCODING 7898
SWIDTH 778 0
DWIDTH 19 0
BBX 18 24 1 0
BITMAP
001C00
003800
007000
00E000
000000
07F1C0
1FFDC0
3E3FC0
780FC0
7007C0
F00780
E00380
E00380
E00380
E00380
E00380
E00380
E00380
F00780
700700
780F00
3E3E00
1FFC00
07F000
ENDCHAR
STARTCHAR uni1EDB
ENCODING 7899
SWIDTH 611 0
DWIDTH 14 0
BBX 14 19 1 0
BITMAP
00E0
01C0
0380
0700
0000
0F1C
3FDC
79FC
70EC
E07C
E078
E070
E070
E070
E070
70E0
79E0
3FC0
0F00
ENDCHAR
STARTCHAR uni1EDC
ENCODING 7900
SWIDTH 778 0
DWIDTH 19 0
BBX 18 24 1 0
BITMAP
038000
01C000
00E000
007000
000000
07F1C0
1FFDC0
3E3FC0
780FC0
7007C0
F00780
E00380
E00380
E00380
E00380
E00380
E00380
E00380
F00780
700700
780F00
3E3E00
1FFC00
07F000
ENDCHAR
STARTCHAR uni1EDD
ENCODING 7901
SWIDTH 611 0
DWIDTH 14 0
BBX 14 19 1 0
BITMAP
0E00
0700
0380
01C0
0000
0F1C
3FDC
79FC
70EC
E07C
E078
E070
E070
E070
E070
70E0
79E0
3FC0
0F00
ENDCHAR
STARTCHAR uni1EE0
ENCODING 7904
SWIDTH 778 0
DWIDTH 19 0
BBX 18 23 1 0
BITMAP
01E600
03FE00
033C00
000000
07F1C0
1FFDC0
3E3FC0
780FC0
7007C0
F00780
E00380
E00380
E00380
E00380
E00380
E00380
E00380
F00780
700700
780F00
3E3E00
1FFC00
07F000
ENDCHAR
STARTCHAR uni1EE1
ENCODING 7905
SWIDTH 611 0
DWIDTH 14 0
BBX 14 18 1 0
BITMAP
0F30
1FF0
19E0
0000
0F1C
3FDC
79FC
70EC
E07C
E078
E070
E070
E070
E070
70E0
79E0
3FC0
0F00
ENDCHAR
STARTCHAR uni1EE2
ENCODING 7906
SWIDTH 778 0
DWIDTH 19 0
BBX 18 22 1 -3
BITMAP
07F1C0
1FFDC0
3E3FC0
780FC0
7007C0
F00780
E00380
E00380
E00380
E00380
E00380
E00380
E00380
F00780
700700
780F00
3E3E00
1FFC00
07F000
000000
01C000
01C000
ENDCHAR
STARTCHAR uni1EE3
ENCODING 7907
SWIDTH 611 0
DWIDTH 14 0
BBX 14 17 1 -3
BITMAP
0F1C
3FDC
79FC
70EC
E07C
E078
E070
E070
E070
E070
70E0
79E0
3FC0
0F00
0000
0700
0700
ENDCHAR
STARTCHAR uni1EE4
ENCODING 7908
SWIDTH 722 0
DWIDTH 19 0
BBX 15 22 2 -3
BITMAP
E00E
E00E
E00E
E00E
E00E
E00E
E00E
E00E
E00E
E00E
E00E
E00E
E00E
E00E
F01E
701C
7C7C
3FF8
0FE0
0000
0380
0380
ENDCHAR
STARTCHAR uni1EE5
ENCODING 7909
SWIDTH 611 0
DWIDTH 15 0
BBX 11 17 2 -3
BITMAP
E0E0
E0E0
E0E0
E0E0
E0E0
E0E0
E0E0
E0E0
E0E0
E0E0
E1E0
73E0
7EE0
1CE0
0000
0E00
0E00
ENDCHAR
STARTCHAR uni1EE8
ENCODING 7912
SWIDTH 722 0
DWIDTH 19 0
BBX 17 24 2 0
BITMAP
003800
007000
00E000
01C000
000000
E00F80
E00F80
E00F80
E00F80
E00F80
E00F00
E00E00
E00E00
E00E00
E00E00
E00E00
E00E00
E00E00
E00E00
F01E00
701C00
7C7C00
3FF800
0FE000
ENDCHAR
STARTCHAR uni1EE9
ENCODING 7913
SWIDTH 611 0
DWIDTH 15 0
BBX 13 19 2 0
BITMAP
00E0
01C0
0380
0700
0000
E0F8
E0F8
E0F8
E0F8
E0F8
E0F0
E0E0
E0E0
E0E0
E0E0
E1E0
73E0
7EE0
1CE0
ENDCHAR
STARTCHAR uni1EEA
ENCODING 7914
SWIDTH 722 0
DWIDTH 19 0
BBX 17 24 2 0
BITMAP
038000
01C000
00E000
007000
000000
E00F80
E00F80
E00F80
E00F80
E00F80
E00F00
E00E00
E00E00
E00E00
E00E00
E00E00
E00E00
E00E00
E00E00
F01E00
701C00
7C7C00
3FF800
0FE000
ENDCHAR
STARTCHAR uni1EEB
ENCODING 7915
SWIDTH 611 0
DWIDTH 15 0
BBX 13 19 2 0
BITMAP
1C00
0E00
0700
0380
0000
E0F8
E0F8
E0F8
E0F8
E0F8
E0F0
E0E0
E0E0
E0E0
E0E0
E1E0
73E0
7EE0
1CE0
ENDCHAR
STARTCHAR uni1EEE
ENCODING 7918
SWIDTH 722 0
DWIDTH 19 0
BBX 17 23 2 0
BITMAP
03CC00
07FC00
067800
000000
E00F80
E00F80
E00F80
E00F80
E00F80
E00F00
E00E00
E00E00
E00E00
E00E00
E00E00
E00E00
E00E00
E00E00
F01E00
701C00
7C7C00
3FF800
0FE000
ENDCHAR
STARTCHAR uni1EEF
ENCODING 7919
SWIDTH 611 0
DWIDTH 15 0
BBX 13 18 2 0
BITMAP
0F30
1FF0
19E0
0000
E0F8
E0F8
E0F8
E0F8
E0F8
E0F0
E0E0
E0E0
E0E0
E0E0
E1E0
73E0
7EE0
1CE0
ENDCHAR
STARTCHAR uni1EF0
ENCODING 7920
SWIDTH 722 0
DWIDTH 19 0
BBX 17 22 2 -3
BITMAP
E00F80
E00F80
E00F80
E00F80
E00F80
E00F00
E00E00
E00E00
E00E00
E00E00
E00E00
E00E00
E00E00
E00E00
F01E00
701C00
7C7C00
3FF800
0FE000
000000
038000
038000
ENDCHAR
STARTCHAR uni1EF1
ENCODING 7921
SWIDTH 611 0
DWIDTH 15 0
BBX 13 17 2 -3
BITMAP
E0F8
E0F8
E0F8
E0F8
E0F8
E0F0
E0E0
E0E0
E0E0
E0E0
E1E0
73E0
7EE0
1CE0
0000
0700
0700
ENDCHAR
STARTCHAR Ygrave
ENCODING 7922
SWIDTH 667 0
DWIDTH 17 0
BBX 15 24 1 0
BITMAP
0E00
0700
0380
01C0
0000
E00E
F00E
701C
781C
3838
3C38
1C70
1C70
0EE0
0EE0
07C0
07C0
0380
0380
0380
0380
0380
0380
0380
ENDCHAR
STARTCHAR ygrave
ENCODING 7923
SWIDTH 556 0
DWIDTH 15 0
BBX 13 24 1 -5
BITMAP
1C00
0E00
0700
0380
0000
E038
E038
7038
7870
3870
3CF0
1CE0
1CE0
0FC0
0FC0
07C0
0780
0380
0380
0700
0700
0E00
3E00
3C00
ENDCHAR
STARTCHAR uni1EF4
ENCODING 7924
SWIDTH 667 0
DWIDTH 17 0
BBX 15 22 1 -3
BITMAP
E00E
F00E
701C
781C
3838
3C38
1C70
1C70
0EE0
0EE0
07C0
07C0
0380
0380
0380
0380
0380
0380
0380
0000
0380
0380
ENDCHAR
STARTCHAR uni1EF5
ENCODING 7925
SWIDTH 556 0
DWIDTH 15 0
BBX 13 22 1 -8
BITMAP
E038
E038
7038
7870
3870
3CF0
1CE0
1CE0
0FC0
0FC0
07C0
0780
0380
0380
0700
0700
0E00
3E00
3C00
0000
0E00
0E00
ENDCHAR
STARTCHAR uni1EF8
ENCODING 7928
SWIDTH 667 0
DWIDTH 17 0
BBX 15 23 1 0
BITMAP
0F30
1FF0
19E0
0000
E00E
F00E
701C
781C
3838
3C38
1C70
1C70
0EE0
0EE0
07C0
07C0
0380
0380
0380
0380
0380
0380
0380
ENDCHAR
STARTCHAR uni1EF9
ENCODING 7929
SWIDTH 556 0
DWIDTH 15 0
BBX 13 23 1 -5
BITMAP
1E60
3FE0
33C0
0000
E038
E038
7038
7870
3870
3CF0
1CE0
1CE0
0FC0
0FC0
07C0
0780
0380
0380
0700
0700
0E00
3E00
3C00
ENDCHAR
STARTCHAR uni2000
ENCODING 8192
SWIDTH 500 0
DWIDTH 13 0
BBX 1 1 0 0
BITMAP
00
ENDCHAR
STARTCHAR uni2001
ENCODING 8193
SWIDTH 1000 0
DWIDTH 25 0
BBX 1 1 0 0
BITMAP
00
ENDCHAR
STARTCHAR uni2002
ENCODING 8194
SWIDTH 500 0
DWIDTH 13 0
BBX 1 1 0 0
BITMAP
00
ENDCHAR
STARTCHAR uni2003
ENCODING 8195
SWIDTH 1000 0
DWIDTH 25 0
BBX 1 1 0 0
BITMAP
00
ENDCHAR
STARTCHAR uni2004
ENCODING 8196
SWIDTH 333 0
DWIDTH 8 0
BBX 1 1 0 0
BITMAP
00
ENDCHAR
STARTCHAR uni2005
ENCODING 8197
SWIDTH 250 0
DWIDTH 6 0
BBX 1 1 0 0
BITMAP
00
ENDCHAR
STARTCHAR uni2006
ENCODING 8198
SWIDTH 167 0
DWIDTH 4 0
BBX 1 1 0 0
BITMAP
00
ENDCHAR
STARTCHAR uni2007
ENCODING 8199
SWIDTH 556 0
DWIDTH 13 0
BBX 1 1 0 0
BITMAP
00
ENDCHAR
STARTCHAR uni2008
ENCODING 8200
SWIDTH 278 0
DWIDTH 7 0
BBX 1 1 0 0
BITMAP
00
ENDCHAR
STARTCHAR uni2009
ENCODING 8201
SWIDTH 200 0
DWIDTH 5 0
BBX 1 1 0 0
BITMAP
00
ENDCHAR
STARTCHAR uni200A
ENCODING 8202
SWIDTH 100 0
DWIDTH 3 0
BBX 1 1 0 0
BITMAP
00
ENDCHAR
STARTCHAR uni200B
ENCODING 8203
SWIDTH 0 0
DWIDTH 0 0
BBX 1 1 0 0
BITMAP
00
ENDCHAR
STARTCHAR uni2010
ENCODING 8208
SWIDTH 333 0
DWIDTH 8 0
BBX 7 3 0 6
BITMAP
FE
FE
FE
ENDCHAR
STARTCHAR uni2011
ENCODING 8209
SWIDTH 333 0
DWIDTH 8 0
BBX 7 3 0 6
BITMAP
FE
FE
FE
ENDCHAR
STARTCHAR figuredash
ENCODING 8210
SWIDTH 556 0
DWIDTH 14 0
BBX 14 2 0 6
BITMAP
FFFC
FFFC
ENDCHAR
STARTCHAR endash
ENCODING 8211
SWIDTH 556 0
DWIDTH 14 0
BBX 14 2 0 6
BITMAP
FFFC
FFFC
ENDCHAR
STARTCHAR emdash
ENCODING 8212
SWIDTH 1000 0
DWIDTH 25 0
BBX 25 2 0 6
BITMAP
FFFFFF80
FFFFFF80
ENDCHAR
STARTCHAR afii00208
ENCODING 8213
SWIDTH 1000 0
DWIDTH 25 0
BBX 25 2 0 6
BITMAP
FFFFFF80
FFFFFF80
ENDCHAR
STARTCHAR quoteleft
ENCODING 8216
SWIDTH 278 0
DWIDTH 7 0
BBX 3 6 2 13
BITMAP
60
C0
C0
E0
E0
E0
ENDCHAR
STARTCHAR quoteright
ENCODING 8217
SWIDTH 278 0
DWIDTH 7 0
BBX 3 6 2 13
BITMAP
E0
E0
E0
60
60
C0
ENDCHAR
STARTCHAR quotesinglbase
ENCODING 8218
SWIDTH 278 0
DWIDTH 7 0
BBX 4 6 1 -3
BITMAP
70
70
70
30
30
E0
ENDCHAR
STARTCHAR quotereversed
ENCODING 8219
SWIDTH 278 0
DWIDTH 7 0
BBX 3 6 2 13
BITMAP
E0
E0
E0
C0
C0
60
ENDCHAR
STARTCHAR quotedblleft
ENCODING 8220
SWIDTH 500 0
DWIDTH 12 0
BBX 8 6 2 13
BITMAP
63
C6
C6
E7
E7
E7
ENDCHAR
STARTCHAR quotedblright
ENCODING 8221
SWIDTH 500 0
DWIDTH 12 0
BBX 8 6 2 13
BITMAP
E7
E7
E7
63
63
C6
ENDCHAR
STARTCHAR quotedblbase
ENCODING 8222
SWIDTH 500 0
DWIDTH 12 0
BBX 9 6 1 -3
BITMAP
7380
7380
7380
3180
3180
E300
ENDCHAR
STARTCHAR uni201F
ENCODING 8223
SWIDTH 500 0
DWIDTH 12 0
BBX 8 6 2 13
BITMAP
E7
E7
E7
C6
C6
63
ENDCHAR
STARTCHAR dagger
ENCODING 8224
SWIDTH 556 0
DWIDTH 14 0
BBX 13 24 0 -5
BITMAP
0700
0700
0700
0700
0700
FFF8
FFF8
0700
0700
0700
0700
0700
0700
0700
0700
0700
0700
0700
0700
0700
0700
0700
0700
0700
ENDCHAR
STARTCHAR daggerdbl
ENCODING 8225
SWIDTH 556 0
DWIDTH 14 0
BBX 13 24 0 -5
BITMAP
0700
0700
0700
0700
0700
FFF8
FFF8
0700
0700
0700
0700
0700
0700
0700
0700
0700
0700
FFF8
FFF8
0700
0700
0700
0700
0700
ENDCHAR
STARTCHAR bullet
ENCODING 8226
SWIDTH 350 0
DWIDTH 9 0
BBX 5 5 2 5
BITMAP
70
F8
F8
F8
70
ENDCHAR
STARTCHAR ellipsis
ENCODING 8230
SWIDTH 1000 0
DWIDTH 25 0
BBX 19 3 3 0
BITMAP
E0E0E0
E0E0E0
E0E0E0
ENDCHAR
STARTCHAR perthousand
ENCODING 8240
SWIDTH 1000 0
DWIDTH 25 0
BBX 24 18 0 0
BITMAP
001C00
381C00
7C3800
EE3800
C67000
C67000
EEE000
7CE000
39C000
01C000
039C1C
03BE3E
077777
076363
0E6363
0E7777
1C3E3E
1C1C1C
ENDCHAR
STARTCHAR guilsinglleft
ENCODING 8249
SWIDTH 333 0
DWIDTH 8 0
BBX 6 8 1 3
BITMAP
1C
38
70
E0
E0
70
38
1C
ENDCHAR
STARTCHAR guilsinglright
ENCODING 8250
SWIDTH 333 0
DWIDTH 8 0
BBX 6 8 1 3
BITMAP
E0
70
38
1C
1C
38
70
E0
ENDCHAR
STARTCHAR fraction
ENCODING 8260
SWIDTH 167 0
DWIDTH 8 0
BBX 10 18 -1 0
BITMAP
00C0
00C0
0180
0180
0300
0300
0600
0600
0C00
0C00
1800
1800
3000
3000
6000
6000
C000
C000
ENDCHAR
STARTCHAR oneinferior
ENCODING 8321
SWIDTH 333 0
DWIDTH 7 0
BBX 4 10 1 -5
BITMAP
30
30
F0
F0
30
30
30
30
30
30
ENDCHAR
STARTCHAR twoinferior
ENCODING 8322
SWIDTH 333 0
DWIDTH 7 0
BBX 6 10 0 -5
BITMAP
78
FC
CC
0C
1C
78
E0
C0
FC
FC
ENDCHAR
STARTCHAR threeinferior
ENCODING 8323
SWIDTH 333 0
DWIDTH 7 0
BBX 6 10 0 -5
BITMAP
78
FC
CC
0C
38
38
0C
CC
FC
78
ENDCHAR
STARTCHAR uni20A5
ENCODING 8357
SWIDTH 889 0
DWIDTH 21 0
BBX 17 19 2 -2
BITMAP
003000
003000
003000
EF7E00
FFFF00
F3E780
E1C380
E1C380
E1C380
E1C380
E1C380
E1C380
E1C380
E3C380
E3C380
E3C380
E7C380
060000
060000
ENDCHAR
STARTCHAR uni20A6
ENCODING 8358
SWIDTH 722 0
DWIDTH 19 0
BBX 15 19 2 0
BITMAP
E00E
F00E
F00E
F80E
F80E
FC0E
EE0E
FFFE
FFFE
E38E
FFFE
FFFE
E0CE
E0EE
E07E
E03E
E03E
E01E
E00E
ENDCHAR
STARTCHAR uni20A9
ENCODING 8361
SWIDTH 944 0
DWIDTH 23 0
BBX 21 19 1 0
BITMAP
E07038
E07038
E07038
E07038
70F870
70F870
70D870
73FF70
33FF60
39DCE0
3BFFE0
3BFFE0
1B8EC0
1B8EC0
1F07C0
1F07C0
0E0380
0E0380
0E0380
ENDCHAR
STARTCHAR Euro
ENCODING 8364
SWIDTH 722 0
DWIDTH 18 0
BBX 18 19 -1 0
BITMAP
01FC00
07FF00
0F8F80
1E03C0
1C01C0
3C0000
380000
FFC000
FFC000
380000
FFC000
FFC000
380000
3C01C0
1C01C0
1E03C0
0F8F80
07FF00
01FC00
ENDCHAR
STARTCHAR uni20AD
ENCODING 8365
SWIDTH 722 0
DWIDTH 18 0
BBX 14 19 2 0
BITMAP
E03C
E078
E0F0
E1E0
E3C0
E780
EF00
FE00
FFFC
FFFC
F780
E380
E1C0
E1E0
E0E0
E070
E078
E038
E03C
ENDCHAR
STARTCHAR uni2103
ENCODING 8451
SWIDTH 1102 0
DWIDTH 27 0
BBX 26 19 0 0
BITMAP
0001FC00
3C07FF00
660F8F80
C31E03C0
C31C01C0
C33C0000
66380000
3C380000
00380000
00380000
00380000
00380000
00380000
003C01C0
001C01C0
001E03C0
000F8F80
0007FF00
0001FC00
ENDCHAR
STARTCHAR uni2109
ENCODING 8457
SWIDTH 991 0
DWIDTH 24 0
BBX 23 19 0 0
BITMAP
001FFE
3C1FFE
661C00
C31C00
C31C00
C31C00
661C00
3C1C00
001FFC
001FFC
001C00
001C00
001C00
001C00
001C00
001C00
001C00
001C00
001C00
ENDCHAR
STARTCHAR trademark
ENCODING 8482
SWIDTH 1000 0
DWIDTH 23 0
BBX 21 10 1 7
BITMAP
FF3838
FF3838
183C78
183458
1836D8
1836D8
1836D8
183398
183398
183398
ENDCHAR
STARTCHAR uni212A
ENCODING 8490
SWIDTH 722 0
DWIDTH 18 0
BBX 14 19 2 0
BITMAP
E03C
E078
E0F0
E1E0
E3C0
E780
EF00
FE00
FE00
FF00
F780
E380
E1C0
E1E0
E0E0
E070
E078
E038
E03C
ENDCHAR
STARTCHAR uni212B
ENCODING 8491
SWIDTH 722 0
DWIDTH 18 0
BBX 16 24 1 0
BITMAP
03C0
0660
0420
0660
03C0
03C0
03C0
07E0
07E0
0E60
0E70
0E70
1C38
1C38
1C38
381C
381C
3FFC
7FFE
700E
700E
E007
E007
E007
ENDCHAR
STARTCHAR uni2132
ENCODING 8498
SWIDTH 611 0
DWIDTH 15 0
BBX 12 19 2 0
BITMAP
0070
0070
0070
0070
0070
0070
0070
0070
0070
7FF0
7FF0
0070
0070
0070
0070
0070
0070
FFF0
FFF0
ENDCHAR
STARTCHAR universal
ENCODING 8704
SWIDTH 722 0
DWIDTH 18 0
BBX 16 19 1 0
BITMAP
E007
E007
E007
700E
700E
7FFE
3FFC
381C
381C
1C38
1C38
1C38
0E70
0E70
0E60
07E0
07E0
03C0
03C0
ENDCHAR
STARTCHAR existential
ENCODING 8707
SWIDTH 667 0
DWIDTH 16 0
BBX 13 19 2 0
BITMAP
7FF8
7FF8
0038
0038
0038
0038
0038
0038
3FF8
3FF8
0038
0038
0038
0038
0038
0038
0038
FFF8
FFF8
ENDCHAR
STARTCHAR uni2204
ENCODING 8708
SWIDTH 667 0
DWIDTH 16 0
BBX 13 19 2 0
BITMAP
7FF8
7FF8
00F8
01B8
01B8
01B8
0338
0338
3FF8
3FF8
0638
0638
0638
0C38
0C38
0C38
1838
FFF8
FFF8
ENDCHAR
STARTCHAR minus
ENCODING 8722
SWIDTH 584 0
DWIDTH 15 0
BBX 12 2 1 6
BITMAP
FFF0
FFF0
ENDCHAR
STARTCHAR fraction
ENCODING 8725
SWIDTH 167 0
DWIDTH 8 0
BBX 10 18 -1 0
BITMAP
00C0
00C0
0180
0180
0300
0300
0600
0600
0C00
0C00
1800
1800
3000
3000
6000
6000
C000
C000
ENDCHAR
STARTCHAR periodcentered
ENCODING 8729
SWIDTH 278 0
DWIDTH 7 0
BBX 3 3 2 6
BITMAP
E0
E0
E0
ENDCHAR
STARTCHAR uni2236
ENCODING 8758
SWIDTH 333 0
DWIDTH 7 0
BBX 3 14 2 0
BITMAP
E0
E0
E0
00
00
00
00
00
00
00
00
E0
E0
E0
ENDCHAR
STARTCHAR uni2259
ENCODING 8793
SWIDTH 584 0
DWIDTH 14 0
BBX 10 10 2 5
BITMAP
0E00
1F00
3B80
71C0
0000
FFC0
FFC0
0000
FFC0
FFC0
ENDCHAR
STARTCHAR uni225A
ENCODING 8794
SWIDTH 584 0
DWIDTH 14 0
BBX 10 10 2 5
BITMAP
71C0
3B80
1F00
0E00
0000
FFC0
FFC0
0000
FFC0
FFC0
ENDCHAR
STARTCHAR notequal
ENCODING 8800
SWIDTH 584 0
DWIDTH 14 0
BBX 10 19 2 -2
BITMAP
0180
0180
0180
0300
0300
0300
0600
FFC0
FFC0
0600
FFC0
FFC0
0C00
1800
1800
1800
3000
3000
3000
ENDCHAR
STARTCHAR equivalence
ENCODING 8801
SWIDTH 584 0
DWIDTH 14 0
BBX 10 8 0 3
BITMAP
FFC0
FFC0
0000
FFC0
FFC0
0000
FFC0
FFC0
ENDCHAR
STARTCHAR uni2262
ENCODING 8802
SWIDTH 584 0
DWIDTH 14 0
BBX 10 19 0 -2
BITMAP
0180
0180
0180
0300
0300
0300
FFC0
FFC0
0600
FFC0
FFC0
0C00
FFC0
FFC0
1800
1800
3000
3000
3000
ENDCHAR
STARTCHAR lessequal
ENCODING 8804
SWIDTH 584 0
DWIDTH 15 0
BBX 13 15 0 -2
BITMAP
0038
00F8
03E0
0F80
3E00
F000
F000
3E00
0F80
03E0
00F8
0038
0000
FFF8
FFF8
ENDCHAR
STARTCHAR greaterequal
ENCODING 8805
SWIDTH 584 0
DWIDTH 14 0
BBX 13 15 1 -2
BITMAP
E000
F800
3E00
0F80
03E0
0078
0078
03E0
0F80
3E00
F800
E000
0000
FFF8
FFF8
ENDCHAR
STARTCHAR uni226E
ENCODING 8814
SWIDTH 584 0
DWIDTH 15 0
BBX 13 19 0 -2
BITMAP
00C0
00C0
00C0
0180
01B8
01F8
03E0
0F80
3F00
F300
F600
3E00
0F80
0FE0
0CF8
0C38
1800
1800
1800
ENDCHAR
STARTCHAR uni226F
ENCODING 8815
SWIDTH 584 0
DWIDTH 14 0
BBX 13 19 1 -2
BITMAP
00C0
00C0
00C0
0180
E180
F980
3F00
0F80
03E0
0378
0678
07E0
0F80
3E00
FC00
EC00
1800
1800
1800
ENDCHAR
STARTCHAR uni2270
ENCODING 8816
SWIDTH 584 0
DWIDTH 15 0
BBX 13 19 0 -4
BITMAP
00C0
00C0
00F8
01F8
03E0
0F80
3F00
F300
F300
3F00
0F80
07E0
06F8
0C38
0C00
FFF8
FFF8
1800
1800
ENDCHAR
STARTCHAR uni2271
ENCODING 8817
SWIDTH 584 0
DWIDTH 14 0
BBX 13 19 1 -4
BITMAP
00C0
00C0
E0C0
F980
3F80
0F80
03E0
0378
0378
03E0
0F80
3E00
FE00
EC00
0C00
FFF8
FFF8
1800
1800
ENDCHAR
STARTCHAR fi
ENCODING -1
SWIDTH 611 0
DWIDTH 14 0
BBX 11 19 1 0
BITMAP
1EE0
3EE0
38E0
3800
3800
FEE0
FEE0
38E0
38E0
38E0
38E0
38E0
38E0
38E0
38E0
38E0
38E0
38E0
38E0
ENDCHAR
STARTCHAR fl
ENCODING -1
SWIDTH 611 0
DWIDTH 14 0
BBX 11 19 1 0
BITMAP
1EE0
3EE0
38E0
38E0
38E0
FEE0
FEE0
38E0
38E0
38E0
38E0
38E0
38E0
38E0
38E0
38E0
38E0
38E0
38E0
ENDCHAR
ENDFONT
